<svg xmlns="http://www.w3.org/2000/svg" xmlns:xlink="http://www.w3.org/1999/xlink" width="500" zoomAndPan="magnify" viewBox="0 0 375 374.999991" height="500" preserveAspectRatio="xMidYMid meet" version="1.2"><defs><clipPath id="d76ca90a16"><path d="M 48.648438 37.5 L 312.835938 37.5 L 312.835938 301.6875 L 48.648438 301.6875 Z M 48.648438 37.5 "/></clipPath><clipPath id="bafc7c4c25"><path d="M 180.742188 37.5 C 107.789062 37.5 48.648438 96.640625 48.648438 169.59375 C 48.648438 242.546875 107.789062 301.6875 180.742188 301.6875 C 253.695312 301.6875 312.835938 242.546875 312.835938 169.59375 C 312.835938 96.640625 253.695312 37.5 180.742188 37.5 Z M 180.742188 37.5 "/></clipPath><clipPath id="07113d2dec"><path d="M 48.648438 37.5 L 312.648438 37.5 L 312.648438 301.5 L 48.648438 301.5 Z M 48.648438 37.5 "/></clipPath><clipPath id="9270eada3e"><path d="M 180.648438 37.5 C 107.746094 37.5 48.648438 96.597656 48.648438 169.5 C 48.648438 242.402344 107.746094 301.5 180.648438 301.5 C 253.550781 301.5 312.648438 242.402344 312.648438 169.5 C 312.648438 96.597656 253.550781 37.5 180.648438 37.5 Z M 180.648438 37.5 "/></clipPath><clipPath id="dc05ffe0e6"><path d="M 58.417969 41.597656 L 302.917969 41.597656 L 302.917969 276 L 58.417969 276 Z M 58.417969 41.597656 "/></clipPath></defs><g id="f518021245"><g clip-rule="nonzero" clip-path="url(#d76ca90a16)"><g clip-rule="nonzero" clip-path="url(#bafc7c4c25)"><path style=" stroke:none;fill-rule:nonzero;fill:#000000;fill-opacity:1;" d="M 48.648438 37.5 L 312.835938 37.5 L 312.835938 301.6875 L 48.648438 301.6875 Z M 48.648438 37.5 "/></g></g><g clip-rule="nonzero" clip-path="url(#07113d2dec)"><g clip-rule="nonzero" clip-path="url(#9270eada3e)"><path style="fill:none;stroke-width:20;stroke-linecap:butt;stroke-linejoin:miter;stroke:#ffffff;stroke-opacity:1;stroke-miterlimit:4;" d="M 176.124721 0.00000328567 C 78.852556 0.00000328567 -0.00028581 78.852845 -0.00028581 176.12501 C -0.00028581 273.397175 78.852556 352.250017 176.124721 352.250017 C 273.396886 352.250017 352.249728 273.397175 352.249728 176.12501 C 352.249728 78.852845 273.396886 0.00000328567 176.124721 0.00000328567 Z M 176.124721 0.00000328567 " transform="matrix(0.749468,0,0,0.749468,48.648652,37.499998)"/></g></g><g clip-rule="nonzero" clip-path="url(#dc05ffe0e6)"><path style=" stroke:none;fill-rule:nonzero;fill:#ffffff;fill-opacity:1;" d="M 180.667969 220.867188 L 256.25 275.871094 L 227.320312 187.050781 L 302.898438 133.269531 L 210.207031 133.269531 L 180.667969 41.597656 L 151.128906 133.269531 L 58.4375 133.269531 L 134.019531 187.050781 L 105.191406 275.871094 Z M 180.667969 220.867188 "/></g></g></svg>