<svg xmlns="http://www.w3.org/2000/svg" xmlns:xlink="http://www.w3.org/1999/xlink" width="1366" zoomAndPan="magnify" viewBox="0 0 1024.5 576" height="768" preserveAspectRatio="xMidYMid meet" version="1.2"><defs/><g id="2e42827e4d"><g style="fill:#ffffff;fill-opacity:1;"><g transform="translate(65.583615, 91.745801)"><path style="stroke:none" d="M 10.03125 -3.53125 C 11.457031 -3.53125 12.640625 -3.664062 13.578125 -3.9375 C 14.515625 -4.21875 15.269531 -4.664062 15.84375 -5.28125 C 16.414062 -5.90625 16.8125 -6.6875 17.03125 -7.625 C 17.257812 -8.5625 17.375 -9.703125 17.375 -11.046875 C 17.375 -12.410156 17.25 -13.578125 17 -14.546875 C 16.75 -15.515625 16.335938 -16.289062 15.765625 -16.875 C 15.191406 -17.46875 14.425781 -17.894531 13.46875 -18.15625 C 12.519531 -18.425781 11.363281 -18.5625 10 -18.5625 L 7.390625 -18.5625 L 7.390625 -3.53125 Z M 11.5 -22.078125 C 13.09375 -22.078125 14.515625 -21.816406 15.765625 -21.296875 C 17.015625 -20.785156 18.0625 -20.050781 18.90625 -19.09375 C 19.757812 -18.144531 20.414062 -16.984375 20.875 -15.609375 C 21.34375 -14.242188 21.578125 -12.722656 21.578125 -11.046875 C 21.578125 -7.265625 20.609375 -4.476562 18.671875 -2.6875 C 16.742188 -0.894531 14.046875 0 10.578125 0 L 2.1875 0 L 2.1875 -0.59375 C 2.570312 -0.644531 2.832031 -0.75 2.96875 -0.90625 C 3.113281 -1.0625 3.1875 -1.316406 3.1875 -1.671875 L 3.1875 -20.40625 C 3.1875 -20.769531 3.113281 -21.023438 2.96875 -21.171875 C 2.832031 -21.328125 2.570312 -21.4375 2.1875 -21.5 L 2.1875 -22.078125 Z M 11.5 -22.078125 "/></g><g transform="translate(88.924223, 91.745801)"><path style="stroke:none" d="M 16.453125 -14.4375 L 15.875 -14.4375 C 15.8125 -14.863281 15.6875 -15.148438 15.5 -15.296875 C 15.320312 -15.453125 15.082031 -15.53125 14.78125 -15.53125 L 6.96875 -15.53125 L 6.96875 -11 L 11.671875 -11 C 12.003906 -11 12.253906 -11.050781 12.421875 -11.15625 C 12.585938 -11.269531 12.703125 -11.523438 12.765625 -11.921875 L 13.34375 -11.921875 L 13.34375 -7.140625 L 12.765625 -7.140625 C 12.703125 -7.523438 12.582031 -7.773438 12.40625 -7.890625 C 12.226562 -8.003906 11.984375 -8.0625 11.671875 -8.0625 L 6.96875 -8.0625 L 6.96875 -2.9375 L 14.828125 -2.9375 C 15.078125 -2.9375 15.296875 -3.003906 15.484375 -3.140625 C 15.679688 -3.285156 15.8125 -3.566406 15.875 -3.984375 L 16.453125 -3.984375 L 16.453125 0.75 L 15.875 0.75 C 15.789062 0.414062 15.648438 0.207031 15.453125 0.125 C 15.253906 0.0390625 15 0 14.6875 0 L 2.515625 0 L 2.515625 -0.59375 C 3.023438 -0.59375 3.28125 -0.953125 3.28125 -1.671875 L 3.28125 -16.828125 C 3.28125 -17.535156 3.023438 -17.890625 2.515625 -17.890625 L 2.515625 -18.46875 L 14.734375 -18.46875 C 15.046875 -18.46875 15.289062 -18.515625 15.46875 -18.609375 C 15.65625 -18.710938 15.789062 -18.921875 15.875 -19.234375 L 16.453125 -19.234375 Z M 16.453125 -14.4375 "/></g><g transform="translate(107.563126, 91.745801)"><path style="stroke:none" d="M 9.40625 -10.15625 C 10.882812 -10.15625 11.9375 -10.359375 12.5625 -10.765625 C 13.195312 -11.171875 13.515625 -11.894531 13.515625 -12.9375 C 13.515625 -14 13.1875 -14.722656 12.53125 -15.109375 C 11.875 -15.503906 10.804688 -15.703125 9.328125 -15.703125 L 6.71875 -15.703125 L 6.71875 -10.15625 Z M 10.28125 -18.46875 C 12.320312 -18.46875 13.957031 -18.039062 15.1875 -17.1875 C 16.425781 -16.332031 17.046875 -14.957031 17.046875 -13.0625 C 17.046875 -11.15625 16.425781 -9.734375 15.1875 -8.796875 C 13.957031 -7.859375 12.320312 -7.390625 10.28125 -7.390625 L 6.71875 -7.390625 L 6.71875 -1.671875 C 6.71875 -0.953125 6.96875 -0.59375 7.46875 -0.59375 L 7.46875 0 L 2.34375 0 L 2.34375 -0.59375 C 2.789062 -0.59375 3.015625 -0.953125 3.015625 -1.671875 L 3.015625 -16.796875 C 3.015625 -17.523438 2.765625 -17.890625 2.265625 -17.890625 L 2.265625 -18.46875 Z M 10.28125 -18.46875 "/></g><g transform="translate(126.202028, 91.745801)"><path style="stroke:none" d="M 16.453125 -14.4375 L 15.875 -14.4375 C 15.8125 -14.863281 15.6875 -15.148438 15.5 -15.296875 C 15.320312 -15.453125 15.082031 -15.53125 14.78125 -15.53125 L 6.96875 -15.53125 L 6.96875 -11 L 11.671875 -11 C 12.003906 -11 12.253906 -11.050781 12.421875 -11.15625 C 12.585938 -11.269531 12.703125 -11.523438 12.765625 -11.921875 L 13.34375 -11.921875 L 13.34375 -7.140625 L 12.765625 -7.140625 C 12.703125 -7.523438 12.582031 -7.773438 12.40625 -7.890625 C 12.226562 -8.003906 11.984375 -8.0625 11.671875 -8.0625 L 6.96875 -8.0625 L 6.96875 -2.9375 L 14.828125 -2.9375 C 15.078125 -2.9375 15.296875 -3.003906 15.484375 -3.140625 C 15.679688 -3.285156 15.8125 -3.566406 15.875 -3.984375 L 16.453125 -3.984375 L 16.453125 0.75 L 15.875 0.75 C 15.789062 0.414062 15.648438 0.207031 15.453125 0.125 C 15.253906 0.0390625 15 0 14.6875 0 L 2.515625 0 L 2.515625 -0.59375 C 3.023438 -0.59375 3.28125 -0.953125 3.28125 -1.671875 L 3.28125 -16.828125 C 3.28125 -17.535156 3.023438 -17.890625 2.515625 -17.890625 L 2.515625 -18.46875 L 14.734375 -18.46875 C 15.046875 -18.46875 15.289062 -18.515625 15.46875 -18.609375 C 15.65625 -18.710938 15.789062 -18.921875 15.875 -19.234375 L 16.453125 -19.234375 Z M 16.453125 -14.4375 "/></g><g transform="translate(144.840931, 91.745801)"><path style="stroke:none" d="M 8.265625 -18.46875 L 8.265625 -17.890625 C 8.078125 -17.828125 7.929688 -17.753906 7.828125 -17.671875 C 7.734375 -17.585938 7.6875 -17.445312 7.6875 -17.25 C 7.6875 -17.0625 7.800781 -16.785156 8.03125 -16.421875 C 8.269531 -16.054688 8.503906 -15.675781 8.734375 -15.28125 L 14.65625 -5.875 L 14.734375 -5.875 L 14.734375 -16.796875 C 14.734375 -17.523438 14.453125 -17.890625 13.890625 -17.890625 L 13.890625 -18.46875 L 18.84375 -18.46875 L 18.84375 -17.890625 C 18.289062 -17.890625 18.015625 -17.523438 18.015625 -16.796875 L 18.015625 -1.640625 C 18.015625 -0.941406 18.289062 -0.59375 18.84375 -0.59375 L 18.84375 0 L 13.5625 0 L 13.5625 -0.59375 C 13.695312 -0.613281 13.800781 -0.671875 13.875 -0.765625 C 13.945312 -0.867188 13.984375 -0.960938 13.984375 -1.046875 C 13.984375 -1.160156 13.945312 -1.289062 13.875 -1.4375 C 13.800781 -1.59375 13.65625 -1.84375 13.4375 -2.1875 L 6.421875 -12.890625 L 6.34375 -12.890625 L 6.34375 -1.71875 C 6.34375 -0.96875 6.648438 -0.59375 7.265625 -0.59375 L 7.265625 0 L 2.140625 0 L 2.140625 -0.59375 C 2.753906 -0.59375 3.0625 -0.953125 3.0625 -1.671875 L 3.0625 -16.796875 C 3.0625 -17.523438 2.753906 -17.890625 2.140625 -17.890625 L 2.140625 -18.46875 Z M 8.265625 -18.46875 "/></g><g transform="translate(165.830686, 91.745801)"><path style="stroke:none" d="M 10.15625 -2.9375 C 12.03125 -2.9375 13.410156 -3.425781 14.296875 -4.40625 C 15.179688 -5.382812 15.625 -6.992188 15.625 -9.234375 C 15.625 -11.503906 15.175781 -13.117188 14.28125 -14.078125 C 13.382812 -15.046875 12.007812 -15.53125 10.15625 -15.53125 L 6.796875 -15.53125 L 6.796875 -2.9375 Z M 10.578125 -18.46875 C 13.265625 -18.46875 15.363281 -17.703125 16.875 -16.171875 C 18.382812 -14.648438 19.140625 -12.335938 19.140625 -9.234375 C 19.140625 -6.160156 18.390625 -3.851562 16.890625 -2.3125 C 15.398438 -0.769531 13.253906 0 10.453125 0 L 2.34375 0 L 2.34375 -0.59375 C 2.851562 -0.59375 3.109375 -0.953125 3.109375 -1.671875 L 3.109375 -16.828125 C 3.109375 -17.535156 2.851562 -17.890625 2.34375 -17.890625 L 2.34375 -18.46875 Z M 10.578125 -18.46875 "/></g><g transform="translate(186.820441, 91.745801)"><path style="stroke:none" d="M 6.546875 -7.3125 L 11.328125 -7.3125 L 9.0625 -15.703125 L 8.984375 -15.703125 Z M 11.71875 -18.46875 L 11.71875 -17.890625 C 11.519531 -17.742188 11.421875 -17.585938 11.421875 -17.421875 C 11.421875 -17.285156 11.539062 -16.882812 11.78125 -16.21875 C 12.019531 -15.5625 12.347656 -14.617188 12.765625 -13.390625 C 13.179688 -12.160156 13.601562 -10.941406 14.03125 -9.734375 C 14.46875 -8.535156 14.925781 -7.25 15.40625 -5.875 C 15.882812 -4.507812 16.269531 -3.421875 16.5625 -2.609375 C 16.851562 -1.796875 17.03125 -1.316406 17.09375 -1.171875 C 17.257812 -0.804688 17.484375 -0.613281 17.765625 -0.59375 L 17.765625 0 L 12.71875 0 L 12.71875 -0.59375 C 13.050781 -0.757812 13.21875 -0.984375 13.21875 -1.265625 C 13.21875 -1.515625 13.035156 -2.113281 12.671875 -3.0625 C 12.617188 -3.226562 12.5 -3.535156 12.3125 -3.984375 C 12.132812 -4.429688 12.03125 -4.753906 12 -4.953125 L 5.875 -4.953125 C 5.84375 -4.835938 5.769531 -4.617188 5.65625 -4.296875 C 5.550781 -3.984375 5.441406 -3.671875 5.328125 -3.359375 C 4.941406 -2.328125 4.75 -1.640625 4.75 -1.296875 C 4.75 -0.910156 4.859375 -0.675781 5.078125 -0.59375 L 5.078125 0 L 0.875 0 L 0.875 -0.59375 C 1.019531 -0.644531 1.132812 -0.75 1.21875 -0.90625 C 1.300781 -1.0625 1.425781 -1.390625 1.59375 -1.890625 L 4.625 -10.578125 C 5.320312 -12.597656 5.863281 -14.191406 6.25 -15.359375 C 6.644531 -16.535156 6.84375 -17.195312 6.84375 -17.34375 C 6.84375 -17.539062 6.726562 -17.722656 6.5 -17.890625 L 6.5 -18.46875 Z M 11.71875 -18.46875 "/></g><g transform="translate(205.459344, 91.745801)"><path style="stroke:none" d="M 10.328125 -2.765625 C 11.671875 -2.765625 12.734375 -2.96875 13.515625 -3.375 C 14.296875 -3.78125 14.6875 -4.488281 14.6875 -5.5 C 14.6875 -6.507812 14.300781 -7.21875 13.53125 -7.625 C 12.769531 -8.03125 11.71875 -8.234375 10.375 -8.234375 L 7.046875 -8.234375 L 7.046875 -2.765625 Z M 10.578125 -11 C 12.085938 -11 13.09375 -11.207031 13.59375 -11.625 C 14.101562 -12.050781 14.359375 -12.625 14.359375 -13.34375 C 14.359375 -14.15625 14.078125 -14.75 13.515625 -15.125 C 12.953125 -15.507812 11.957031 -15.703125 10.53125 -15.703125 L 7.046875 -15.703125 L 7.046875 -11 Z M 11.296875 -18.46875 C 13.472656 -18.46875 15.113281 -17.984375 16.21875 -17.015625 C 17.332031 -16.054688 17.890625 -14.863281 17.890625 -13.4375 C 17.890625 -12.394531 17.625 -11.570312 17.09375 -10.96875 C 16.5625 -10.375 15.847656 -9.894531 14.953125 -9.53125 C 16.117188 -9.132812 16.953125 -8.523438 17.453125 -7.703125 C 17.960938 -6.878906 18.21875 -5.921875 18.21875 -4.828125 C 18.21875 -3.285156 17.648438 -2.09375 16.515625 -1.25 C 15.390625 -0.414062 13.789062 0 11.71875 0 L 2.515625 0 L 2.515625 -0.59375 C 3.078125 -0.59375 3.359375 -0.96875 3.359375 -1.71875 L 3.359375 -16.796875 C 3.359375 -17.523438 3.132812 -17.890625 2.6875 -17.890625 L 2.6875 -18.46875 Z M 11.296875 -18.46875 "/></g><g transform="translate(226.449099, 91.745801)"><path style="stroke:none" d="M 7.6875 -18.46875 L 7.6875 -17.890625 C 7.039062 -17.890625 6.71875 -17.523438 6.71875 -16.796875 L 6.71875 -2.9375 L 14.0625 -2.9375 C 14.375 -2.9375 14.617188 -3.015625 14.796875 -3.171875 C 14.984375 -3.328125 15.101562 -3.597656 15.15625 -3.984375 L 15.75 -3.984375 L 15.75 0.75 L 15.15625 0.75 C 15.070312 0.445312 14.9375 0.242188 14.75 0.140625 C 14.570312 0.046875 14.328125 0 14.015625 0 L 1.9375 0 L 1.9375 -0.59375 C 2.65625 -0.59375 3.015625 -0.953125 3.015625 -1.671875 L 3.015625 -16.796875 C 3.015625 -17.523438 2.65625 -17.890625 1.9375 -17.890625 L 1.9375 -18.46875 Z M 7.6875 -18.46875 "/></g><g transform="translate(242.779129, 91.745801)"><path style="stroke:none" d="M 16.453125 -14.4375 L 15.875 -14.4375 C 15.8125 -14.863281 15.6875 -15.148438 15.5 -15.296875 C 15.320312 -15.453125 15.082031 -15.53125 14.78125 -15.53125 L 6.96875 -15.53125 L 6.96875 -11 L 11.671875 -11 C 12.003906 -11 12.253906 -11.050781 12.421875 -11.15625 C 12.585938 -11.269531 12.703125 -11.523438 12.765625 -11.921875 L 13.34375 -11.921875 L 13.34375 -7.140625 L 12.765625 -7.140625 C 12.703125 -7.523438 12.582031 -7.773438 12.40625 -7.890625 C 12.226562 -8.003906 11.984375 -8.0625 11.671875 -8.0625 L 6.96875 -8.0625 L 6.96875 -2.9375 L 14.828125 -2.9375 C 15.078125 -2.9375 15.296875 -3.003906 15.484375 -3.140625 C 15.679688 -3.285156 15.8125 -3.566406 15.875 -3.984375 L 16.453125 -3.984375 L 16.453125 0.75 L 15.875 0.75 C 15.789062 0.414062 15.648438 0.207031 15.453125 0.125 C 15.253906 0.0390625 15 0 14.6875 0 L 2.515625 0 L 2.515625 -0.59375 C 3.023438 -0.59375 3.28125 -0.953125 3.28125 -1.671875 L 3.28125 -16.828125 C 3.28125 -17.535156 3.023438 -17.890625 2.515625 -17.890625 L 2.515625 -18.46875 L 14.734375 -18.46875 C 15.046875 -18.46875 15.289062 -18.515625 15.46875 -18.609375 C 15.65625 -18.710938 15.789062 -18.921875 15.875 -19.234375 L 16.453125 -19.234375 Z M 16.453125 -14.4375 "/></g><g transform="translate(261.418031, 91.745801)"><path style="stroke:none" d=""/></g><g transform="translate(271.912909, 91.745801)"><path style="stroke:none" d="M 6.25 -22.078125 L 6.25 -21.5 C 5.96875 -21.4375 5.785156 -21.363281 5.703125 -21.28125 C 5.617188 -21.195312 5.578125 -21.085938 5.578125 -20.953125 C 5.578125 -20.722656 5.722656 -20.101562 6.015625 -19.09375 C 6.316406 -18.09375 6.75 -16.65625 7.3125 -14.78125 C 7.863281 -12.90625 8.328125 -11.304688 8.703125 -9.984375 C 9.085938 -8.671875 9.363281 -7.609375 9.53125 -6.796875 L 9.609375 -6.796875 C 9.773438 -7.691406 10.035156 -8.8125 10.390625 -10.15625 C 10.742188 -11.5 11.1875 -13.097656 11.71875 -14.953125 C 12.1875 -16.628906 12.566406 -17.988281 12.859375 -19.03125 C 13.160156 -20.082031 13.3125 -20.679688 13.3125 -20.828125 C 13.3125 -21.023438 13.257812 -21.171875 13.15625 -21.265625 C 13.0625 -21.359375 12.832031 -21.4375 12.46875 -21.5 L 12.46875 -22.078125 L 17.921875 -22.078125 L 17.921875 -21.5 C 17.554688 -21.382812 17.328125 -21.265625 17.234375 -21.140625 C 17.140625 -21.015625 17.09375 -20.835938 17.09375 -20.609375 C 17.09375 -20.441406 17.242188 -19.816406 17.546875 -18.734375 C 17.859375 -17.660156 18.304688 -16.144531 18.890625 -14.1875 C 19.503906 -12.144531 19.976562 -10.488281 20.3125 -9.21875 C 20.65625 -7.945312 20.878906 -6.945312 20.984375 -6.21875 L 21.078125 -6.21875 C 21.296875 -7.476562 21.609375 -8.875 22.015625 -10.40625 C 22.421875 -11.945312 22.890625 -13.597656 23.421875 -15.359375 C 23.953125 -17.128906 24.34375 -18.441406 24.59375 -19.296875 C 24.851562 -20.148438 24.984375 -20.644531 24.984375 -20.78125 C 24.984375 -20.945312 24.925781 -21.085938 24.8125 -21.203125 C 24.695312 -21.316406 24.472656 -21.414062 24.140625 -21.5 L 24.140625 -22.078125 L 29.59375 -22.078125 L 29.59375 -21.5 C 29.34375 -21.382812 29.140625 -21.234375 28.984375 -21.046875 C 28.835938 -20.867188 28.675781 -20.5 28.5 -19.9375 L 23.71875 -3.953125 C 23.4375 -3.023438 23.269531 -2.382812 23.21875 -2.03125 C 23.164062 -1.6875 23.140625 -1.414062 23.140625 -1.21875 C 23.140625 -1.070312 23.171875 -0.941406 23.234375 -0.828125 C 23.304688 -0.722656 23.410156 -0.644531 23.546875 -0.59375 L 23.546875 0 L 18.171875 0 L 18.171875 -0.59375 C 18.566406 -0.675781 18.765625 -0.882812 18.765625 -1.21875 C 18.765625 -1.46875 18.628906 -2.039062 18.359375 -2.9375 C 18.097656 -3.832031 17.703125 -5.160156 17.171875 -6.921875 C 16.609375 -8.773438 16.164062 -10.375 15.84375 -11.71875 C 15.519531 -13.0625 15.304688 -14.179688 15.203125 -15.078125 L 15.109375 -15.078125 C 14.941406 -14.097656 14.65625 -12.820312 14.25 -11.25 C 13.84375 -9.6875 13.316406 -7.753906 12.671875 -5.453125 C 12.285156 -4.109375 11.992188 -3.085938 11.796875 -2.390625 C 11.597656 -1.691406 11.5 -1.300781 11.5 -1.21875 C 11.5 -1.070312 11.5625 -0.941406 11.6875 -0.828125 C 11.8125 -0.722656 11.960938 -0.644531 12.140625 -0.59375 L 12.140625 0 L 6.921875 0 L 6.921875 -0.59375 C 7.003906 -0.59375 7.101562 -0.632812 7.21875 -0.71875 C 7.332031 -0.800781 7.390625 -0.894531 7.390625 -1 C 7.390625 -1.113281 7.328125 -1.363281 7.203125 -1.75 C 7.078125 -2.144531 6.898438 -2.738281 6.671875 -3.53125 L 1.59375 -20.28125 C 1.457031 -20.78125 1.316406 -21.09375 1.171875 -21.21875 C 1.035156 -21.34375 0.882812 -21.4375 0.71875 -21.5 L 0.71875 -22.078125 Z M 6.25 -22.078125 "/></g><g transform="translate(302.222116, 91.745801)"><path style="stroke:none" d="M 10.5 0.25 C 9.207031 0.25 8.015625 0.0195312 6.921875 -0.4375 C 5.835938 -0.90625 4.898438 -1.554688 4.109375 -2.390625 C 3.328125 -3.234375 2.71875 -4.234375 2.28125 -5.390625 C 1.851562 -6.554688 1.640625 -7.835938 1.640625 -9.234375 C 1.640625 -10.609375 1.851562 -11.875 2.28125 -13.03125 C 2.71875 -14.195312 3.328125 -15.195312 4.109375 -16.03125 C 4.898438 -16.875 5.832031 -17.53125 6.90625 -18 C 7.976562 -18.476562 9.175781 -18.71875 10.5 -18.71875 C 11.78125 -18.71875 12.96875 -18.488281 14.0625 -18.03125 C 15.15625 -17.570312 16.09375 -16.921875 16.875 -16.078125 C 17.65625 -15.242188 18.265625 -14.242188 18.703125 -13.078125 C 19.140625 -11.910156 19.359375 -10.628906 19.359375 -9.234375 C 19.359375 -7.835938 19.140625 -6.554688 18.703125 -5.390625 C 18.265625 -4.234375 17.65625 -3.234375 16.875 -2.390625 C 16.09375 -1.554688 15.15625 -0.90625 14.0625 -0.4375 C 12.96875 0.0195312 11.78125 0.25 10.5 0.25 Z M 5.171875 -9.234375 C 5.171875 -8.253906 5.300781 -7.363281 5.5625 -6.5625 C 5.832031 -5.769531 6.195312 -5.085938 6.65625 -4.515625 C 7.113281 -3.941406 7.671875 -3.492188 8.328125 -3.171875 C 8.992188 -2.847656 9.71875 -2.6875 10.5 -2.6875 C 11.28125 -2.6875 12 -2.847656 12.65625 -3.171875 C 13.3125 -3.492188 13.867188 -3.941406 14.328125 -4.515625 C 14.796875 -5.085938 15.160156 -5.769531 15.421875 -6.5625 C 15.691406 -7.363281 15.828125 -8.253906 15.828125 -9.234375 C 15.828125 -10.179688 15.691406 -11.0625 15.421875 -11.875 C 15.160156 -12.6875 14.796875 -13.378906 14.328125 -13.953125 C 13.867188 -14.535156 13.3125 -14.984375 12.65625 -15.296875 C 12 -15.617188 11.28125 -15.78125 10.5 -15.78125 C 8.925781 -15.78125 7.644531 -15.175781 6.65625 -13.96875 C 5.664062 -12.769531 5.171875 -11.191406 5.171875 -9.234375 Z M 5.171875 -9.234375 "/></g><g transform="translate(323.211871, 91.745801)"><path style="stroke:none" d="M 10.703125 -10.078125 C 12.210938 -10.078125 13.296875 -10.28125 13.953125 -10.6875 C 14.617188 -11.09375 14.953125 -11.828125 14.953125 -12.890625 C 14.953125 -13.867188 14.65625 -14.582031 14.0625 -15.03125 C 13.476562 -15.476562 12.390625 -15.703125 10.796875 -15.703125 L 6.96875 -15.703125 L 6.96875 -10.078125 Z M 12.140625 -18.46875 C 14.179688 -18.46875 15.742188 -17.976562 16.828125 -17 C 17.921875 -16.019531 18.46875 -14.625 18.46875 -12.8125 C 18.46875 -12.164062 18.34375 -11.546875 18.09375 -10.953125 C 17.84375 -10.367188 17.503906 -9.84375 17.078125 -9.375 C 16.660156 -8.914062 16.171875 -8.53125 15.609375 -8.21875 C 15.054688 -7.914062 14.472656 -7.738281 13.859375 -7.6875 L 17.59375 -1.421875 C 17.789062 -1.117188 17.953125 -0.914062 18.078125 -0.8125 C 18.203125 -0.71875 18.332031 -0.644531 18.46875 -0.59375 L 18.46875 0 L 13.4375 0 L 13.4375 -0.59375 C 13.738281 -0.59375 13.890625 -0.703125 13.890625 -0.921875 C 13.890625 -1.035156 13.867188 -1.160156 13.828125 -1.296875 C 13.785156 -1.441406 13.695312 -1.625 13.5625 -1.84375 L 10.28125 -7.3125 L 6.96875 -7.3125 L 6.96875 -1.671875 C 6.96875 -1.367188 7.03125 -1.113281 7.15625 -0.90625 C 7.28125 -0.695312 7.46875 -0.59375 7.71875 -0.59375 L 7.71875 0 L 2.515625 0 L 2.515625 -0.59375 C 2.765625 -0.59375 2.953125 -0.695312 3.078125 -0.90625 C 3.210938 -1.113281 3.28125 -1.367188 3.28125 -1.671875 L 3.28125 -16.796875 C 3.28125 -17.523438 3.023438 -17.890625 2.515625 -17.890625 L 2.515625 -18.46875 Z M 12.140625 -18.46875 "/></g><g transform="translate(344.201626, 91.745801)"><path style="stroke:none" d="M 7.46875 -18.46875 L 7.46875 -17.890625 C 7.300781 -17.890625 7.144531 -17.800781 7 -17.625 C 6.863281 -17.457031 6.796875 -17.179688 6.796875 -16.796875 L 6.796875 -11 L 12.171875 -16.625 C 12.398438 -16.851562 12.582031 -17.035156 12.71875 -17.171875 C 12.863281 -17.304688 12.9375 -17.445312 12.9375 -17.59375 C 12.9375 -17.726562 12.765625 -17.828125 12.421875 -17.890625 L 12.421875 -18.46875 L 17.96875 -18.46875 L 17.96875 -17.890625 C 17.75 -17.828125 17.546875 -17.738281 17.359375 -17.625 C 17.179688 -17.519531 17.035156 -17.410156 16.921875 -17.296875 L 10.625 -11.046875 L 16.453125 -2.265625 C 16.648438 -1.984375 16.894531 -1.664062 17.1875 -1.3125 C 17.488281 -0.96875 17.832031 -0.726562 18.21875 -0.59375 L 18.21875 0 L 12.671875 0 L 12.671875 -0.59375 C 12.953125 -0.59375 13.132812 -0.613281 13.21875 -0.65625 C 13.300781 -0.695312 13.34375 -0.785156 13.34375 -0.921875 C 13.34375 -1.035156 13.300781 -1.175781 13.21875 -1.34375 C 13.132812 -1.507812 12.984375 -1.773438 12.765625 -2.140625 L 8.515625 -8.90625 L 6.796875 -7.21875 L 6.796875 -1.671875 C 6.796875 -1.367188 6.859375 -1.113281 6.984375 -0.90625 C 7.109375 -0.695312 7.300781 -0.59375 7.5625 -0.59375 L 7.5625 0 L 2.265625 0 L 2.265625 -0.59375 C 2.828125 -0.59375 3.109375 -0.953125 3.109375 -1.671875 L 3.109375 -16.796875 C 3.109375 -17.523438 2.828125 -17.890625 2.265625 -17.890625 L 2.265625 -18.46875 Z M 7.46875 -18.46875 "/></g></g><g style="fill:#ffffff;fill-opacity:1;"><g transform="translate(214.213204, 231.590245)"><path style="stroke:none" d="M 8.234375 -22.078125 L 8.234375 -21.5 C 7.785156 -21.4375 7.488281 -21.328125 7.34375 -21.171875 C 7.207031 -21.023438 7.140625 -20.769531 7.140625 -20.40625 L 7.140625 -13.34375 L 16.203125 -13.34375 L 16.203125 -20.40625 C 16.203125 -20.769531 16.128906 -21.023438 15.984375 -21.171875 C 15.847656 -21.328125 15.554688 -21.4375 15.109375 -21.5 L 15.109375 -22.078125 L 21.5 -22.078125 L 21.5 -21.5 C 21.050781 -21.4375 20.753906 -21.328125 20.609375 -21.171875 C 20.472656 -21.023438 20.40625 -20.769531 20.40625 -20.40625 L 20.40625 -1.671875 C 20.40625 -1.335938 20.46875 -1.085938 20.59375 -0.921875 C 20.71875 -0.753906 21.019531 -0.644531 21.5 -0.59375 L 21.5 0 L 15.109375 0 L 15.109375 -0.59375 C 15.535156 -0.644531 15.820312 -0.738281 15.96875 -0.875 C 16.125 -1.019531 16.203125 -1.285156 16.203125 -1.671875 L 16.203125 -10.15625 L 7.140625 -10.15625 L 7.140625 -1.671875 C 7.140625 -1.316406 7.207031 -1.0625 7.34375 -0.90625 C 7.488281 -0.75 7.785156 -0.644531 8.234375 -0.59375 L 8.234375 0 L 1.84375 0 L 1.84375 -0.59375 C 2.289062 -0.644531 2.582031 -0.75 2.71875 -0.90625 C 2.863281 -1.0625 2.9375 -1.316406 2.9375 -1.671875 L 2.9375 -20.40625 C 2.9375 -20.769531 2.863281 -21.023438 2.71875 -21.171875 C 2.582031 -21.328125 2.289062 -21.4375 1.84375 -21.5 L 1.84375 -22.078125 Z M 8.234375 -22.078125 "/></g><g transform="translate(237.553812, 231.590245)"><path style="stroke:none" d="M 10.5 0.25 C 9.207031 0.25 8.015625 0.0195312 6.921875 -0.4375 C 5.835938 -0.90625 4.898438 -1.554688 4.109375 -2.390625 C 3.328125 -3.234375 2.71875 -4.234375 2.28125 -5.390625 C 1.851562 -6.554688 1.640625 -7.835938 1.640625 -9.234375 C 1.640625 -10.609375 1.851562 -11.875 2.28125 -13.03125 C 2.71875 -14.195312 3.328125 -15.195312 4.109375 -16.03125 C 4.898438 -16.875 5.832031 -17.53125 6.90625 -18 C 7.976562 -18.476562 9.175781 -18.71875 10.5 -18.71875 C 11.78125 -18.71875 12.96875 -18.488281 14.0625 -18.03125 C 15.15625 -17.570312 16.09375 -16.921875 16.875 -16.078125 C 17.65625 -15.242188 18.265625 -14.242188 18.703125 -13.078125 C 19.140625 -11.910156 19.359375 -10.628906 19.359375 -9.234375 C 19.359375 -7.835938 19.140625 -6.554688 18.703125 -5.390625 C 18.265625 -4.234375 17.65625 -3.234375 16.875 -2.390625 C 16.09375 -1.554688 15.15625 -0.90625 14.0625 -0.4375 C 12.96875 0.0195312 11.78125 0.25 10.5 0.25 Z M 5.171875 -9.234375 C 5.171875 -8.253906 5.300781 -7.363281 5.5625 -6.5625 C 5.832031 -5.769531 6.195312 -5.085938 6.65625 -4.515625 C 7.113281 -3.941406 7.671875 -3.492188 8.328125 -3.171875 C 8.992188 -2.847656 9.71875 -2.6875 10.5 -2.6875 C 11.28125 -2.6875 12 -2.847656 12.65625 -3.171875 C 13.3125 -3.492188 13.867188 -3.941406 14.328125 -4.515625 C 14.796875 -5.085938 15.160156 -5.769531 15.421875 -6.5625 C 15.691406 -7.363281 15.828125 -8.253906 15.828125 -9.234375 C 15.828125 -10.179688 15.691406 -11.0625 15.421875 -11.875 C 15.160156 -12.6875 14.796875 -13.378906 14.328125 -13.953125 C 13.867188 -14.535156 13.3125 -14.984375 12.65625 -15.296875 C 12 -15.617188 11.28125 -15.78125 10.5 -15.78125 C 8.925781 -15.78125 7.644531 -15.175781 6.65625 -13.96875 C 5.664062 -12.769531 5.171875 -11.191406 5.171875 -9.234375 Z M 5.171875 -9.234375 "/></g><g transform="translate(258.543567, 231.590245)"><path style="stroke:none" d="M 8.265625 -18.46875 L 8.265625 -17.890625 C 8.078125 -17.828125 7.929688 -17.753906 7.828125 -17.671875 C 7.734375 -17.585938 7.6875 -17.445312 7.6875 -17.25 C 7.6875 -17.0625 7.800781 -16.785156 8.03125 -16.421875 C 8.269531 -16.054688 8.503906 -15.675781 8.734375 -15.28125 L 14.65625 -5.875 L 14.734375 -5.875 L 14.734375 -16.796875 C 14.734375 -17.523438 14.453125 -17.890625 13.890625 -17.890625 L 13.890625 -18.46875 L 18.84375 -18.46875 L 18.84375 -17.890625 C 18.289062 -17.890625 18.015625 -17.523438 18.015625 -16.796875 L 18.015625 -1.640625 C 18.015625 -0.941406 18.289062 -0.59375 18.84375 -0.59375 L 18.84375 0 L 13.5625 0 L 13.5625 -0.59375 C 13.695312 -0.613281 13.800781 -0.671875 13.875 -0.765625 C 13.945312 -0.867188 13.984375 -0.960938 13.984375 -1.046875 C 13.984375 -1.160156 13.945312 -1.289062 13.875 -1.4375 C 13.800781 -1.59375 13.65625 -1.84375 13.4375 -2.1875 L 6.421875 -12.890625 L 6.34375 -12.890625 L 6.34375 -1.71875 C 6.34375 -0.96875 6.648438 -0.59375 7.265625 -0.59375 L 7.265625 0 L 2.140625 0 L 2.140625 -0.59375 C 2.753906 -0.59375 3.0625 -0.953125 3.0625 -1.671875 L 3.0625 -16.796875 C 3.0625 -17.523438 2.753906 -17.890625 2.140625 -17.890625 L 2.140625 -18.46875 Z M 8.265625 -18.46875 "/></g><g transform="translate(279.533322, 231.590245)"><path style="stroke:none" d="M 16.453125 -14.4375 L 15.875 -14.4375 C 15.8125 -14.863281 15.6875 -15.148438 15.5 -15.296875 C 15.320312 -15.453125 15.082031 -15.53125 14.78125 -15.53125 L 6.96875 -15.53125 L 6.96875 -11 L 11.671875 -11 C 12.003906 -11 12.253906 -11.050781 12.421875 -11.15625 C 12.585938 -11.269531 12.703125 -11.523438 12.765625 -11.921875 L 13.34375 -11.921875 L 13.34375 -7.140625 L 12.765625 -7.140625 C 12.703125 -7.523438 12.582031 -7.773438 12.40625 -7.890625 C 12.226562 -8.003906 11.984375 -8.0625 11.671875 -8.0625 L 6.96875 -8.0625 L 6.96875 -2.9375 L 14.828125 -2.9375 C 15.078125 -2.9375 15.296875 -3.003906 15.484375 -3.140625 C 15.679688 -3.285156 15.8125 -3.566406 15.875 -3.984375 L 16.453125 -3.984375 L 16.453125 0.75 L 15.875 0.75 C 15.789062 0.414062 15.648438 0.207031 15.453125 0.125 C 15.253906 0.0390625 15 0 14.6875 0 L 2.515625 0 L 2.515625 -0.59375 C 3.023438 -0.59375 3.28125 -0.953125 3.28125 -1.671875 L 3.28125 -16.828125 C 3.28125 -17.535156 3.023438 -17.890625 2.515625 -17.890625 L 2.515625 -18.46875 L 14.734375 -18.46875 C 15.046875 -18.46875 15.289062 -18.515625 15.46875 -18.609375 C 15.65625 -18.710938 15.789062 -18.921875 15.875 -19.234375 L 16.453125 -19.234375 Z M 16.453125 -14.4375 "/></g><g transform="translate(298.172225, 231.590245)"><path style="stroke:none" d="M 9.109375 -18.71875 C 9.785156 -18.71875 10.503906 -18.640625 11.265625 -18.484375 C 12.035156 -18.335938 12.882812 -18.097656 13.8125 -17.765625 C 14.757812 -17.398438 15.289062 -17.21875 15.40625 -17.21875 C 15.488281 -17.21875 15.570312 -17.238281 15.65625 -17.28125 C 15.738281 -17.320312 15.894531 -17.410156 16.125 -17.546875 L 16.453125 -17.375 L 14.28125 -13.265625 L 13.859375 -13.4375 C 13.859375 -14.164062 13.375 -14.765625 12.40625 -15.234375 C 11.4375 -15.710938 10.226562 -15.953125 8.78125 -15.953125 C 7.601562 -15.953125 6.71875 -15.726562 6.125 -15.28125 C 5.539062 -14.832031 5.25 -14.242188 5.25 -13.515625 C 5.25 -12.847656 5.578125 -12.332031 6.234375 -11.96875 C 6.890625 -11.601562 7.972656 -11.265625 9.484375 -10.953125 C 10.578125 -10.734375 11.550781 -10.46875 12.40625 -10.15625 C 13.257812 -9.851562 13.972656 -9.46875 14.546875 -9 C 15.117188 -8.539062 15.554688 -7.984375 15.859375 -7.328125 C 16.171875 -6.671875 16.328125 -5.878906 16.328125 -4.953125 C 16.328125 -4.203125 16.160156 -3.507812 15.828125 -2.875 C 15.492188 -2.25 15.03125 -1.703125 14.4375 -1.234375 C 13.851562 -0.773438 13.144531 -0.410156 12.3125 -0.140625 C 11.488281 0.117188 10.585938 0.25 9.609375 0.25 C 8.523438 0.25 7.582031 0.15625 6.78125 -0.03125 C 5.976562 -0.226562 5.296875 -0.4375 4.734375 -0.65625 C 4.179688 -0.882812 3.726562 -1.097656 3.375 -1.296875 C 3.03125 -1.492188 2.757812 -1.59375 2.5625 -1.59375 C 2.414062 -1.59375 2.300781 -1.550781 2.21875 -1.46875 C 2.132812 -1.382812 2.039062 -1.285156 1.9375 -1.171875 L 1.421875 -1.34375 L 3.6875 -5.875 L 4.28125 -5.546875 C 4.25 -5.460938 4.210938 -5.367188 4.171875 -5.265625 C 4.128906 -5.171875 4.109375 -5.082031 4.109375 -5 C 4.109375 -4.664062 4.273438 -4.347656 4.609375 -4.046875 C 4.953125 -3.753906 5.378906 -3.492188 5.890625 -3.265625 C 6.410156 -3.046875 7 -2.863281 7.65625 -2.71875 C 8.320312 -2.582031 8.972656 -2.515625 9.609375 -2.515625 C 10.867188 -2.515625 11.8125 -2.757812 12.4375 -3.25 C 13.070312 -3.738281 13.390625 -4.421875 13.390625 -5.296875 C 13.390625 -5.929688 13.050781 -6.398438 12.375 -6.703125 C 11.707031 -7.015625 10.59375 -7.328125 9.03125 -7.640625 C 7.9375 -7.867188 6.96875 -8.128906 6.125 -8.421875 C 5.289062 -8.710938 4.585938 -9.082031 4.015625 -9.53125 C 3.441406 -9.976562 3.015625 -10.507812 2.734375 -11.125 C 2.453125 -11.738281 2.3125 -12.476562 2.3125 -13.34375 C 2.3125 -15.03125 2.921875 -16.347656 4.140625 -17.296875 C 5.359375 -18.242188 7.015625 -18.71875 9.109375 -18.71875 Z M 9.109375 -18.71875 "/></g><g transform="translate(316.811128, 231.590245)"><path style="stroke:none" d="M 0.921875 -19.234375 L 1.515625 -19.234375 C 1.679688 -18.722656 2.046875 -18.46875 2.609375 -18.46875 L 13.6875 -18.46875 C 14.25 -18.46875 14.613281 -18.722656 14.78125 -19.234375 L 15.359375 -19.234375 L 15.359375 -14.6875 L 14.78125 -14.6875 C 14.632812 -15.25 14.253906 -15.53125 13.640625 -15.53125 L 10 -15.53125 L 10 -1.671875 C 10 -1.335938 10.0625 -1.070312 10.1875 -0.875 C 10.3125 -0.6875 10.441406 -0.59375 10.578125 -0.59375 L 10.578125 0 L 5.625 0 L 5.625 -0.59375 C 6.070312 -0.59375 6.296875 -0.953125 6.296875 -1.671875 L 6.296875 -15.53125 L 2.609375 -15.53125 C 2.046875 -15.53125 1.679688 -15.28125 1.515625 -14.78125 L 0.921875 -14.78125 Z M 0.921875 -19.234375 "/></g><g transform="translate(333.141157, 231.590245)"><path style="stroke:none" d=""/></g><g transform="translate(343.636035, 231.590245)"><path style="stroke:none" d="M 9.40625 -10.15625 C 10.882812 -10.15625 11.9375 -10.359375 12.5625 -10.765625 C 13.195312 -11.171875 13.515625 -11.894531 13.515625 -12.9375 C 13.515625 -14 13.1875 -14.722656 12.53125 -15.109375 C 11.875 -15.503906 10.804688 -15.703125 9.328125 -15.703125 L 6.71875 -15.703125 L 6.71875 -10.15625 Z M 10.28125 -18.46875 C 12.320312 -18.46875 13.957031 -18.039062 15.1875 -17.1875 C 16.425781 -16.332031 17.046875 -14.957031 17.046875 -13.0625 C 17.046875 -11.15625 16.425781 -9.734375 15.1875 -8.796875 C 13.957031 -7.859375 12.320312 -7.390625 10.28125 -7.390625 L 6.71875 -7.390625 L 6.71875 -1.671875 C 6.71875 -0.953125 6.96875 -0.59375 7.46875 -0.59375 L 7.46875 0 L 2.34375 0 L 2.34375 -0.59375 C 2.789062 -0.59375 3.015625 -0.953125 3.015625 -1.671875 L 3.015625 -16.796875 C 3.015625 -17.523438 2.765625 -17.890625 2.265625 -17.890625 L 2.265625 -18.46875 Z M 10.28125 -18.46875 "/></g><g transform="translate(362.274938, 231.590245)"><path style="stroke:none" d="M 10.703125 -10.078125 C 12.210938 -10.078125 13.296875 -10.28125 13.953125 -10.6875 C 14.617188 -11.09375 14.953125 -11.828125 14.953125 -12.890625 C 14.953125 -13.867188 14.65625 -14.582031 14.0625 -15.03125 C 13.476562 -15.476562 12.390625 -15.703125 10.796875 -15.703125 L 6.96875 -15.703125 L 6.96875 -10.078125 Z M 12.140625 -18.46875 C 14.179688 -18.46875 15.742188 -17.976562 16.828125 -17 C 17.921875 -16.019531 18.46875 -14.625 18.46875 -12.8125 C 18.46875 -12.164062 18.34375 -11.546875 18.09375 -10.953125 C 17.84375 -10.367188 17.503906 -9.84375 17.078125 -9.375 C 16.660156 -8.914062 16.171875 -8.53125 15.609375 -8.21875 C 15.054688 -7.914062 14.472656 -7.738281 13.859375 -7.6875 L 17.59375 -1.421875 C 17.789062 -1.117188 17.953125 -0.914062 18.078125 -0.8125 C 18.203125 -0.71875 18.332031 -0.644531 18.46875 -0.59375 L 18.46875 0 L 13.4375 0 L 13.4375 -0.59375 C 13.738281 -0.59375 13.890625 -0.703125 13.890625 -0.921875 C 13.890625 -1.035156 13.867188 -1.160156 13.828125 -1.296875 C 13.785156 -1.441406 13.695312 -1.625 13.5625 -1.84375 L 10.28125 -7.3125 L 6.96875 -7.3125 L 6.96875 -1.671875 C 6.96875 -1.367188 7.03125 -1.113281 7.15625 -0.90625 C 7.28125 -0.695312 7.46875 -0.59375 7.71875 -0.59375 L 7.71875 0 L 2.515625 0 L 2.515625 -0.59375 C 2.765625 -0.59375 2.953125 -0.695312 3.078125 -0.90625 C 3.210938 -1.113281 3.28125 -1.367188 3.28125 -1.671875 L 3.28125 -16.796875 C 3.28125 -17.523438 3.023438 -17.890625 2.515625 -17.890625 L 2.515625 -18.46875 Z M 12.140625 -18.46875 "/></g><g transform="translate(383.264693, 231.590245)"><path style="stroke:none" d="M 8.5625 -18.46875 L 8.5625 -17.890625 C 7.976562 -17.890625 7.6875 -17.523438 7.6875 -16.796875 L 7.6875 -1.640625 C 7.6875 -0.941406 7.976562 -0.59375 8.5625 -0.59375 L 8.5625 0 L 3.109375 0 L 3.109375 -0.59375 C 3.691406 -0.59375 3.984375 -0.953125 3.984375 -1.671875 L 3.984375 -16.796875 C 3.984375 -17.523438 3.691406 -17.890625 3.109375 -17.890625 L 3.109375 -18.46875 Z M 8.5625 -18.46875 "/></g><g transform="translate(394.934997, 231.590245)"><path style="stroke:none" d="M 10.15625 -18.71875 C 11 -18.71875 11.71875 -18.625 12.3125 -18.4375 C 12.914062 -18.257812 13.441406 -18.054688 13.890625 -17.828125 C 14.335938 -17.609375 14.722656 -17.410156 15.046875 -17.234375 C 15.367188 -17.054688 15.65625 -16.96875 15.90625 -16.96875 C 16.050781 -16.96875 16.1875 -16.976562 16.3125 -17 C 16.4375 -17.03125 16.554688 -17.101562 16.671875 -17.21875 L 16.96875 -17.046875 L 14.40625 -12.765625 L 13.984375 -12.96875 C 14.003906 -13.050781 14.019531 -13.128906 14.03125 -13.203125 C 14.050781 -13.273438 14.0625 -13.351562 14.0625 -13.4375 C 14.0625 -13.820312 13.9375 -14.160156 13.6875 -14.453125 C 13.4375 -14.753906 13.113281 -15.003906 12.71875 -15.203125 C 12.332031 -15.398438 11.914062 -15.546875 11.46875 -15.640625 C 11.019531 -15.734375 10.613281 -15.78125 10.25 -15.78125 C 9.488281 -15.78125 8.78125 -15.632812 8.125 -15.34375 C 7.46875 -15.050781 6.894531 -14.609375 6.40625 -14.015625 C 5.914062 -13.429688 5.53125 -12.710938 5.25 -11.859375 C 4.96875 -11.003906 4.828125 -10.019531 4.828125 -8.90625 C 4.828125 -6.96875 5.304688 -5.445312 6.265625 -4.34375 C 7.234375 -3.238281 8.613281 -2.6875 10.40625 -2.6875 C 10.769531 -2.6875 11.171875 -2.734375 11.609375 -2.828125 C 12.046875 -2.929688 12.441406 -3.078125 12.796875 -3.265625 C 13.160156 -3.460938 13.46875 -3.691406 13.71875 -3.953125 C 13.976562 -4.222656 14.109375 -4.515625 14.109375 -4.828125 C 14.109375 -4.960938 14.09375 -5.070312 14.0625 -5.15625 C 14.03125 -5.25 14.003906 -5.320312 13.984375 -5.375 L 14.3125 -5.578125 L 17.09375 -2.140625 L 16.875 -1.84375 C 16.707031 -1.90625 16.554688 -1.9375 16.421875 -1.9375 C 16.222656 -1.9375 15.914062 -1.765625 15.5 -1.421875 C 14.957031 -1.035156 14.273438 -0.660156 13.453125 -0.296875 C 12.628906 0.0664062 11.546875 0.25 10.203125 0.25 C 8.890625 0.25 7.6875 0.015625 6.59375 -0.453125 C 5.5 -0.929688 4.5625 -1.585938 3.78125 -2.421875 C 3 -3.265625 2.390625 -4.265625 1.953125 -5.421875 C 1.515625 -6.585938 1.296875 -7.859375 1.296875 -9.234375 C 1.296875 -10.609375 1.515625 -11.875 1.953125 -13.03125 C 2.390625 -14.195312 2.988281 -15.195312 3.75 -16.03125 C 4.519531 -16.875 5.453125 -17.53125 6.546875 -18 C 7.640625 -18.476562 8.84375 -18.71875 10.15625 -18.71875 Z M 10.15625 -18.71875 "/></g></g><g style="fill:#ffffff;fill-opacity:1;"><g transform="translate(413.573877, 231.590245)"><path style="stroke:none" d="M 16.453125 -14.4375 L 15.875 -14.4375 C 15.8125 -14.863281 15.6875 -15.148438 15.5 -15.296875 C 15.320312 -15.453125 15.082031 -15.53125 14.78125 -15.53125 L 6.96875 -15.53125 L 6.96875 -11 L 11.671875 -11 C 12.003906 -11 12.253906 -11.050781 12.421875 -11.15625 C 12.585938 -11.269531 12.703125 -11.523438 12.765625 -11.921875 L 13.34375 -11.921875 L 13.34375 -7.140625 L 12.765625 -7.140625 C 12.703125 -7.523438 12.582031 -7.773438 12.40625 -7.890625 C 12.226562 -8.003906 11.984375 -8.0625 11.671875 -8.0625 L 6.96875 -8.0625 L 6.96875 -2.9375 L 14.828125 -2.9375 C 15.078125 -2.9375 15.296875 -3.003906 15.484375 -3.140625 C 15.679688 -3.285156 15.8125 -3.566406 15.875 -3.984375 L 16.453125 -3.984375 L 16.453125 0.75 L 15.875 0.75 C 15.789062 0.414062 15.648438 0.207031 15.453125 0.125 C 15.253906 0.0390625 15 0 14.6875 0 L 2.515625 0 L 2.515625 -0.59375 C 3.023438 -0.59375 3.28125 -0.953125 3.28125 -1.671875 L 3.28125 -16.828125 C 3.28125 -17.535156 3.023438 -17.890625 2.515625 -17.890625 L 2.515625 -18.46875 L 14.734375 -18.46875 C 15.046875 -18.46875 15.289062 -18.515625 15.46875 -18.609375 C 15.65625 -18.710938 15.789062 -18.921875 15.875 -19.234375 L 16.453125 -19.234375 Z M 16.453125 -14.4375 "/></g></g><g style="fill:#ffffff;fill-opacity:1;"><g transform="translate(432.21279, 231.590245)"><path style="stroke:none" d="M 9.109375 -18.71875 C 9.785156 -18.71875 10.503906 -18.640625 11.265625 -18.484375 C 12.035156 -18.335938 12.882812 -18.097656 13.8125 -17.765625 C 14.757812 -17.398438 15.289062 -17.21875 15.40625 -17.21875 C 15.488281 -17.21875 15.570312 -17.238281 15.65625 -17.28125 C 15.738281 -17.320312 15.894531 -17.410156 16.125 -17.546875 L 16.453125 -17.375 L 14.28125 -13.265625 L 13.859375 -13.4375 C 13.859375 -14.164062 13.375 -14.765625 12.40625 -15.234375 C 11.4375 -15.710938 10.226562 -15.953125 8.78125 -15.953125 C 7.601562 -15.953125 6.71875 -15.726562 6.125 -15.28125 C 5.539062 -14.832031 5.25 -14.242188 5.25 -13.515625 C 5.25 -12.847656 5.578125 -12.332031 6.234375 -11.96875 C 6.890625 -11.601562 7.972656 -11.265625 9.484375 -10.953125 C 10.578125 -10.734375 11.550781 -10.46875 12.40625 -10.15625 C 13.257812 -9.851562 13.972656 -9.46875 14.546875 -9 C 15.117188 -8.539062 15.554688 -7.984375 15.859375 -7.328125 C 16.171875 -6.671875 16.328125 -5.878906 16.328125 -4.953125 C 16.328125 -4.203125 16.160156 -3.507812 15.828125 -2.875 C 15.492188 -2.25 15.03125 -1.703125 14.4375 -1.234375 C 13.851562 -0.773438 13.144531 -0.410156 12.3125 -0.140625 C 11.488281 0.117188 10.585938 0.25 9.609375 0.25 C 8.523438 0.25 7.582031 0.15625 6.78125 -0.03125 C 5.976562 -0.226562 5.296875 -0.4375 4.734375 -0.65625 C 4.179688 -0.882812 3.726562 -1.097656 3.375 -1.296875 C 3.03125 -1.492188 2.757812 -1.59375 2.5625 -1.59375 C 2.414062 -1.59375 2.300781 -1.550781 2.21875 -1.46875 C 2.132812 -1.382812 2.039062 -1.285156 1.9375 -1.171875 L 1.421875 -1.34375 L 3.6875 -5.875 L 4.28125 -5.546875 C 4.25 -5.460938 4.210938 -5.367188 4.171875 -5.265625 C 4.128906 -5.171875 4.109375 -5.082031 4.109375 -5 C 4.109375 -4.664062 4.273438 -4.347656 4.609375 -4.046875 C 4.953125 -3.753906 5.378906 -3.492188 5.890625 -3.265625 C 6.410156 -3.046875 7 -2.863281 7.65625 -2.71875 C 8.320312 -2.582031 8.972656 -2.515625 9.609375 -2.515625 C 10.867188 -2.515625 11.8125 -2.757812 12.4375 -3.25 C 13.070312 -3.738281 13.390625 -4.421875 13.390625 -5.296875 C 13.390625 -5.929688 13.050781 -6.398438 12.375 -6.703125 C 11.707031 -7.015625 10.59375 -7.328125 9.03125 -7.640625 C 7.9375 -7.867188 6.96875 -8.128906 6.125 -8.421875 C 5.289062 -8.710938 4.585938 -9.082031 4.015625 -9.53125 C 3.441406 -9.976562 3.015625 -10.507812 2.734375 -11.125 C 2.453125 -11.738281 2.3125 -12.476562 2.3125 -13.34375 C 2.3125 -15.03125 2.921875 -16.347656 4.140625 -17.296875 C 5.359375 -18.242188 7.015625 -18.71875 9.109375 -18.71875 Z M 9.109375 -18.71875 "/></g></g><g style="fill:#ffffff;fill-opacity:1;"><g transform="translate(396.029359, 371.434695)"><path style="stroke:none" d="M 17.96875 -17.796875 L 17.375 -17.796875 C 17.320312 -18.140625 17.191406 -18.351562 16.984375 -18.4375 C 16.773438 -18.519531 16.488281 -18.5625 16.125 -18.5625 L 6.96875 -18.5625 L 6.96875 -13.09375 L 12.640625 -13.09375 C 13.054688 -13.09375 13.390625 -13.132812 13.640625 -13.21875 C 13.890625 -13.300781 14.046875 -13.539062 14.109375 -13.9375 L 14.6875 -13.9375 L 14.6875 -8.859375 L 14.109375 -8.859375 C 14.046875 -9.222656 13.875 -9.429688 13.59375 -9.484375 C 13.320312 -9.546875 12.945312 -9.578125 12.46875 -9.578125 L 6.96875 -9.578125 L 6.96875 -1.640625 C 6.96875 -1.210938 7.085938 -0.941406 7.328125 -0.828125 C 7.566406 -0.722656 7.9375 -0.644531 8.4375 -0.59375 L 8.4375 0 L 1.421875 0 L 1.421875 -0.59375 C 2.015625 -0.644531 2.382812 -0.753906 2.53125 -0.921875 C 2.6875 -1.085938 2.765625 -1.351562 2.765625 -1.71875 L 2.765625 -20.40625 C 2.765625 -20.769531 2.679688 -21.023438 2.515625 -21.171875 C 2.347656 -21.328125 1.957031 -21.4375 1.34375 -21.5 L 1.34375 -22.078125 L 16.125 -22.078125 C 16.488281 -22.078125 16.773438 -22.117188 16.984375 -22.203125 C 17.191406 -22.285156 17.320312 -22.5 17.375 -22.84375 L 17.96875 -22.84375 Z M 17.96875 -17.796875 "/></g></g><g style="fill:#ffffff;fill-opacity:1;"><g transform="translate(414.66826, 371.434695)"><path style="stroke:none" d="M 6.546875 -7.3125 L 11.328125 -7.3125 L 9.0625 -15.703125 L 8.984375 -15.703125 Z M 11.71875 -18.46875 L 11.71875 -17.890625 C 11.519531 -17.742188 11.421875 -17.585938 11.421875 -17.421875 C 11.421875 -17.285156 11.539062 -16.882812 11.78125 -16.21875 C 12.019531 -15.5625 12.347656 -14.617188 12.765625 -13.390625 C 13.179688 -12.160156 13.601562 -10.941406 14.03125 -9.734375 C 14.46875 -8.535156 14.925781 -7.25 15.40625 -5.875 C 15.882812 -4.507812 16.269531 -3.421875 16.5625 -2.609375 C 16.851562 -1.796875 17.03125 -1.316406 17.09375 -1.171875 C 17.257812 -0.804688 17.484375 -0.613281 17.765625 -0.59375 L 17.765625 0 L 12.71875 0 L 12.71875 -0.59375 C 13.050781 -0.757812 13.21875 -0.984375 13.21875 -1.265625 C 13.21875 -1.515625 13.035156 -2.113281 12.671875 -3.0625 C 12.617188 -3.226562 12.5 -3.535156 12.3125 -3.984375 C 12.132812 -4.429688 12.03125 -4.753906 12 -4.953125 L 5.875 -4.953125 C 5.84375 -4.835938 5.769531 -4.617188 5.65625 -4.296875 C 5.550781 -3.984375 5.441406 -3.671875 5.328125 -3.359375 C 4.941406 -2.328125 4.75 -1.640625 4.75 -1.296875 C 4.75 -0.910156 4.859375 -0.675781 5.078125 -0.59375 L 5.078125 0 L 0.875 0 L 0.875 -0.59375 C 1.019531 -0.644531 1.132812 -0.75 1.21875 -0.90625 C 1.300781 -1.0625 1.425781 -1.390625 1.59375 -1.890625 L 4.625 -10.578125 C 5.320312 -12.597656 5.863281 -14.191406 6.25 -15.359375 C 6.644531 -16.535156 6.84375 -17.195312 6.84375 -17.34375 C 6.84375 -17.539062 6.726562 -17.722656 6.5 -17.890625 L 6.5 -18.46875 Z M 11.71875 -18.46875 "/></g></g><g style="fill:#ffffff;fill-opacity:1;"><g transform="translate(433.307162, 371.434695)"><path style="stroke:none" d="M 8.90625 -18.46875 L 8.90625 -17.890625 C 8.507812 -17.804688 8.3125 -17.625 8.3125 -17.34375 C 8.3125 -17.113281 8.367188 -16.84375 8.484375 -16.53125 C 8.597656 -16.226562 8.722656 -15.925781 8.859375 -15.625 L 12.71875 -6.375 L 12.8125 -6.375 L 16.671875 -15.234375 C 16.953125 -15.847656 17.140625 -16.300781 17.234375 -16.59375 C 17.328125 -16.894531 17.375 -17.144531 17.375 -17.34375 C 17.375 -17.625 17.179688 -17.804688 16.796875 -17.890625 L 16.796875 -18.46875 L 23.21875 -18.46875 L 23.21875 -17.890625 C 22.65625 -17.890625 22.375 -17.523438 22.375 -16.796875 L 22.375 -1.671875 C 22.375 -0.953125 22.65625 -0.59375 23.21875 -0.59375 L 23.21875 0 L 18.265625 0 L 18.265625 -0.59375 C 18.828125 -0.59375 19.109375 -0.953125 19.109375 -1.671875 L 19.109375 -14.78125 L 19.015625 -14.78125 C 18.765625 -14.101562 18.484375 -13.382812 18.171875 -12.625 C 17.867188 -11.875 17.554688 -11.113281 17.234375 -10.34375 C 16.910156 -9.570312 16.585938 -8.820312 16.265625 -8.09375 C 15.941406 -7.375 15.65625 -6.71875 15.40625 -6.125 C 15.269531 -5.820312 15.070312 -5.375 14.8125 -4.78125 C 14.5625 -4.195312 14.296875 -3.585938 14.015625 -2.953125 C 13.742188 -2.328125 13.488281 -1.734375 13.25 -1.171875 C 13.007812 -0.609375 12.847656 -0.21875 12.765625 0 L 12.171875 0 C 12.054688 -0.25 11.898438 -0.617188 11.703125 -1.109375 C 11.515625 -1.597656 11.289062 -2.144531 11.03125 -2.75 C 10.78125 -3.351562 10.515625 -3.988281 10.234375 -4.65625 C 9.960938 -5.332031 9.6875 -5.992188 9.40625 -6.640625 C 8.707031 -8.285156 8.125 -9.726562 7.65625 -10.96875 C 7.195312 -12.21875 6.769531 -13.429688 6.375 -14.609375 L 6.296875 -14.609375 L 6.296875 -1.671875 C 6.296875 -1.367188 6.359375 -1.113281 6.484375 -0.90625 C 6.609375 -0.695312 6.796875 -0.59375 7.046875 -0.59375 L 7.046875 0 L 2.609375 0 L 2.609375 -0.59375 C 2.773438 -0.59375 2.925781 -0.675781 3.0625 -0.84375 C 3.207031 -1.007812 3.28125 -1.285156 3.28125 -1.671875 L 3.28125 -16.796875 C 3.28125 -17.523438 3 -17.890625 2.4375 -17.890625 L 2.4375 -18.46875 Z M 8.90625 -18.46875 "/></g></g><g style="fill:#ffffff;fill-opacity:1;"><g transform="translate(458.956645, 371.434695)"><path style="stroke:none" d="M 8.5625 -18.46875 L 8.5625 -17.890625 C 7.976562 -17.890625 7.6875 -17.523438 7.6875 -16.796875 L 7.6875 -1.640625 C 7.6875 -0.941406 7.976562 -0.59375 8.5625 -0.59375 L 8.5625 0 L 3.109375 0 L 3.109375 -0.59375 C 3.691406 -0.59375 3.984375 -0.953125 3.984375 -1.671875 L 3.984375 -16.796875 C 3.984375 -17.523438 3.691406 -17.890625 3.109375 -17.890625 L 3.109375 -18.46875 Z M 8.5625 -18.46875 "/></g></g><g style="fill:#ffffff;fill-opacity:1;"><g transform="translate(470.626944, 371.434695)"><path style="stroke:none" d="M 7.6875 -18.46875 L 7.6875 -17.890625 C 7.039062 -17.890625 6.71875 -17.523438 6.71875 -16.796875 L 6.71875 -2.9375 L 14.0625 -2.9375 C 14.375 -2.9375 14.617188 -3.015625 14.796875 -3.171875 C 14.984375 -3.328125 15.101562 -3.597656 15.15625 -3.984375 L 15.75 -3.984375 L 15.75 0.75 L 15.15625 0.75 C 15.070312 0.445312 14.9375 0.242188 14.75 0.140625 C 14.570312 0.046875 14.328125 0 14.015625 0 L 1.9375 0 L 1.9375 -0.59375 C 2.65625 -0.59375 3.015625 -0.953125 3.015625 -1.671875 L 3.015625 -16.796875 C 3.015625 -17.523438 2.65625 -17.890625 1.9375 -17.890625 L 1.9375 -18.46875 Z M 7.6875 -18.46875 "/></g></g><g style="fill:#ffffff;fill-opacity:1;"><g transform="translate(486.956971, 371.434695)"><path style="stroke:none" d="M 6.84375 -18.46875 L 6.84375 -17.890625 C 6.707031 -17.859375 6.570312 -17.804688 6.4375 -17.734375 C 6.3125 -17.671875 6.25 -17.566406 6.25 -17.421875 C 6.25 -17.203125 6.429688 -16.769531 6.796875 -16.125 C 7.191406 -15.476562 7.65625 -14.695312 8.1875 -13.78125 C 8.71875 -12.875 9.191406 -12.054688 9.609375 -11.328125 C 10.253906 -12.503906 10.828125 -13.554688 11.328125 -14.484375 C 11.835938 -15.410156 12.191406 -16.054688 12.390625 -16.421875 C 12.671875 -16.953125 12.8125 -17.328125 12.8125 -17.546875 C 12.8125 -17.710938 12.613281 -17.828125 12.21875 -17.890625 L 12.21875 -18.46875 L 17.421875 -18.46875 L 17.421875 -17.890625 C 17.023438 -17.859375 16.726562 -17.75 16.53125 -17.5625 C 16.34375 -17.382812 16.050781 -16.929688 15.65625 -16.203125 L 11.375 -8.734375 L 11.375 -1.640625 C 11.375 -1.304688 11.4375 -1.046875 11.5625 -0.859375 C 11.6875 -0.679688 11.789062 -0.59375 11.875 -0.59375 L 11.875 0 L 7.015625 0 L 7.015625 -0.59375 C 7.460938 -0.59375 7.6875 -0.941406 7.6875 -1.640625 L 7.6875 -8.65625 L 2.9375 -16.578125 C 2.601562 -17.171875 2.335938 -17.53125 2.140625 -17.65625 C 1.941406 -17.78125 1.632812 -17.859375 1.21875 -17.890625 L 1.21875 -18.46875 Z M 6.84375 -18.46875 "/></g></g><g style="fill:#ffffff;fill-opacity:1;"><g transform="translate(505.595872, 371.434695)"><path style="stroke:none" d=""/></g><g transform="translate(516.09075, 371.434695)"><path style="stroke:none" d="M 6.296875 -18.46875 L 6.296875 -17.890625 C 5.796875 -17.804688 5.546875 -17.59375 5.546875 -17.25 C 5.546875 -17.113281 5.597656 -16.894531 5.703125 -16.59375 C 5.816406 -16.300781 5.957031 -15.878906 6.125 -15.328125 L 9.453125 -4.703125 L 9.53125 -4.703125 L 13.09375 -15.78125 C 13.238281 -16.175781 13.34375 -16.5 13.40625 -16.75 C 13.476562 -17 13.515625 -17.195312 13.515625 -17.34375 C 13.515625 -17.507812 13.472656 -17.625 13.390625 -17.6875 C 13.304688 -17.757812 13.125 -17.828125 12.84375 -17.890625 L 12.84375 -18.46875 L 17.890625 -18.46875 L 17.890625 -17.890625 C 17.492188 -17.859375 17.21875 -17.726562 17.0625 -17.5 C 16.90625 -17.28125 16.757812 -16.972656 16.625 -16.578125 L 12.171875 -3.234375 C 12.003906 -2.734375 11.847656 -2.300781 11.703125 -1.9375 C 11.566406 -1.570312 11.5 -1.304688 11.5 -1.140625 C 11.5 -0.796875 11.640625 -0.613281 11.921875 -0.59375 L 11.921875 0 L 6.71875 0 L 6.71875 -0.59375 C 6.851562 -0.613281 6.941406 -0.6875 6.984375 -0.8125 C 7.023438 -0.9375 7.046875 -1.054688 7.046875 -1.171875 C 7.046875 -1.316406 7.019531 -1.492188 6.96875 -1.703125 C 6.914062 -1.910156 6.804688 -2.253906 6.640625 -2.734375 L 1.96875 -16.625 C 1.832031 -17.070312 1.679688 -17.378906 1.515625 -17.546875 C 1.347656 -17.710938 1.09375 -17.828125 0.75 -17.890625 L 0.75 -18.46875 Z M 6.296875 -18.46875 "/></g><g transform="translate(534.729652, 371.434695)"><path style="stroke:none" d="M 6.546875 -7.3125 L 11.328125 -7.3125 L 9.0625 -15.703125 L 8.984375 -15.703125 Z M 11.71875 -18.46875 L 11.71875 -17.890625 C 11.519531 -17.742188 11.421875 -17.585938 11.421875 -17.421875 C 11.421875 -17.285156 11.539062 -16.882812 11.78125 -16.21875 C 12.019531 -15.5625 12.347656 -14.617188 12.765625 -13.390625 C 13.179688 -12.160156 13.601562 -10.941406 14.03125 -9.734375 C 14.46875 -8.535156 14.925781 -7.25 15.40625 -5.875 C 15.882812 -4.507812 16.269531 -3.421875 16.5625 -2.609375 C 16.851562 -1.796875 17.03125 -1.316406 17.09375 -1.171875 C 17.257812 -0.804688 17.484375 -0.613281 17.765625 -0.59375 L 17.765625 0 L 12.71875 0 L 12.71875 -0.59375 C 13.050781 -0.757812 13.21875 -0.984375 13.21875 -1.265625 C 13.21875 -1.515625 13.035156 -2.113281 12.671875 -3.0625 C 12.617188 -3.226562 12.5 -3.535156 12.3125 -3.984375 C 12.132812 -4.429688 12.03125 -4.753906 12 -4.953125 L 5.875 -4.953125 C 5.84375 -4.835938 5.769531 -4.617188 5.65625 -4.296875 C 5.550781 -3.984375 5.441406 -3.671875 5.328125 -3.359375 C 4.941406 -2.328125 4.75 -1.640625 4.75 -1.296875 C 4.75 -0.910156 4.859375 -0.675781 5.078125 -0.59375 L 5.078125 0 L 0.875 0 L 0.875 -0.59375 C 1.019531 -0.644531 1.132812 -0.75 1.21875 -0.90625 C 1.300781 -1.0625 1.425781 -1.390625 1.59375 -1.890625 L 4.625 -10.578125 C 5.320312 -12.597656 5.863281 -14.191406 6.25 -15.359375 C 6.644531 -16.535156 6.84375 -17.195312 6.84375 -17.34375 C 6.84375 -17.539062 6.726562 -17.722656 6.5 -17.890625 L 6.5 -18.46875 Z M 11.71875 -18.46875 "/></g><g transform="translate(553.368555, 371.434695)"><path style="stroke:none" d="M 7.6875 -18.46875 L 7.6875 -17.890625 C 7.039062 -17.890625 6.71875 -17.523438 6.71875 -16.796875 L 6.71875 -2.9375 L 14.0625 -2.9375 C 14.375 -2.9375 14.617188 -3.015625 14.796875 -3.171875 C 14.984375 -3.328125 15.101562 -3.597656 15.15625 -3.984375 L 15.75 -3.984375 L 15.75 0.75 L 15.15625 0.75 C 15.070312 0.445312 14.9375 0.242188 14.75 0.140625 C 14.570312 0.046875 14.328125 0 14.015625 0 L 1.9375 0 L 1.9375 -0.59375 C 2.65625 -0.59375 3.015625 -0.953125 3.015625 -1.671875 L 3.015625 -16.796875 C 3.015625 -17.523438 2.65625 -17.890625 1.9375 -17.890625 L 1.9375 -18.46875 Z M 7.6875 -18.46875 "/></g><g transform="translate(569.698584, 371.434695)"><path style="stroke:none" d="M 7.34375 -18.46875 L 7.34375 -17.890625 C 7.125 -17.890625 6.957031 -17.78125 6.84375 -17.5625 C 6.726562 -17.351562 6.671875 -17.097656 6.671875 -16.796875 L 6.671875 -6.171875 C 6.671875 -5.160156 6.976562 -4.328125 7.59375 -3.671875 C 8.207031 -3.015625 9.1875 -2.6875 10.53125 -2.6875 C 11.875 -2.6875 12.851562 -3.015625 13.46875 -3.671875 C 14.09375 -4.328125 14.40625 -5.160156 14.40625 -6.171875 L 14.40625 -16.796875 C 14.40625 -17.523438 14.179688 -17.890625 13.734375 -17.890625 L 13.734375 -18.46875 L 18.765625 -18.46875 L 18.765625 -17.890625 C 18.546875 -17.890625 18.378906 -17.78125 18.265625 -17.5625 C 18.148438 -17.351562 18.09375 -17.097656 18.09375 -16.796875 L 18.09375 -6.59375 C 18.09375 -4.40625 17.488281 -2.71875 16.28125 -1.53125 C 15.082031 -0.34375 13.164062 0.25 10.53125 0.25 C 7.90625 0.25 5.988281 -0.34375 4.78125 -1.53125 C 3.582031 -2.71875 2.984375 -4.40625 2.984375 -6.59375 L 2.984375 -16.796875 C 2.984375 -17.523438 2.726562 -17.890625 2.21875 -17.890625 L 2.21875 -18.46875 Z M 7.34375 -18.46875 "/></g></g><g style="fill:#ffffff;fill-opacity:1;"><g transform="translate(590.688346, 371.434695)"><path style="stroke:none" d="M 16.453125 -14.4375 L 15.875 -14.4375 C 15.8125 -14.863281 15.6875 -15.148438 15.5 -15.296875 C 15.320312 -15.453125 15.082031 -15.53125 14.78125 -15.53125 L 6.96875 -15.53125 L 6.96875 -11 L 11.671875 -11 C 12.003906 -11 12.253906 -11.050781 12.421875 -11.15625 C 12.585938 -11.269531 12.703125 -11.523438 12.765625 -11.921875 L 13.34375 -11.921875 L 13.34375 -7.140625 L 12.765625 -7.140625 C 12.703125 -7.523438 12.582031 -7.773438 12.40625 -7.890625 C 12.226562 -8.003906 11.984375 -8.0625 11.671875 -8.0625 L 6.96875 -8.0625 L 6.96875 -2.9375 L 14.828125 -2.9375 C 15.078125 -2.9375 15.296875 -3.003906 15.484375 -3.140625 C 15.679688 -3.285156 15.8125 -3.566406 15.875 -3.984375 L 16.453125 -3.984375 L 16.453125 0.75 L 15.875 0.75 C 15.789062 0.414062 15.648438 0.207031 15.453125 0.125 C 15.253906 0.0390625 15 0 14.6875 0 L 2.515625 0 L 2.515625 -0.59375 C 3.023438 -0.59375 3.28125 -0.953125 3.28125 -1.671875 L 3.28125 -16.828125 C 3.28125 -17.535156 3.023438 -17.890625 2.515625 -17.890625 L 2.515625 -18.46875 L 14.734375 -18.46875 C 15.046875 -18.46875 15.289062 -18.515625 15.46875 -18.609375 C 15.65625 -18.710938 15.789062 -18.921875 15.875 -19.234375 L 16.453125 -19.234375 Z M 16.453125 -14.4375 "/></g></g><g style="fill:#ffffff;fill-opacity:1;"><g transform="translate(609.327236, 371.434695)"><path style="stroke:none" d="M 9.109375 -18.71875 C 9.785156 -18.71875 10.503906 -18.640625 11.265625 -18.484375 C 12.035156 -18.335938 12.882812 -18.097656 13.8125 -17.765625 C 14.757812 -17.398438 15.289062 -17.21875 15.40625 -17.21875 C 15.488281 -17.21875 15.570312 -17.238281 15.65625 -17.28125 C 15.738281 -17.320312 15.894531 -17.410156 16.125 -17.546875 L 16.453125 -17.375 L 14.28125 -13.265625 L 13.859375 -13.4375 C 13.859375 -14.164062 13.375 -14.765625 12.40625 -15.234375 C 11.4375 -15.710938 10.226562 -15.953125 8.78125 -15.953125 C 7.601562 -15.953125 6.71875 -15.726562 6.125 -15.28125 C 5.539062 -14.832031 5.25 -14.242188 5.25 -13.515625 C 5.25 -12.847656 5.578125 -12.332031 6.234375 -11.96875 C 6.890625 -11.601562 7.972656 -11.265625 9.484375 -10.953125 C 10.578125 -10.734375 11.550781 -10.46875 12.40625 -10.15625 C 13.257812 -9.851562 13.972656 -9.46875 14.546875 -9 C 15.117188 -8.539062 15.554688 -7.984375 15.859375 -7.328125 C 16.171875 -6.671875 16.328125 -5.878906 16.328125 -4.953125 C 16.328125 -4.203125 16.160156 -3.507812 15.828125 -2.875 C 15.492188 -2.25 15.03125 -1.703125 14.4375 -1.234375 C 13.851562 -0.773438 13.144531 -0.410156 12.3125 -0.140625 C 11.488281 0.117188 10.585938 0.25 9.609375 0.25 C 8.523438 0.25 7.582031 0.15625 6.78125 -0.03125 C 5.976562 -0.226562 5.296875 -0.4375 4.734375 -0.65625 C 4.179688 -0.882812 3.726562 -1.097656 3.375 -1.296875 C 3.03125 -1.492188 2.757812 -1.59375 2.5625 -1.59375 C 2.414062 -1.59375 2.300781 -1.550781 2.21875 -1.46875 C 2.132812 -1.382812 2.039062 -1.285156 1.9375 -1.171875 L 1.421875 -1.34375 L 3.6875 -5.875 L 4.28125 -5.546875 C 4.25 -5.460938 4.210938 -5.367188 4.171875 -5.265625 C 4.128906 -5.171875 4.109375 -5.082031 4.109375 -5 C 4.109375 -4.664062 4.273438 -4.347656 4.609375 -4.046875 C 4.953125 -3.753906 5.378906 -3.492188 5.890625 -3.265625 C 6.410156 -3.046875 7 -2.863281 7.65625 -2.71875 C 8.320312 -2.582031 8.972656 -2.515625 9.609375 -2.515625 C 10.867188 -2.515625 11.8125 -2.757812 12.4375 -3.25 C 13.070312 -3.738281 13.390625 -4.421875 13.390625 -5.296875 C 13.390625 -5.929688 13.050781 -6.398438 12.375 -6.703125 C 11.707031 -7.015625 10.59375 -7.328125 9.03125 -7.640625 C 7.9375 -7.867188 6.96875 -8.128906 6.125 -8.421875 C 5.289062 -8.710938 4.585938 -9.082031 4.015625 -9.53125 C 3.441406 -9.976562 3.015625 -10.507812 2.734375 -11.125 C 2.453125 -11.738281 2.3125 -12.476562 2.3125 -13.34375 C 2.3125 -15.03125 2.921875 -16.347656 4.140625 -17.296875 C 5.359375 -18.242188 7.015625 -18.71875 9.109375 -18.71875 Z M 9.109375 -18.71875 "/></g></g><g style="fill:#ffffff;fill-opacity:1;"><g transform="translate(425.098827, 509.291999)"><path style="stroke:none" d="M 5.25 -5.453125 C 6.0625 -5.453125 6.738281 -5.179688 7.28125 -4.640625 C 7.832031 -4.097656 8.109375 -3.421875 8.109375 -2.609375 C 8.109375 -1.796875 7.832031 -1.113281 7.28125 -0.5625 C 6.738281 -0.0195312 6.0625 0.25 5.25 0.25 C 4.46875 0.25 3.796875 -0.015625 3.234375 -0.546875 C 2.671875 -1.078125 2.390625 -1.765625 2.390625 -2.609375 C 2.390625 -3.441406 2.671875 -4.125 3.234375 -4.65625 C 3.796875 -5.1875 4.46875 -5.453125 5.25 -5.453125 Z M 5.25 -5.453125 "/></g><g transform="translate(435.593705, 509.291999)"><path style="stroke:none" d="M 5.25 -5.453125 C 6.0625 -5.453125 6.738281 -5.179688 7.28125 -4.640625 C 7.832031 -4.097656 8.109375 -3.421875 8.109375 -2.609375 C 8.109375 -1.796875 7.832031 -1.113281 7.28125 -0.5625 C 6.738281 -0.0195312 6.0625 0.25 5.25 0.25 C 4.46875 0.25 3.796875 -0.015625 3.234375 -0.546875 C 2.671875 -1.078125 2.390625 -1.765625 2.390625 -2.609375 C 2.390625 -3.441406 2.671875 -4.125 3.234375 -4.65625 C 3.796875 -5.1875 4.46875 -5.453125 5.25 -5.453125 Z M 5.25 -5.453125 "/></g><g transform="translate(446.088583, 509.291999)"><path style="stroke:none" d="M 5.25 -5.453125 C 6.0625 -5.453125 6.738281 -5.179688 7.28125 -4.640625 C 7.832031 -4.097656 8.109375 -3.421875 8.109375 -2.609375 C 8.109375 -1.796875 7.832031 -1.113281 7.28125 -0.5625 C 6.738281 -0.0195312 6.0625 0.25 5.25 0.25 C 4.46875 0.25 3.796875 -0.015625 3.234375 -0.546875 C 2.671875 -1.078125 2.390625 -1.765625 2.390625 -2.609375 C 2.390625 -3.441406 2.671875 -4.125 3.234375 -4.65625 C 3.796875 -5.1875 4.46875 -5.453125 5.25 -5.453125 Z M 5.25 -5.453125 "/></g><g transform="translate(456.58346, 509.291999)"><path style="stroke:none" d="M 8.4375 -22.078125 L 8.4375 -21.5 C 7.820312 -21.4375 7.429688 -21.328125 7.265625 -21.171875 C 7.097656 -21.023438 7.015625 -20.753906 7.015625 -20.359375 L 7.015625 -3.53125 L 16.296875 -3.53125 C 16.742188 -3.53125 17.070312 -3.582031 17.28125 -3.6875 C 17.488281 -3.800781 17.617188 -4.082031 17.671875 -4.53125 L 18.265625 -4.53125 L 18.265625 0.75 L 17.671875 0.75 C 17.617188 0.382812 17.460938 0.164062 17.203125 0.09375 C 16.953125 0.03125 16.648438 0 16.296875 0 L 1.640625 0 L 1.640625 -0.59375 C 2.140625 -0.644531 2.457031 -0.753906 2.59375 -0.921875 C 2.738281 -1.085938 2.8125 -1.335938 2.8125 -1.671875 L 2.8125 -20.359375 C 2.8125 -20.753906 2.734375 -21.023438 2.578125 -21.171875 C 2.421875 -21.328125 2.078125 -21.4375 1.546875 -21.5 L 1.546875 -22.078125 Z M 8.4375 -22.078125 "/></g><g transform="translate(475.222363, 509.291999)"><path style="stroke:none" d="M 10.5 0.25 C 9.207031 0.25 8.015625 0.0195312 6.921875 -0.4375 C 5.835938 -0.90625 4.898438 -1.554688 4.109375 -2.390625 C 3.328125 -3.234375 2.71875 -4.234375 2.28125 -5.390625 C 1.851562 -6.554688 1.640625 -7.835938 1.640625 -9.234375 C 1.640625 -10.609375 1.851562 -11.875 2.28125 -13.03125 C 2.71875 -14.195312 3.328125 -15.195312 4.109375 -16.03125 C 4.898438 -16.875 5.832031 -17.53125 6.90625 -18 C 7.976562 -18.476562 9.175781 -18.71875 10.5 -18.71875 C 11.78125 -18.71875 12.96875 -18.488281 14.0625 -18.03125 C 15.15625 -17.570312 16.09375 -16.921875 16.875 -16.078125 C 17.65625 -15.242188 18.265625 -14.242188 18.703125 -13.078125 C 19.140625 -11.910156 19.359375 -10.628906 19.359375 -9.234375 C 19.359375 -7.835938 19.140625 -6.554688 18.703125 -5.390625 C 18.265625 -4.234375 17.65625 -3.234375 16.875 -2.390625 C 16.09375 -1.554688 15.15625 -0.90625 14.0625 -0.4375 C 12.96875 0.0195312 11.78125 0.25 10.5 0.25 Z M 5.171875 -9.234375 C 5.171875 -8.253906 5.300781 -7.363281 5.5625 -6.5625 C 5.832031 -5.769531 6.195312 -5.085938 6.65625 -4.515625 C 7.113281 -3.941406 7.671875 -3.492188 8.328125 -3.171875 C 8.992188 -2.847656 9.71875 -2.6875 10.5 -2.6875 C 11.28125 -2.6875 12 -2.847656 12.65625 -3.171875 C 13.3125 -3.492188 13.867188 -3.941406 14.328125 -4.515625 C 14.796875 -5.085938 15.160156 -5.769531 15.421875 -6.5625 C 15.691406 -7.363281 15.828125 -8.253906 15.828125 -9.234375 C 15.828125 -10.179688 15.691406 -11.0625 15.421875 -11.875 C 15.160156 -12.6875 14.796875 -13.378906 14.328125 -13.953125 C 13.867188 -14.535156 13.3125 -14.984375 12.65625 -15.296875 C 12 -15.617188 11.28125 -15.78125 10.5 -15.78125 C 8.925781 -15.78125 7.644531 -15.175781 6.65625 -13.96875 C 5.664062 -12.769531 5.171875 -11.191406 5.171875 -9.234375 Z M 5.171875 -9.234375 "/></g><g transform="translate(496.212118, 509.291999)"><path style="stroke:none" d="M 10.15625 -18.71875 C 11 -18.71875 11.71875 -18.625 12.3125 -18.4375 C 12.914062 -18.257812 13.441406 -18.054688 13.890625 -17.828125 C 14.335938 -17.609375 14.722656 -17.410156 15.046875 -17.234375 C 15.367188 -17.054688 15.65625 -16.96875 15.90625 -16.96875 C 16.050781 -16.96875 16.1875 -16.976562 16.3125 -17 C 16.4375 -17.03125 16.554688 -17.101562 16.671875 -17.21875 L 16.96875 -17.046875 L 14.40625 -12.765625 L 13.984375 -12.96875 C 14.003906 -13.050781 14.019531 -13.128906 14.03125 -13.203125 C 14.050781 -13.273438 14.0625 -13.351562 14.0625 -13.4375 C 14.0625 -13.820312 13.9375 -14.160156 13.6875 -14.453125 C 13.4375 -14.753906 13.113281 -15.003906 12.71875 -15.203125 C 12.332031 -15.398438 11.914062 -15.546875 11.46875 -15.640625 C 11.019531 -15.734375 10.613281 -15.78125 10.25 -15.78125 C 9.488281 -15.78125 8.78125 -15.632812 8.125 -15.34375 C 7.46875 -15.050781 6.894531 -14.609375 6.40625 -14.015625 C 5.914062 -13.429688 5.53125 -12.710938 5.25 -11.859375 C 4.96875 -11.003906 4.828125 -10.019531 4.828125 -8.90625 C 4.828125 -6.96875 5.304688 -5.445312 6.265625 -4.34375 C 7.234375 -3.238281 8.613281 -2.6875 10.40625 -2.6875 C 10.769531 -2.6875 11.171875 -2.734375 11.609375 -2.828125 C 12.046875 -2.929688 12.441406 -3.078125 12.796875 -3.265625 C 13.160156 -3.460938 13.46875 -3.691406 13.71875 -3.953125 C 13.976562 -4.222656 14.109375 -4.515625 14.109375 -4.828125 C 14.109375 -4.960938 14.09375 -5.070312 14.0625 -5.15625 C 14.03125 -5.25 14.003906 -5.320312 13.984375 -5.375 L 14.3125 -5.578125 L 17.09375 -2.140625 L 16.875 -1.84375 C 16.707031 -1.90625 16.554688 -1.9375 16.421875 -1.9375 C 16.222656 -1.9375 15.914062 -1.765625 15.5 -1.421875 C 14.957031 -1.035156 14.273438 -0.660156 13.453125 -0.296875 C 12.628906 0.0664062 11.546875 0.25 10.203125 0.25 C 8.890625 0.25 7.6875 0.015625 6.59375 -0.453125 C 5.5 -0.929688 4.5625 -1.585938 3.78125 -2.421875 C 3 -3.265625 2.390625 -4.265625 1.953125 -5.421875 C 1.515625 -6.585938 1.296875 -7.859375 1.296875 -9.234375 C 1.296875 -10.609375 1.515625 -11.875 1.953125 -13.03125 C 2.390625 -14.195312 2.988281 -15.195312 3.75 -16.03125 C 4.519531 -16.875 5.453125 -17.53125 6.546875 -18 C 7.640625 -18.476562 8.84375 -18.71875 10.15625 -18.71875 Z M 10.15625 -18.71875 "/></g><g transform="translate(514.851021, 509.291999)"><path style="stroke:none" d="M 6.546875 -7.3125 L 11.328125 -7.3125 L 9.0625 -15.703125 L 8.984375 -15.703125 Z M 11.71875 -18.46875 L 11.71875 -17.890625 C 11.519531 -17.742188 11.421875 -17.585938 11.421875 -17.421875 C 11.421875 -17.285156 11.539062 -16.882812 11.78125 -16.21875 C 12.019531 -15.5625 12.347656 -14.617188 12.765625 -13.390625 C 13.179688 -12.160156 13.601562 -10.941406 14.03125 -9.734375 C 14.46875 -8.535156 14.925781 -7.25 15.40625 -5.875 C 15.882812 -4.507812 16.269531 -3.421875 16.5625 -2.609375 C 16.851562 -1.796875 17.03125 -1.316406 17.09375 -1.171875 C 17.257812 -0.804688 17.484375 -0.613281 17.765625 -0.59375 L 17.765625 0 L 12.71875 0 L 12.71875 -0.59375 C 13.050781 -0.757812 13.21875 -0.984375 13.21875 -1.265625 C 13.21875 -1.515625 13.035156 -2.113281 12.671875 -3.0625 C 12.617188 -3.226562 12.5 -3.535156 12.3125 -3.984375 C 12.132812 -4.429688 12.03125 -4.753906 12 -4.953125 L 5.875 -4.953125 C 5.84375 -4.835938 5.769531 -4.617188 5.65625 -4.296875 C 5.550781 -3.984375 5.441406 -3.671875 5.328125 -3.359375 C 4.941406 -2.328125 4.75 -1.640625 4.75 -1.296875 C 4.75 -0.910156 4.859375 -0.675781 5.078125 -0.59375 L 5.078125 0 L 0.875 0 L 0.875 -0.59375 C 1.019531 -0.644531 1.132812 -0.75 1.21875 -0.90625 C 1.300781 -1.0625 1.425781 -1.390625 1.59375 -1.890625 L 4.625 -10.578125 C 5.320312 -12.597656 5.863281 -14.191406 6.25 -15.359375 C 6.644531 -16.535156 6.84375 -17.195312 6.84375 -17.34375 C 6.84375 -17.539062 6.726562 -17.722656 6.5 -17.890625 L 6.5 -18.46875 Z M 11.71875 -18.46875 "/></g><g transform="translate(533.489923, 509.291999)"><path style="stroke:none" d="M 0.921875 -19.234375 L 1.515625 -19.234375 C 1.679688 -18.722656 2.046875 -18.46875 2.609375 -18.46875 L 13.6875 -18.46875 C 14.25 -18.46875 14.613281 -18.722656 14.78125 -19.234375 L 15.359375 -19.234375 L 15.359375 -14.6875 L 14.78125 -14.6875 C 14.632812 -15.25 14.253906 -15.53125 13.640625 -15.53125 L 10 -15.53125 L 10 -1.671875 C 10 -1.335938 10.0625 -1.070312 10.1875 -0.875 C 10.3125 -0.6875 10.441406 -0.59375 10.578125 -0.59375 L 10.578125 0 L 5.625 0 L 5.625 -0.59375 C 6.070312 -0.59375 6.296875 -0.953125 6.296875 -1.671875 L 6.296875 -15.53125 L 2.609375 -15.53125 C 2.046875 -15.53125 1.679688 -15.28125 1.515625 -14.78125 L 0.921875 -14.78125 Z M 0.921875 -19.234375 "/></g><g transform="translate(549.819953, 509.291999)"><path style="stroke:none" d="M 16.453125 -14.4375 L 15.875 -14.4375 C 15.8125 -14.863281 15.6875 -15.148438 15.5 -15.296875 C 15.320312 -15.453125 15.082031 -15.53125 14.78125 -15.53125 L 6.96875 -15.53125 L 6.96875 -11 L 11.671875 -11 C 12.003906 -11 12.253906 -11.050781 12.421875 -11.15625 C 12.585938 -11.269531 12.703125 -11.523438 12.765625 -11.921875 L 13.34375 -11.921875 L 13.34375 -7.140625 L 12.765625 -7.140625 C 12.703125 -7.523438 12.582031 -7.773438 12.40625 -7.890625 C 12.226562 -8.003906 11.984375 -8.0625 11.671875 -8.0625 L 6.96875 -8.0625 L 6.96875 -2.9375 L 14.828125 -2.9375 C 15.078125 -2.9375 15.296875 -3.003906 15.484375 -3.140625 C 15.679688 -3.285156 15.8125 -3.566406 15.875 -3.984375 L 16.453125 -3.984375 L 16.453125 0.75 L 15.875 0.75 C 15.789062 0.414062 15.648438 0.207031 15.453125 0.125 C 15.253906 0.0390625 15 0 14.6875 0 L 2.515625 0 L 2.515625 -0.59375 C 3.023438 -0.59375 3.28125 -0.953125 3.28125 -1.671875 L 3.28125 -16.828125 C 3.28125 -17.535156 3.023438 -17.890625 2.515625 -17.890625 L 2.515625 -18.46875 L 14.734375 -18.46875 C 15.046875 -18.46875 15.289062 -18.515625 15.46875 -18.609375 C 15.65625 -18.710938 15.789062 -18.921875 15.875 -19.234375 L 16.453125 -19.234375 Z M 16.453125 -14.4375 "/></g><g transform="translate(568.458855, 509.291999)"><path style="stroke:none" d="M 10.15625 -2.9375 C 12.03125 -2.9375 13.410156 -3.425781 14.296875 -4.40625 C 15.179688 -5.382812 15.625 -6.992188 15.625 -9.234375 C 15.625 -11.503906 15.175781 -13.117188 14.28125 -14.078125 C 13.382812 -15.046875 12.007812 -15.53125 10.15625 -15.53125 L 6.796875 -15.53125 L 6.796875 -2.9375 Z M 10.578125 -18.46875 C 13.265625 -18.46875 15.363281 -17.703125 16.875 -16.171875 C 18.382812 -14.648438 19.140625 -12.335938 19.140625 -9.234375 C 19.140625 -6.160156 18.390625 -3.851562 16.890625 -2.3125 C 15.398438 -0.769531 13.253906 0 10.453125 0 L 2.34375 0 L 2.34375 -0.59375 C 2.851562 -0.59375 3.109375 -0.953125 3.109375 -1.671875 L 3.109375 -16.828125 C 3.109375 -17.535156 2.851562 -17.890625 2.34375 -17.890625 L 2.34375 -18.46875 Z M 10.578125 -18.46875 "/></g><g transform="translate(589.448611, 509.291999)"><path style="stroke:none" d=""/></g><g transform="translate(599.943488, 509.291999)"><path style="stroke:none" d="M 8.5625 -18.46875 L 8.5625 -17.890625 C 7.976562 -17.890625 7.6875 -17.523438 7.6875 -16.796875 L 7.6875 -1.640625 C 7.6875 -0.941406 7.976562 -0.59375 8.5625 -0.59375 L 8.5625 0 L 3.109375 0 L 3.109375 -0.59375 C 3.691406 -0.59375 3.984375 -0.953125 3.984375 -1.671875 L 3.984375 -16.796875 C 3.984375 -17.523438 3.691406 -17.890625 3.109375 -17.890625 L 3.109375 -18.46875 Z M 8.5625 -18.46875 "/></g><g transform="translate(611.613792, 509.291999)"><path style="stroke:none" d="M 8.265625 -18.46875 L 8.265625 -17.890625 C 8.078125 -17.828125 7.929688 -17.753906 7.828125 -17.671875 C 7.734375 -17.585938 7.6875 -17.445312 7.6875 -17.25 C 7.6875 -17.0625 7.800781 -16.785156 8.03125 -16.421875 C 8.269531 -16.054688 8.503906 -15.675781 8.734375 -15.28125 L 14.65625 -5.875 L 14.734375 -5.875 L 14.734375 -16.796875 C 14.734375 -17.523438 14.453125 -17.890625 13.890625 -17.890625 L 13.890625 -18.46875 L 18.84375 -18.46875 L 18.84375 -17.890625 C 18.289062 -17.890625 18.015625 -17.523438 18.015625 -16.796875 L 18.015625 -1.640625 C 18.015625 -0.941406 18.289062 -0.59375 18.84375 -0.59375 L 18.84375 0 L 13.5625 0 L 13.5625 -0.59375 C 13.695312 -0.613281 13.800781 -0.671875 13.875 -0.765625 C 13.945312 -0.867188 13.984375 -0.960938 13.984375 -1.046875 C 13.984375 -1.160156 13.945312 -1.289062 13.875 -1.4375 C 13.800781 -1.59375 13.65625 -1.84375 13.4375 -2.1875 L 6.421875 -12.890625 L 6.34375 -12.890625 L 6.34375 -1.71875 C 6.34375 -0.96875 6.648438 -0.59375 7.265625 -0.59375 L 7.265625 0 L 2.140625 0 L 2.140625 -0.59375 C 2.753906 -0.59375 3.0625 -0.953125 3.0625 -1.671875 L 3.0625 -16.796875 C 3.0625 -17.523438 2.753906 -17.890625 2.140625 -17.890625 L 2.140625 -18.46875 Z M 8.265625 -18.46875 "/></g><g transform="translate(632.603547, 509.291999)"><path style="stroke:none" d=""/></g><g transform="translate(643.098425, 509.291999)"><path style="stroke:none" d="M 0.921875 -19.234375 L 1.515625 -19.234375 C 1.679688 -18.722656 2.046875 -18.46875 2.609375 -18.46875 L 13.6875 -18.46875 C 14.25 -18.46875 14.613281 -18.722656 14.78125 -19.234375 L 15.359375 -19.234375 L 15.359375 -14.6875 L 14.78125 -14.6875 C 14.632812 -15.25 14.253906 -15.53125 13.640625 -15.53125 L 10 -15.53125 L 10 -1.671875 C 10 -1.335938 10.0625 -1.070312 10.1875 -0.875 C 10.3125 -0.6875 10.441406 -0.59375 10.578125 -0.59375 L 10.578125 0 L 5.625 0 L 5.625 -0.59375 C 6.070312 -0.59375 6.296875 -0.953125 6.296875 -1.671875 L 6.296875 -15.53125 L 2.609375 -15.53125 C 2.046875 -15.53125 1.679688 -15.28125 1.515625 -14.78125 L 0.921875 -14.78125 Z M 0.921875 -19.234375 "/></g><g transform="translate(659.428455, 509.291999)"><path style="stroke:none" d="M 7.21875 -18.46875 L 7.21875 -17.890625 C 6.769531 -17.890625 6.546875 -17.523438 6.546875 -16.796875 L 6.546875 -10.921875 L 14.28125 -10.921875 L 14.28125 -16.828125 C 14.28125 -17.535156 14.054688 -17.890625 13.609375 -17.890625 L 13.609375 -18.46875 L 18.640625 -18.46875 L 18.640625 -17.890625 C 18.191406 -17.890625 17.96875 -17.535156 17.96875 -16.828125 L 17.96875 -1.640625 C 17.96875 -1.359375 18.03125 -1.113281 18.15625 -0.90625 C 18.28125 -0.695312 18.46875 -0.59375 18.71875 -0.59375 L 18.71875 0 L 13.6875 0 L 13.6875 -0.59375 C 13.820312 -0.59375 13.953125 -0.6875 14.078125 -0.875 C 14.210938 -1.070312 14.28125 -1.328125 14.28125 -1.640625 L 14.28125 -7.984375 L 6.546875 -7.984375 L 6.546875 -1.640625 C 6.546875 -1.328125 6.609375 -1.070312 6.734375 -0.875 C 6.859375 -0.6875 7.0625 -0.59375 7.34375 -0.59375 L 7.34375 0 L 2.265625 0 L 2.265625 -0.59375 C 2.410156 -0.59375 2.546875 -0.6875 2.671875 -0.875 C 2.796875 -1.070312 2.859375 -1.328125 2.859375 -1.640625 L 2.859375 -16.796875 C 2.859375 -17.128906 2.796875 -17.394531 2.671875 -17.59375 C 2.546875 -17.789062 2.410156 -17.890625 2.265625 -17.890625 L 2.265625 -18.46875 Z M 7.21875 -18.46875 "/></g><g transform="translate(680.41821, 509.291999)"><path style="stroke:none" d="M 16.453125 -14.4375 L 15.875 -14.4375 C 15.8125 -14.863281 15.6875 -15.148438 15.5 -15.296875 C 15.320312 -15.453125 15.082031 -15.53125 14.78125 -15.53125 L 6.96875 -15.53125 L 6.96875 -11 L 11.671875 -11 C 12.003906 -11 12.253906 -11.050781 12.421875 -11.15625 C 12.585938 -11.269531 12.703125 -11.523438 12.765625 -11.921875 L 13.34375 -11.921875 L 13.34375 -7.140625 L 12.765625 -7.140625 C 12.703125 -7.523438 12.582031 -7.773438 12.40625 -7.890625 C 12.226562 -8.003906 11.984375 -8.0625 11.671875 -8.0625 L 6.96875 -8.0625 L 6.96875 -2.9375 L 14.828125 -2.9375 C 15.078125 -2.9375 15.296875 -3.003906 15.484375 -3.140625 C 15.679688 -3.285156 15.8125 -3.566406 15.875 -3.984375 L 16.453125 -3.984375 L 16.453125 0.75 L 15.875 0.75 C 15.789062 0.414062 15.648438 0.207031 15.453125 0.125 C 15.253906 0.0390625 15 0 14.6875 0 L 2.515625 0 L 2.515625 -0.59375 C 3.023438 -0.59375 3.28125 -0.953125 3.28125 -1.671875 L 3.28125 -16.828125 C 3.28125 -17.535156 3.023438 -17.890625 2.515625 -17.890625 L 2.515625 -18.46875 L 14.734375 -18.46875 C 15.046875 -18.46875 15.289062 -18.515625 15.46875 -18.609375 C 15.65625 -18.710938 15.789062 -18.921875 15.875 -19.234375 L 16.453125 -19.234375 Z M 16.453125 -14.4375 "/></g><g transform="translate(699.057112, 509.291999)"><path style="stroke:none" d=""/></g><g transform="translate(709.55199, 509.291999)"><path style="stroke:none" d="M 7.21875 -18.46875 L 7.21875 -17.890625 C 6.769531 -17.890625 6.546875 -17.523438 6.546875 -16.796875 L 6.546875 -10.921875 L 14.28125 -10.921875 L 14.28125 -16.828125 C 14.28125 -17.535156 14.054688 -17.890625 13.609375 -17.890625 L 13.609375 -18.46875 L 18.640625 -18.46875 L 18.640625 -17.890625 C 18.191406 -17.890625 17.96875 -17.535156 17.96875 -16.828125 L 17.96875 -1.640625 C 17.96875 -1.359375 18.03125 -1.113281 18.15625 -0.90625 C 18.28125 -0.695312 18.46875 -0.59375 18.71875 -0.59375 L 18.71875 0 L 13.6875 0 L 13.6875 -0.59375 C 13.820312 -0.59375 13.953125 -0.6875 14.078125 -0.875 C 14.210938 -1.070312 14.28125 -1.328125 14.28125 -1.640625 L 14.28125 -7.984375 L 6.546875 -7.984375 L 6.546875 -1.640625 C 6.546875 -1.328125 6.609375 -1.070312 6.734375 -0.875 C 6.859375 -0.6875 7.0625 -0.59375 7.34375 -0.59375 L 7.34375 0 L 2.265625 0 L 2.265625 -0.59375 C 2.410156 -0.59375 2.546875 -0.6875 2.671875 -0.875 C 2.796875 -1.070312 2.859375 -1.328125 2.859375 -1.640625 L 2.859375 -16.796875 C 2.859375 -17.128906 2.796875 -17.394531 2.671875 -17.59375 C 2.546875 -17.789062 2.410156 -17.890625 2.265625 -17.890625 L 2.265625 -18.46875 Z M 7.21875 -18.46875 "/></g><g transform="translate(730.541745, 509.291999)"><path style="stroke:none" d="M 16.453125 -14.4375 L 15.875 -14.4375 C 15.8125 -14.863281 15.6875 -15.148438 15.5 -15.296875 C 15.320312 -15.453125 15.082031 -15.53125 14.78125 -15.53125 L 6.96875 -15.53125 L 6.96875 -11 L 11.671875 -11 C 12.003906 -11 12.253906 -11.050781 12.421875 -11.15625 C 12.585938 -11.269531 12.703125 -11.523438 12.765625 -11.921875 L 13.34375 -11.921875 L 13.34375 -7.140625 L 12.765625 -7.140625 C 12.703125 -7.523438 12.582031 -7.773438 12.40625 -7.890625 C 12.226562 -8.003906 11.984375 -8.0625 11.671875 -8.0625 L 6.96875 -8.0625 L 6.96875 -2.9375 L 14.828125 -2.9375 C 15.078125 -2.9375 15.296875 -3.003906 15.484375 -3.140625 C 15.679688 -3.285156 15.8125 -3.566406 15.875 -3.984375 L 16.453125 -3.984375 L 16.453125 0.75 L 15.875 0.75 C 15.789062 0.414062 15.648438 0.207031 15.453125 0.125 C 15.253906 0.0390625 15 0 14.6875 0 L 2.515625 0 L 2.515625 -0.59375 C 3.023438 -0.59375 3.28125 -0.953125 3.28125 -1.671875 L 3.28125 -16.828125 C 3.28125 -17.535156 3.023438 -17.890625 2.515625 -17.890625 L 2.515625 -18.46875 L 14.734375 -18.46875 C 15.046875 -18.46875 15.289062 -18.515625 15.46875 -18.609375 C 15.65625 -18.710938 15.789062 -18.921875 15.875 -19.234375 L 16.453125 -19.234375 Z M 16.453125 -14.4375 "/></g></g><g style="fill:#ffffff;fill-opacity:1;"><g transform="translate(749.180633, 509.291999)"><path style="stroke:none" d="M 6.546875 -7.3125 L 11.328125 -7.3125 L 9.0625 -15.703125 L 8.984375 -15.703125 Z M 11.71875 -18.46875 L 11.71875 -17.890625 C 11.519531 -17.742188 11.421875 -17.585938 11.421875 -17.421875 C 11.421875 -17.285156 11.539062 -16.882812 11.78125 -16.21875 C 12.019531 -15.5625 12.347656 -14.617188 12.765625 -13.390625 C 13.179688 -12.160156 13.601562 -10.941406 14.03125 -9.734375 C 14.46875 -8.535156 14.925781 -7.25 15.40625 -5.875 C 15.882812 -4.507812 16.269531 -3.421875 16.5625 -2.609375 C 16.851562 -1.796875 17.03125 -1.316406 17.09375 -1.171875 C 17.257812 -0.804688 17.484375 -0.613281 17.765625 -0.59375 L 17.765625 0 L 12.71875 0 L 12.71875 -0.59375 C 13.050781 -0.757812 13.21875 -0.984375 13.21875 -1.265625 C 13.21875 -1.515625 13.035156 -2.113281 12.671875 -3.0625 C 12.617188 -3.226562 12.5 -3.535156 12.3125 -3.984375 C 12.132812 -4.429688 12.03125 -4.753906 12 -4.953125 L 5.875 -4.953125 C 5.84375 -4.835938 5.769531 -4.617188 5.65625 -4.296875 C 5.550781 -3.984375 5.441406 -3.671875 5.328125 -3.359375 C 4.941406 -2.328125 4.75 -1.640625 4.75 -1.296875 C 4.75 -0.910156 4.859375 -0.675781 5.078125 -0.59375 L 5.078125 0 L 0.875 0 L 0.875 -0.59375 C 1.019531 -0.644531 1.132812 -0.75 1.21875 -0.90625 C 1.300781 -1.0625 1.425781 -1.390625 1.59375 -1.890625 L 4.625 -10.578125 C 5.320312 -12.597656 5.863281 -14.191406 6.25 -15.359375 C 6.644531 -16.535156 6.84375 -17.195312 6.84375 -17.34375 C 6.84375 -17.539062 6.726562 -17.722656 6.5 -17.890625 L 6.5 -18.46875 Z M 11.71875 -18.46875 "/></g></g><g style="fill:#ffffff;fill-opacity:1;"><g transform="translate(767.819523, 509.291999)"><path style="stroke:none" d="M 10.703125 -10.078125 C 12.210938 -10.078125 13.296875 -10.28125 13.953125 -10.6875 C 14.617188 -11.09375 14.953125 -11.828125 14.953125 -12.890625 C 14.953125 -13.867188 14.65625 -14.582031 14.0625 -15.03125 C 13.476562 -15.476562 12.390625 -15.703125 10.796875 -15.703125 L 6.96875 -15.703125 L 6.96875 -10.078125 Z M 12.140625 -18.46875 C 14.179688 -18.46875 15.742188 -17.976562 16.828125 -17 C 17.921875 -16.019531 18.46875 -14.625 18.46875 -12.8125 C 18.46875 -12.164062 18.34375 -11.546875 18.09375 -10.953125 C 17.84375 -10.367188 17.503906 -9.84375 17.078125 -9.375 C 16.660156 -8.914062 16.171875 -8.53125 15.609375 -8.21875 C 15.054688 -7.914062 14.472656 -7.738281 13.859375 -7.6875 L 17.59375 -1.421875 C 17.789062 -1.117188 17.953125 -0.914062 18.078125 -0.8125 C 18.203125 -0.71875 18.332031 -0.644531 18.46875 -0.59375 L 18.46875 0 L 13.4375 0 L 13.4375 -0.59375 C 13.738281 -0.59375 13.890625 -0.703125 13.890625 -0.921875 C 13.890625 -1.035156 13.867188 -1.160156 13.828125 -1.296875 C 13.785156 -1.441406 13.695312 -1.625 13.5625 -1.84375 L 10.28125 -7.3125 L 6.96875 -7.3125 L 6.96875 -1.671875 C 6.96875 -1.367188 7.03125 -1.113281 7.15625 -0.90625 C 7.28125 -0.695312 7.46875 -0.59375 7.71875 -0.59375 L 7.71875 0 L 2.515625 0 L 2.515625 -0.59375 C 2.765625 -0.59375 2.953125 -0.695312 3.078125 -0.90625 C 3.210938 -1.113281 3.28125 -1.367188 3.28125 -1.671875 L 3.28125 -16.796875 C 3.28125 -17.523438 3.023438 -17.890625 2.515625 -17.890625 L 2.515625 -18.46875 Z M 12.140625 -18.46875 "/></g></g><g style="fill:#ffffff;fill-opacity:1;"><g transform="translate(788.05365, 509.291999)"><path style="stroke:none" d="M 0.921875 -19.234375 L 1.515625 -19.234375 C 1.679688 -18.722656 2.046875 -18.46875 2.609375 -18.46875 L 13.6875 -18.46875 C 14.25 -18.46875 14.613281 -18.722656 14.78125 -19.234375 L 15.359375 -19.234375 L 15.359375 -14.6875 L 14.78125 -14.6875 C 14.632812 -15.25 14.253906 -15.53125 13.640625 -15.53125 L 10 -15.53125 L 10 -1.671875 C 10 -1.335938 10.0625 -1.070312 10.1875 -0.875 C 10.3125 -0.6875 10.441406 -0.59375 10.578125 -0.59375 L 10.578125 0 L 5.625 0 L 5.625 -0.59375 C 6.070312 -0.59375 6.296875 -0.953125 6.296875 -1.671875 L 6.296875 -15.53125 L 2.609375 -15.53125 C 2.046875 -15.53125 1.679688 -15.28125 1.515625 -14.78125 L 0.921875 -14.78125 Z M 0.921875 -19.234375 "/></g></g><g style="fill:#ffffff;fill-opacity:1;"><g transform="translate(804.383677, 509.291999)"><path style="stroke:none" d=""/></g><g transform="translate(814.878555, 509.291999)"><path style="stroke:none" d="M 10.5 0.25 C 9.207031 0.25 8.015625 0.0195312 6.921875 -0.4375 C 5.835938 -0.90625 4.898438 -1.554688 4.109375 -2.390625 C 3.328125 -3.234375 2.71875 -4.234375 2.28125 -5.390625 C 1.851562 -6.554688 1.640625 -7.835938 1.640625 -9.234375 C 1.640625 -10.609375 1.851562 -11.875 2.28125 -13.03125 C 2.71875 -14.195312 3.328125 -15.195312 4.109375 -16.03125 C 4.898438 -16.875 5.832031 -17.53125 6.90625 -18 C 7.976562 -18.476562 9.175781 -18.71875 10.5 -18.71875 C 11.78125 -18.71875 12.96875 -18.488281 14.0625 -18.03125 C 15.15625 -17.570312 16.09375 -16.921875 16.875 -16.078125 C 17.65625 -15.242188 18.265625 -14.242188 18.703125 -13.078125 C 19.140625 -11.910156 19.359375 -10.628906 19.359375 -9.234375 C 19.359375 -7.835938 19.140625 -6.554688 18.703125 -5.390625 C 18.265625 -4.234375 17.65625 -3.234375 16.875 -2.390625 C 16.09375 -1.554688 15.15625 -0.90625 14.0625 -0.4375 C 12.96875 0.0195312 11.78125 0.25 10.5 0.25 Z M 5.171875 -9.234375 C 5.171875 -8.253906 5.300781 -7.363281 5.5625 -6.5625 C 5.832031 -5.769531 6.195312 -5.085938 6.65625 -4.515625 C 7.113281 -3.941406 7.671875 -3.492188 8.328125 -3.171875 C 8.992188 -2.847656 9.71875 -2.6875 10.5 -2.6875 C 11.28125 -2.6875 12 -2.847656 12.65625 -3.171875 C 13.3125 -3.492188 13.867188 -3.941406 14.328125 -4.515625 C 14.796875 -5.085938 15.160156 -5.769531 15.421875 -6.5625 C 15.691406 -7.363281 15.828125 -8.253906 15.828125 -9.234375 C 15.828125 -10.179688 15.691406 -11.0625 15.421875 -11.875 C 15.160156 -12.6875 14.796875 -13.378906 14.328125 -13.953125 C 13.867188 -14.535156 13.3125 -14.984375 12.65625 -15.296875 C 12 -15.617188 11.28125 -15.78125 10.5 -15.78125 C 8.925781 -15.78125 7.644531 -15.175781 6.65625 -13.96875 C 5.664062 -12.769531 5.171875 -11.191406 5.171875 -9.234375 Z M 5.171875 -9.234375 "/></g><g transform="translate(835.86831, 509.291999)"><path style="stroke:none" d="M 14.953125 -14.78125 L 14.359375 -14.78125 C 14.191406 -15.28125 13.8125 -15.53125 13.21875 -15.53125 L 6.125 -15.53125 L 6.125 -11 L 10.40625 -11 C 10.75 -11 11.003906 -11.0625 11.171875 -11.1875 C 11.335938 -11.3125 11.445312 -11.5 11.5 -11.75 L 12.09375 -11.75 L 12.09375 -7.3125 L 11.5 -7.3125 C 11.414062 -7.644531 11.28125 -7.851562 11.09375 -7.9375 C 10.914062 -8.019531 10.660156 -8.0625 10.328125 -8.0625 L 6.125 -8.0625 L 6.125 -1.671875 C 6.125 -0.953125 6.363281 -0.59375 6.84375 -0.59375 L 6.84375 0 L 1.890625 0 L 1.890625 -0.59375 C 2.023438 -0.613281 2.148438 -0.707031 2.265625 -0.875 C 2.378906 -1.050781 2.4375 -1.316406 2.4375 -1.671875 L 2.4375 -16.828125 C 2.4375 -17.140625 2.375 -17.394531 2.25 -17.59375 C 2.125 -17.789062 1.976562 -17.890625 1.8125 -17.890625 L 1.8125 -18.46875 L 13.21875 -18.46875 C 13.53125 -18.46875 13.773438 -18.515625 13.953125 -18.609375 C 14.140625 -18.710938 14.273438 -18.921875 14.359375 -19.234375 L 14.953125 -19.234375 Z M 14.953125 -14.78125 "/></g></g><g style="fill:#ffffff;fill-opacity:1;"><g transform="translate(852.198337, 509.291999)"><path style="stroke:none" d=""/></g><g transform="translate(862.693215, 509.291999)"><path style="stroke:none" d="M 1.34375 -22.84375 L 1.9375 -22.84375 C 1.988281 -22.476562 2.140625 -22.257812 2.390625 -22.1875 C 2.640625 -22.113281 2.960938 -22.078125 3.359375 -22.078125 L 17.640625 -22.078125 C 18.023438 -22.078125 18.34375 -22.113281 18.59375 -22.1875 C 18.851562 -22.257812 19.007812 -22.476562 19.0625 -22.84375 L 19.65625 -22.84375 L 19.65625 -17.59375 L 19.0625 -17.59375 C 19.007812 -17.976562 18.882812 -18.234375 18.6875 -18.359375 C 18.488281 -18.492188 18.140625 -18.5625 17.640625 -18.5625 L 12.59375 -18.5625 L 12.59375 -1.671875 C 12.59375 -1.316406 12.660156 -1.0625 12.796875 -0.90625 C 12.941406 -0.75 13.210938 -0.644531 13.609375 -0.59375 L 13.609375 0 L 7.5625 0 L 7.5625 -0.59375 C 7.894531 -0.644531 8.113281 -0.753906 8.21875 -0.921875 C 8.332031 -1.085938 8.390625 -1.335938 8.390625 -1.671875 L 8.390625 -18.5625 L 3.359375 -18.5625 C 2.910156 -18.5625 2.570312 -18.507812 2.34375 -18.40625 C 2.125 -18.3125 1.988281 -18.039062 1.9375 -17.59375 L 1.34375 -17.59375 Z M 1.34375 -22.84375 "/></g><g transform="translate(883.68297, 509.291999)"><path style="stroke:none" d="M 16.453125 -14.4375 L 15.875 -14.4375 C 15.8125 -14.863281 15.6875 -15.148438 15.5 -15.296875 C 15.320312 -15.453125 15.082031 -15.53125 14.78125 -15.53125 L 6.96875 -15.53125 L 6.96875 -11 L 11.671875 -11 C 12.003906 -11 12.253906 -11.050781 12.421875 -11.15625 C 12.585938 -11.269531 12.703125 -11.523438 12.765625 -11.921875 L 13.34375 -11.921875 L 13.34375 -7.140625 L 12.765625 -7.140625 C 12.703125 -7.523438 12.582031 -7.773438 12.40625 -7.890625 C 12.226562 -8.003906 11.984375 -8.0625 11.671875 -8.0625 L 6.96875 -8.0625 L 6.96875 -2.9375 L 14.828125 -2.9375 C 15.078125 -2.9375 15.296875 -3.003906 15.484375 -3.140625 C 15.679688 -3.285156 15.8125 -3.566406 15.875 -3.984375 L 16.453125 -3.984375 L 16.453125 0.75 L 15.875 0.75 C 15.789062 0.414062 15.648438 0.207031 15.453125 0.125 C 15.253906 0.0390625 15 0 14.6875 0 L 2.515625 0 L 2.515625 -0.59375 C 3.023438 -0.59375 3.28125 -0.953125 3.28125 -1.671875 L 3.28125 -16.828125 C 3.28125 -17.535156 3.023438 -17.890625 2.515625 -17.890625 L 2.515625 -18.46875 L 14.734375 -18.46875 C 15.046875 -18.46875 15.289062 -18.515625 15.46875 -18.609375 C 15.65625 -18.710938 15.789062 -18.921875 15.875 -19.234375 L 16.453125 -19.234375 Z M 16.453125 -14.4375 "/></g></g><g style="fill:#ffffff;fill-opacity:1;"><g transform="translate(902.321883, 509.291999)"><path style="stroke:none" d="M 7.265625 -18.46875 L 7.265625 -17.890625 C 6.867188 -17.804688 6.671875 -17.648438 6.671875 -17.421875 C 6.671875 -17.285156 6.695312 -17.144531 6.75 -17 C 6.8125 -16.863281 6.941406 -16.640625 7.140625 -16.328125 L 9.53125 -12.390625 L 11.625 -15.90625 C 11.851562 -16.269531 11.992188 -16.539062 12.046875 -16.71875 C 12.109375 -16.90625 12.140625 -17.097656 12.140625 -17.296875 C 12.140625 -17.609375 11.859375 -17.804688 11.296875 -17.890625 L 11.296875 -18.46875 L 17 -18.46875 L 17 -17.890625 C 16.863281 -17.859375 16.753906 -17.820312 16.671875 -17.78125 C 16.585938 -17.738281 16.492188 -17.664062 16.390625 -17.5625 C 16.296875 -17.46875 16.175781 -17.320312 16.03125 -17.125 C 15.894531 -16.925781 15.726562 -16.660156 15.53125 -16.328125 L 11.328125 -9.703125 L 16 -2.3125 C 16.300781 -1.832031 16.539062 -1.453125 16.71875 -1.171875 C 16.90625 -0.890625 17.140625 -0.695312 17.421875 -0.59375 L 17.421875 0 L 11.875 0 L 11.875 -0.59375 C 12.019531 -0.613281 12.15625 -0.660156 12.28125 -0.734375 C 12.40625 -0.804688 12.46875 -0.894531 12.46875 -1 C 12.46875 -1.144531 12.429688 -1.304688 12.359375 -1.484375 C 12.296875 -1.671875 12.164062 -1.914062 11.96875 -2.21875 L 9.234375 -6.59375 L 6.25 -1.9375 C 6.082031 -1.675781 5.96875 -1.484375 5.90625 -1.359375 C 5.851562 -1.234375 5.828125 -1.128906 5.828125 -1.046875 C 5.828125 -0.796875 6 -0.644531 6.34375 -0.59375 L 6.34375 0 L 1.21875 0 L 1.21875 -0.59375 C 1.300781 -0.59375 1.445312 -0.640625 1.65625 -0.734375 C 1.863281 -0.828125 2.109375 -1.085938 2.390625 -1.515625 L 7.515625 -9.484375 L 3.1875 -16.296875 C 2.90625 -16.742188 2.648438 -17.101562 2.421875 -17.375 C 2.203125 -17.65625 1.941406 -17.828125 1.640625 -17.890625 L 1.640625 -18.46875 Z M 7.265625 -18.46875 "/></g></g><g style="fill:#ffffff;fill-opacity:1;"><g transform="translate(920.960796, 509.291999)"><path style="stroke:none" d="M 6.546875 -7.3125 L 11.328125 -7.3125 L 9.0625 -15.703125 L 8.984375 -15.703125 Z M 11.71875 -18.46875 L 11.71875 -17.890625 C 11.519531 -17.742188 11.421875 -17.585938 11.421875 -17.421875 C 11.421875 -17.285156 11.539062 -16.882812 11.78125 -16.21875 C 12.019531 -15.5625 12.347656 -14.617188 12.765625 -13.390625 C 13.179688 -12.160156 13.601562 -10.941406 14.03125 -9.734375 C 14.46875 -8.535156 14.925781 -7.25 15.40625 -5.875 C 15.882812 -4.507812 16.269531 -3.421875 16.5625 -2.609375 C 16.851562 -1.796875 17.03125 -1.316406 17.09375 -1.171875 C 17.257812 -0.804688 17.484375 -0.613281 17.765625 -0.59375 L 17.765625 0 L 12.71875 0 L 12.71875 -0.59375 C 13.050781 -0.757812 13.21875 -0.984375 13.21875 -1.265625 C 13.21875 -1.515625 13.035156 -2.113281 12.671875 -3.0625 C 12.617188 -3.226562 12.5 -3.535156 12.3125 -3.984375 C 12.132812 -4.429688 12.03125 -4.753906 12 -4.953125 L 5.875 -4.953125 C 5.84375 -4.835938 5.769531 -4.617188 5.65625 -4.296875 C 5.550781 -3.984375 5.441406 -3.671875 5.328125 -3.359375 C 4.941406 -2.328125 4.75 -1.640625 4.75 -1.296875 C 4.75 -0.910156 4.859375 -0.675781 5.078125 -0.59375 L 5.078125 0 L 0.875 0 L 0.875 -0.59375 C 1.019531 -0.644531 1.132812 -0.75 1.21875 -0.90625 C 1.300781 -1.0625 1.425781 -1.390625 1.59375 -1.890625 L 4.625 -10.578125 C 5.320312 -12.597656 5.863281 -14.191406 6.25 -15.359375 C 6.644531 -16.535156 6.84375 -17.195312 6.84375 -17.34375 C 6.84375 -17.539062 6.726562 -17.722656 6.5 -17.890625 L 6.5 -18.46875 Z M 11.71875 -18.46875 "/></g></g><g style="fill:#ffffff;fill-opacity:1;"><g transform="translate(939.599664, 509.291999)"><path style="stroke:none" d="M 9.109375 -18.71875 C 9.785156 -18.71875 10.503906 -18.640625 11.265625 -18.484375 C 12.035156 -18.335938 12.882812 -18.097656 13.8125 -17.765625 C 14.757812 -17.398438 15.289062 -17.21875 15.40625 -17.21875 C 15.488281 -17.21875 15.570312 -17.238281 15.65625 -17.28125 C 15.738281 -17.320312 15.894531 -17.410156 16.125 -17.546875 L 16.453125 -17.375 L 14.28125 -13.265625 L 13.859375 -13.4375 C 13.859375 -14.164062 13.375 -14.765625 12.40625 -15.234375 C 11.4375 -15.710938 10.226562 -15.953125 8.78125 -15.953125 C 7.601562 -15.953125 6.71875 -15.726562 6.125 -15.28125 C 5.539062 -14.832031 5.25 -14.242188 5.25 -13.515625 C 5.25 -12.847656 5.578125 -12.332031 6.234375 -11.96875 C 6.890625 -11.601562 7.972656 -11.265625 9.484375 -10.953125 C 10.578125 -10.734375 11.550781 -10.46875 12.40625 -10.15625 C 13.257812 -9.851562 13.972656 -9.46875 14.546875 -9 C 15.117188 -8.539062 15.554688 -7.984375 15.859375 -7.328125 C 16.171875 -6.671875 16.328125 -5.878906 16.328125 -4.953125 C 16.328125 -4.203125 16.160156 -3.507812 15.828125 -2.875 C 15.492188 -2.25 15.03125 -1.703125 14.4375 -1.234375 C 13.851562 -0.773438 13.144531 -0.410156 12.3125 -0.140625 C 11.488281 0.117188 10.585938 0.25 9.609375 0.25 C 8.523438 0.25 7.582031 0.15625 6.78125 -0.03125 C 5.976562 -0.226562 5.296875 -0.4375 4.734375 -0.65625 C 4.179688 -0.882812 3.726562 -1.097656 3.375 -1.296875 C 3.03125 -1.492188 2.757812 -1.59375 2.5625 -1.59375 C 2.414062 -1.59375 2.300781 -1.550781 2.21875 -1.46875 C 2.132812 -1.382812 2.039062 -1.285156 1.9375 -1.171875 L 1.421875 -1.34375 L 3.6875 -5.875 L 4.28125 -5.546875 C 4.25 -5.460938 4.210938 -5.367188 4.171875 -5.265625 C 4.128906 -5.171875 4.109375 -5.082031 4.109375 -5 C 4.109375 -4.664062 4.273438 -4.347656 4.609375 -4.046875 C 4.953125 -3.753906 5.378906 -3.492188 5.890625 -3.265625 C 6.410156 -3.046875 7 -2.863281 7.65625 -2.71875 C 8.320312 -2.582031 8.972656 -2.515625 9.609375 -2.515625 C 10.867188 -2.515625 11.8125 -2.757812 12.4375 -3.25 C 13.070312 -3.738281 13.390625 -4.421875 13.390625 -5.296875 C 13.390625 -5.929688 13.050781 -6.398438 12.375 -6.703125 C 11.707031 -7.015625 10.59375 -7.328125 9.03125 -7.640625 C 7.9375 -7.867188 6.96875 -8.128906 6.125 -8.421875 C 5.289062 -8.710938 4.585938 -9.082031 4.015625 -9.53125 C 3.441406 -9.976562 3.015625 -10.507812 2.734375 -11.125 C 2.453125 -11.738281 2.3125 -12.476562 2.3125 -13.34375 C 2.3125 -15.03125 2.921875 -16.347656 4.140625 -17.296875 C 5.359375 -18.242188 7.015625 -18.71875 9.109375 -18.71875 Z M 9.109375 -18.71875 "/></g></g></g></svg>