<svg xmlns="http://www.w3.org/2000/svg" xmlns:xlink="http://www.w3.org/1999/xlink" width="500" zoomAndPan="magnify" viewBox="0 0 375 374.999991" height="500" preserveAspectRatio="xMidYMid meet" version="1.2"><defs><filter x="0%" y="0%" width="100%" filterUnits="objectBoundingBox" id="fa6ade2147" height="100%"><feColorMatrix values="0 0 0 0 1 0 0 0 0 1 0 0 0 0 1 0 0 0 1 0" type="matrix" in="SourceGraphic"/></filter><clipPath id="0eeeb61c65"><path d="M 1 0.558594 L 258 0.558594 L 258 245 L 1 245 Z M 1 0.558594 "/></clipPath><clipPath id="f91c451f05"><rect x="0" width="260" y="0" height="247"/></clipPath></defs><g id="668f918360"><g mask="url(#f80747ffa0)" transform="matrix(1,0,0,1,12,91)"><g clip-path="url(#f91c451f05)"><g clip-rule="nonzero" clip-path="url(#0eeeb61c65)"><path style=" stroke:none;fill-rule:nonzero;fill:#444444;fill-opacity:1;" d="M 81.570312 159.046875 C 78.730469 163.679688 76.546875 167.765625 73.8125 171.527344 C 70.371094 176.265625 68.023438 176.976562 62.890625 174.304688 C 55.351562 170.4375 47.210938 167.382812 41.859375 160.351562 C 40.054688 158.011719 38.144531 155.394531 37.542969 152.613281 C 35.414062 142.914062 30.332031 135.71875 21.484375 131.085938 C 14.109375 127.21875 8.753906 121.167969 3.566406 114.953125 C 1.980469 113.046875 0.34375 111.085938 1.542969 108.414062 C 2.746094 105.800781 5.3125 106.507812 7.445312 106.507812 C 25.90625 106.453125 44.371094 106.507812 62.78125 106.453125 C 64.964844 106.453125 67.09375 106.234375 70.046875 106.070312 C 70.046875 70.863281 70.046875 36.203125 70.046875 1.375 C 72.175781 0.996094 73.539062 0.558594 74.90625 0.558594 C 91.511719 0.558594 108.171875 0.613281 124.78125 0.667969 C 125.597656 0.667969 126.417969 0.613281 127.238281 0.667969 C 131.335938 0.941406 132.152344 1.648438 132.207031 5.847656 C 132.316406 13.148438 132.261719 20.398438 132.207031 27.699219 C 132.207031 32.550781 132.042969 37.402344 132.097656 42.25 C 132.097656 47.484375 134.339844 50.425781 139.527344 51.625 C 143.625 52.550781 147.886719 52.988281 152.039062 53.804688 C 153.511719 54.132812 155.042969 54.839844 156.351562 55.660156 C 158.210938 56.804688 159.902344 58.21875 161.707031 59.527344 C 163.617188 58.382812 165.148438 57.511719 167.332031 56.203125 C 169.734375 57.785156 172.578125 59.253906 174.925781 61.382812 C 178.09375 64.214844 181.371094 64.378906 185.085938 63.015625 C 186.398438 62.527344 187.707031 61.925781 189.019531 61.4375 C 191.148438 60.617188 192.789062 61.109375 194.480469 62.6875 C 198.359375 66.230469 201.691406 66.667969 205.84375 63.886719 C 208.355469 62.199219 210.921875 61.761719 213.820312 61.597656 C 216.332031 61.4375 218.953125 61 221.355469 60.128906 C 223.652344 59.308594 225.234375 59.691406 226.820312 61.328125 C 228.074219 62.636719 229.332031 64.050781 230.753906 65.085938 C 234.738281 67.976562 239.054688 70.101562 244.246094 69.449219 C 245.773438 69.285156 247.359375 69.664062 249.488281 69.773438 C 249.652344 72.28125 249.871094 74.40625 249.871094 76.585938 C 249.871094 85.90625 249.925781 95.226562 249.652344 104.492188 C 249.542969 109.125 250.308594 113.265625 253.148438 117.027344 C 254.351562 118.605469 255.222656 120.515625 255.933594 122.421875 C 257.792969 127.273438 258.882812 132.121094 256.097656 137.027344 C 253.257812 141.988281 252.820312 147.328125 253.148438 152.832031 C 253.257812 154.628906 253.09375 156.484375 253.09375 158.28125 C 253.039062 160.625 252.054688 161.933594 249.542969 162.261719 C 244.953125 162.804688 240.257812 163.1875 235.886719 164.550781 C 233.210938 165.367188 230.917969 167.65625 228.730469 169.671875 C 227.421875 170.871094 226.710938 172.671875 225.726562 174.195312 C 221.027344 181.878906 213.4375 185.640625 205.570312 189.019531 C 200.378906 191.253906 195.191406 193.542969 189.949219 195.722656 C 187.488281 196.757812 186.507812 198.394531 186.070312 201.171875 C 184.976562 207.496094 183.226562 213.761719 181.535156 219.976562 C 180.441406 224.007812 181.316406 227.441406 183.445312 230.875 C 184.921875 233.21875 186.125 235.890625 186.722656 238.617188 C 187.652344 242.8125 184.484375 245.808594 180.660156 243.957031 C 173.886719 240.578125 166.402344 241.667969 159.410156 239.542969 C 151.929688 237.199219 146.355469 233.875 144.445312 225.589844 C 143.132812 219.976562 139.691406 215.070312 138.328125 209.183594 C 137.179688 204.226562 132.863281 199.867188 129.53125 195.558594 C 126.472656 191.527344 123.632812 187.441406 121.882812 182.589844 C 118.441406 173.105469 111.015625 166.675781 103.640625 160.300781 C 102.929688 159.699219 101.78125 159.261719 100.855469 159.261719 C 94.40625 158.992188 87.90625 159.046875 81.570312 159.046875 Z M 223.925781 62.527344 C 221.792969 63.125 219.882812 63.996094 217.96875 64.105469 C 213.65625 64.269531 209.722656 64.976562 205.84375 67.375 C 202.019531 69.71875 197.375 69.882812 193.933594 66.613281 C 191.3125 64.105469 189.347656 64.433594 186.453125 65.632812 C 181.425781 67.648438 176.617188 67.210938 172.578125 62.90625 C 171.265625 61.492188 169.355469 60.617188 167.550781 59.417969 C 163.070312 63.289062 159.195312 62.089844 155.425781 58.710938 C 154.441406 57.839844 153.019531 57.128906 151.710938 56.859375 C 147.394531 55.875 143.023438 55.277344 138.707031 54.242188 C 131.988281 52.660156 128.984375 48.738281 128.984375 41.871094 C 129.039062 31.351562 129.148438 20.832031 129.203125 10.316406 C 129.203125 8.351562 129.039062 6.390625 128.929688 4.046875 C 110.03125 4.046875 91.730469 4.046875 72.667969 4.046875 C 72.667969 6.609375 72.667969 8.789062 72.667969 10.96875 C 72.722656 41.707031 72.832031 72.445312 72.832031 103.238281 C 72.832031 109.179688 72.503906 109.503906 66.765625 109.558594 C 54.203125 109.722656 41.640625 109.886719 29.074219 109.941406 C 22.410156 109.941406 15.691406 109.667969 9.027344 109.667969 C 7.554688 109.667969 6.132812 110.160156 3.566406 110.59375 C 9.082031 117.460938 13.671875 123.621094 20.609375 127.328125 C 30.550781 132.667969 37.980469 139.699219 39.890625 151.414062 C 40.492188 155.066406 42.785156 157.902344 45.519531 160.515625 C 50.707031 165.640625 57.316406 168.308594 63.542969 171.636719 C 67.640625 173.816406 69.71875 173.160156 72.285156 169.292969 C 74.304688 166.292969 76.273438 163.132812 77.527344 159.753906 C 78.621094 156.867188 80.207031 156.101562 82.9375 156.15625 C 89 156.265625 95.117188 156.210938 101.179688 156.429688 C 102.710938 156.484375 104.511719 156.972656 105.605469 157.957031 C 113.417969 165.257812 121.5 172.398438 125.105469 183.023438 C 125.816406 185.097656 126.910156 187.113281 128.113281 188.910156 C 131.664062 194.089844 135.050781 199.375 139.035156 204.171875 C 143.242188 209.238281 140.730469 217.140625 146.902344 221.175781 C 147.285156 221.394531 147.285156 222.320312 147.339844 222.917969 C 147.832031 231.910156 154.167969 235.183594 161.652344 237.035156 C 165.585938 238.015625 169.625 238.398438 173.613281 239.105469 C 176.835938 239.707031 180.003906 240.359375 183.445312 241.011719 C 184.15625 237.144531 182.136719 234.527344 180.769531 231.695312 C 179.625 229.351562 177.929688 226.789062 178.09375 224.445312 C 178.585938 218.832031 179.949219 213.328125 181.097656 207.824219 C 181.644531 205.042969 183.011719 202.425781 183.175781 199.648438 C 183.390625 196.269531 185.140625 194.632812 187.980469 193.378906 C 194.480469 190.546875 200.761719 187.222656 207.371094 184.769531 C 215.839844 181.664062 221.628906 175.996094 226.109375 168.417969 C 228.511719 164.332031 231.898438 161.496094 237.253906 161.226562 C 241.351562 161.007812 245.390625 159.425781 250.199219 158.28125 C 250.199219 154.738281 250.035156 151.359375 250.253906 147.980469 C 250.417969 145.582031 250.527344 143.023438 251.511719 140.953125 C 255.878906 132.230469 254.625 124.164062 249.269531 116.425781 C 247.46875 113.808594 246.757812 111.085938 246.867188 107.871094 C 247.085938 100.566406 247.03125 93.320312 246.976562 86.015625 C 246.921875 81.820312 246.703125 77.675781 246.539062 73.042969 C 236.816406 73.261719 229.933594 68.574219 223.925781 62.527344 Z M 223.925781 62.527344 "/></g></g><mask id="f80747ffa0"><g filter="url(#fa6ade2147)"><rect x="0" width="375" y="0" height="374.999991" style="fill:#000000;fill-opacity:0.45;stroke:none;"/></g></mask></g><g style="fill:#000000;fill-opacity:1;"><g transform="translate(88.488543, 211.069791)"><path style="stroke:none" d="M 12.6875 -47.34375 L 12.6875 -46.265625 C 12.269531 -45.960938 11.894531 -45.691406 11.5625 -45.453125 C 11.226562 -45.210938 11.0625 -44.820312 11.0625 -44.28125 C 11.0625 -43.738281 11.132812 -43.148438 11.28125 -42.515625 C 11.4375 -41.890625 11.578125 -41.398438 11.703125 -41.046875 L 18.90625 -12.0625 L 19.078125 -12.0625 L 27.265625 -41.125 C 27.390625 -41.601562 27.539062 -42.144531 27.71875 -42.75 C 27.894531 -43.351562 27.984375 -43.921875 27.984375 -44.453125 C 27.984375 -44.753906 27.847656 -45.023438 27.578125 -45.265625 C 27.316406 -45.503906 26.796875 -45.835938 26.015625 -46.265625 L 26.015625 -47.34375 L 36.90625 -47.34375 L 36.90625 -46.265625 C 35.695312 -45.785156 35.09375 -45.273438 35.09375 -44.734375 C 35.09375 -44.492188 35.148438 -44.132812 35.265625 -43.65625 C 35.390625 -43.175781 35.546875 -42.570312 35.734375 -41.84375 L 43.65625 -12.0625 L 43.828125 -12.0625 L 50.84375 -40.6875 C 51.269531 -42.363281 51.523438 -43.394531 51.609375 -43.78125 C 51.703125 -44.175781 51.75 -44.460938 51.75 -44.640625 C 51.75 -45.296875 51.300781 -45.835938 50.40625 -46.265625 L 50.40625 -47.34375 L 58.859375 -47.34375 L 58.859375 -45.984375 C 58.140625 -45.742188 57.644531 -45.128906 57.375 -44.140625 C 57.101562 -43.148438 56.816406 -42.144531 56.515625 -41.125 L 48.328125 -8.8125 C 47.847656 -6.894531 47.503906 -5.546875 47.296875 -4.765625 C 47.085938 -3.984375 46.984375 -3.382812 46.984375 -2.96875 C 46.984375 -2.3125 47.429688 -1.679688 48.328125 -1.078125 L 48.328125 0 L 38.34375 0 L 38.34375 -1.078125 C 39.300781 -1.378906 39.78125 -1.921875 39.78125 -2.703125 C 39.78125 -3.179688 39.675781 -3.851562 39.46875 -4.71875 C 39.257812 -5.59375 39.0625 -6.359375 38.875 -7.015625 L 31.234375 -35.640625 L 31.046875 -35.640625 L 23.046875 -6.65625 C 22.859375 -6.0625 22.675781 -5.390625 22.5 -4.640625 C 22.320312 -3.890625 22.234375 -3.332031 22.234375 -2.96875 C 22.234375 -2.125 22.890625 -1.492188 24.203125 -1.078125 L 24.203125 0 L 13.140625 0 L 13.140625 -1.078125 C 13.617188 -1.441406 13.976562 -1.742188 14.21875 -1.984375 C 14.457031 -2.222656 14.578125 -2.519531 14.578125 -2.875 C 14.578125 -3.65625 14.304688 -5.128906 13.765625 -7.296875 L 4.765625 -43.296875 C 4.585938 -44.128906 4.394531 -44.722656 4.1875 -45.078125 C 3.976562 -45.441406 3.484375 -45.742188 2.703125 -45.984375 L 2.703125 -47.34375 Z M 12.6875 -47.34375 "/></g></g><g style="fill:#000000;fill-opacity:1;"><g transform="translate(146.890864, 211.069791)"><path style="stroke:none" d="M 13.6875 -15.125 L 26.1875 -15.125 L 20.15625 -35.640625 L 19.984375 -35.640625 Z M 25.828125 -39.59375 L 25.828125 -38.515625 C 25.347656 -38.335938 25.109375 -37.828125 25.109375 -36.984375 C 25.109375 -36.628906 25.179688 -36.222656 25.328125 -35.765625 C 25.484375 -35.316406 25.710938 -34.582031 26.015625 -33.5625 L 35.546875 -3.234375 C 35.910156 -2.035156 36.539062 -1.316406 37.4375 -1.078125 L 37.4375 0 L 29.15625 0 L 29.15625 -1.078125 C 29.457031 -1.140625 29.695312 -1.304688 29.875 -1.578125 C 30.0625 -1.847656 30.15625 -2.132812 30.15625 -2.4375 C 30.15625 -2.613281 30.09375 -2.894531 29.96875 -3.28125 C 29.851562 -3.675781 29.703125 -4.203125 29.515625 -4.859375 L 27.625 -10.796875 L 12.15625 -10.796875 L 10.53125 -5.484375 C 10.226562 -4.585938 10.015625 -3.882812 9.890625 -3.375 C 9.773438 -2.863281 9.71875 -2.457031 9.71875 -2.15625 C 9.71875 -1.5625 10.109375 -1.203125 10.890625 -1.078125 L 10.890625 0 L 2.515625 0 L 2.515625 -1.078125 C 3.234375 -1.253906 3.757812 -1.566406 4.09375 -2.015625 C 4.425781 -2.472656 4.832031 -3.421875 5.3125 -4.859375 L 14.578125 -33.484375 C 15.054688 -34.859375 15.335938 -35.738281 15.421875 -36.125 C 15.515625 -36.519531 15.5625 -36.804688 15.5625 -36.984375 C 15.5625 -37.648438 15.203125 -38.160156 14.484375 -38.515625 L 14.484375 -39.59375 Z M 25.828125 -39.59375 "/></g></g><g style="fill:#000000;fill-opacity:1;"><g transform="translate(186.845665, 211.069791)"><path style="stroke:none" d="M 14.84375 -39.59375 L 14.84375 -38.515625 C 14.1875 -38.398438 13.753906 -38.085938 13.546875 -37.578125 C 13.335938 -37.066406 13.234375 -36.300781 13.234375 -35.28125 L 13.234375 -4.6875 L 30.515625 -4.6875 C 31.171875 -4.6875 31.722656 -4.757812 32.171875 -4.90625 C 32.617188 -5.050781 32.90625 -5.457031 33.03125 -6.125 L 34.109375 -6.125 L 34.109375 1.625 L 33.03125 1.625 C 32.90625 0.90625 32.648438 0.453125 32.265625 0.265625 C 31.878906 0.0859375 31.296875 0 30.515625 0 L 6.03125 0 L 6.03125 -1.078125 C 6.6875 -1.203125 7.117188 -1.503906 7.328125 -1.984375 C 7.546875 -2.460938 7.65625 -3.210938 7.65625 -4.234375 L 7.65625 -35.375 C 7.65625 -36.394531 7.546875 -37.144531 7.328125 -37.625 C 7.117188 -38.101562 6.6875 -38.398438 6.03125 -38.515625 L 6.03125 -39.59375 Z M 14.84375 -39.59375 "/></g></g><g style="fill:#000000;fill-opacity:1;"><g transform="translate(221.851102, 211.069791)"><path style="stroke:none" d="M 15.125 -39.59375 L 15.125 -38.515625 C 14.28125 -38.398438 13.753906 -38.070312 13.546875 -37.53125 C 13.335938 -36.988281 13.234375 -36.207031 13.234375 -35.1875 L 13.234375 -21.0625 L 26.28125 -35.640625 C 26.632812 -36.054688 26.929688 -36.414062 27.171875 -36.71875 C 27.421875 -37.019531 27.546875 -37.289062 27.546875 -37.53125 C 27.546875 -38.132812 27.125 -38.460938 26.28125 -38.515625 L 26.28125 -39.59375 L 37.078125 -39.59375 L 37.078125 -38.34375 L 36.8125 -38.34375 C 35.789062 -38.34375 34.890625 -37.890625 34.109375 -36.984375 L 22.140625 -23.578125 L 34.5625 -3.875 C 35.101562 -2.96875 35.597656 -2.304688 36.046875 -1.890625 C 36.492188 -1.472656 37.226562 -1.203125 38.25 -1.078125 L 38.25 0 L 28.171875 0 L 28.171875 -1.078125 C 28.953125 -1.203125 29.34375 -1.5625 29.34375 -2.15625 C 29.34375 -2.457031 29.175781 -2.878906 28.84375 -3.421875 C 28.507812 -3.960938 28.101562 -4.59375 27.625 -5.3125 L 18.265625 -19.625 L 13.234375 -14.046875 L 13.234375 -4.40625 C 13.234375 -3.269531 13.351562 -2.460938 13.59375 -1.984375 C 13.832031 -1.503906 14.3125 -1.203125 15.03125 -1.078125 L 15.03125 0 L 5.9375 0 L 5.9375 -1.078125 C 6.65625 -1.203125 7.117188 -1.53125 7.328125 -2.0625 C 7.546875 -2.601562 7.65625 -3.382812 7.65625 -4.40625 L 7.65625 -35.1875 C 7.65625 -36.207031 7.546875 -36.988281 7.328125 -37.53125 C 7.117188 -38.070312 6.65625 -38.398438 5.9375 -38.515625 L 5.9375 -39.59375 Z M 15.125 -39.59375 "/></g></g><g style="fill:#000000;fill-opacity:1;"><g transform="translate(261.805903, 211.069791)"><path style="stroke:none" d="M 34.46875 -33.125 L 33.390625 -33.125 C 33.265625 -33.957031 32.992188 -34.523438 32.578125 -34.828125 C 32.160156 -35.128906 31.59375 -35.28125 30.875 -35.28125 L 14.40625 -35.28125 L 14.40625 -22.3125 L 25.015625 -22.3125 C 25.796875 -22.3125 26.378906 -22.476562 26.765625 -22.8125 C 27.160156 -23.144531 27.421875 -23.757812 27.546875 -24.65625 L 28.625 -24.65625 L 28.625 -15.84375 L 27.546875 -15.84375 C 27.421875 -16.675781 27.144531 -17.242188 26.71875 -17.546875 C 26.300781 -17.847656 25.765625 -18 25.109375 -18 L 14.40625 -18 L 14.40625 -4.3125 L 31.6875 -4.3125 C 32.40625 -4.3125 32.972656 -4.460938 33.390625 -4.765625 C 33.804688 -5.066406 34.078125 -5.695312 34.203125 -6.65625 L 35.28125 -6.65625 L 35.28125 1.625 L 34.203125 1.625 C 34.078125 0.957031 33.757812 0.519531 33.25 0.3125 C 32.738281 0.101562 31.882812 0 30.6875 0 L 7.203125 0 L 7.203125 -1.078125 C 7.859375 -1.203125 8.289062 -1.519531 8.5 -2.03125 C 8.707031 -2.539062 8.8125 -3.300781 8.8125 -4.3125 L 8.8125 -35.28125 C 8.8125 -36.476562 8.691406 -37.285156 8.453125 -37.703125 C 8.210938 -38.128906 7.796875 -38.398438 7.203125 -38.515625 L 7.203125 -39.59375 L 30.59375 -39.59375 C 31.320312 -39.59375 31.9375 -39.695312 32.4375 -39.90625 C 32.945312 -40.125 33.265625 -40.5625 33.390625 -41.21875 L 34.46875 -41.21875 Z M 34.46875 -33.125 "/></g></g><g style="fill:#000000;fill-opacity:1;"><g transform="translate(301.760716, 211.069791)"><path style="stroke:none" d="M 22.765625 -21.78125 C 25.710938 -21.78125 28.007812 -22.347656 29.65625 -23.484375 C 31.300781 -24.628906 32.125 -26.460938 32.125 -28.984375 C 32.125 -31.140625 31.328125 -32.726562 29.734375 -33.75 C 28.148438 -34.769531 25.859375 -35.28125 22.859375 -35.28125 L 14.125 -35.28125 L 14.125 -21.78125 Z M 23.84375 -39.59375 C 25.769531 -39.59375 27.554688 -39.351562 29.203125 -38.875 C 30.859375 -38.394531 32.285156 -37.691406 33.484375 -36.765625 C 34.679688 -35.835938 35.625 -34.664062 36.3125 -33.25 C 37 -31.84375 37.34375 -30.238281 37.34375 -28.4375 C 37.34375 -25.914062 36.59375 -23.695312 35.09375 -21.78125 C 33.59375 -19.863281 31.554688 -18.691406 28.984375 -18.265625 L 36.8125 -3.515625 C 37.289062 -2.609375 37.738281 -1.972656 38.15625 -1.609375 C 38.582031 -1.253906 39.15625 -1.078125 39.875 -1.078125 L 39.875 0 L 29.796875 0 L 29.796875 -1.078125 C 30.148438 -1.140625 30.503906 -1.242188 30.859375 -1.390625 C 31.222656 -1.546875 31.40625 -1.800781 31.40625 -2.15625 C 31.40625 -2.457031 31.316406 -2.800781 31.140625 -3.1875 C 30.960938 -3.582031 30.78125 -3.957031 30.59375 -4.3125 L 23.765625 -17.09375 L 14.125 -17.09375 L 14.125 -4.5 C 14.125 -3.363281 14.242188 -2.539062 14.484375 -2.03125 C 14.722656 -1.519531 15.265625 -1.203125 16.109375 -1.078125 L 16.109375 0 L 6.9375 0 L 6.9375 -1.078125 C 7.59375 -1.203125 8.023438 -1.519531 8.234375 -2.03125 C 8.441406 -2.539062 8.546875 -3.300781 8.546875 -4.3125 L 8.546875 -35.28125 C 8.546875 -36.238281 8.441406 -36.988281 8.234375 -37.53125 C 8.023438 -38.070312 7.59375 -38.398438 6.9375 -38.515625 L 6.9375 -39.59375 Z M 23.84375 -39.59375 "/></g></g><g style="fill:#000000;fill-opacity:1;"><g transform="translate(346.758062, 211.069791)"><path style="stroke:none" d=""/></g></g><g style="fill:#000000;fill-opacity:1;"><g transform="translate(94.678959, 237.520254)"><path style="stroke:none" d="M 0.78125 -16.859375 L 1.140625 -16.859375 C 1.179688 -16.628906 1.273438 -16.476562 1.421875 -16.40625 C 1.566406 -16.34375 1.835938 -16.3125 2.234375 -16.3125 L 11.5 -16.3125 C 11.832031 -16.3125 12.09375 -16.335938 12.28125 -16.390625 C 12.46875 -16.453125 12.578125 -16.609375 12.609375 -16.859375 L 12.984375 -16.859375 L 12.984375 -13.796875 L 12.609375 -13.796875 C 12.578125 -14.023438 12.46875 -14.179688 12.28125 -14.265625 C 12.09375 -14.347656 11.851562 -14.390625 11.5625 -14.390625 L 8.03125 -14.390625 L 8.03125 -1.484375 C 8.03125 -1.054688 8.09375 -0.773438 8.21875 -0.640625 C 8.34375 -0.503906 8.597656 -0.414062 8.984375 -0.375 L 8.984375 0 L 4.78125 0 L 4.78125 -0.375 C 5.164062 -0.414062 5.421875 -0.503906 5.546875 -0.640625 C 5.671875 -0.773438 5.734375 -1.054688 5.734375 -1.484375 L 5.734375 -14.390625 L 2.203125 -14.390625 C 1.910156 -14.390625 1.671875 -14.347656 1.484375 -14.265625 C 1.296875 -14.179688 1.179688 -14.023438 1.140625 -13.796875 L 0.78125 -13.796875 Z M 0.78125 -16.859375 "/></g></g><g style="fill:#000000;fill-opacity:1;"><g transform="translate(108.441245, 237.520254)"><path style="stroke:none" d="M 11.875 -11.40625 L 11.5 -11.40625 C 11.457031 -11.695312 11.363281 -11.894531 11.21875 -12 C 11.070312 -12.101562 10.878906 -12.15625 10.640625 -12.15625 L 4.953125 -12.15625 L 4.953125 -7.6875 L 8.625 -7.6875 C 8.882812 -7.6875 9.082031 -7.742188 9.21875 -7.859375 C 9.351562 -7.972656 9.441406 -8.1875 9.484375 -8.5 L 9.859375 -8.5 L 9.859375 -5.453125 L 9.484375 -5.453125 C 9.441406 -5.742188 9.347656 -5.941406 9.203125 -6.046875 C 9.054688 -6.148438 8.875 -6.203125 8.65625 -6.203125 L 4.953125 -6.203125 L 4.953125 -1.484375 L 10.90625 -1.484375 C 11.15625 -1.484375 11.351562 -1.535156 11.5 -1.640625 C 11.644531 -1.742188 11.738281 -1.960938 11.78125 -2.296875 L 12.15625 -2.296875 L 12.15625 0.5625 L 11.78125 0.5625 C 11.738281 0.332031 11.628906 0.179688 11.453125 0.109375 C 11.273438 0.0351562 10.984375 0 10.578125 0 L 2.484375 0 L 2.484375 -0.375 C 2.710938 -0.414062 2.859375 -0.523438 2.921875 -0.703125 C 2.992188 -0.878906 3.03125 -1.140625 3.03125 -1.484375 L 3.03125 -12.15625 C 3.03125 -12.5625 2.988281 -12.835938 2.90625 -12.984375 C 2.832031 -13.128906 2.691406 -13.222656 2.484375 -13.265625 L 2.484375 -13.640625 L 10.546875 -13.640625 C 10.785156 -13.640625 10.992188 -13.675781 11.171875 -13.75 C 11.347656 -13.820312 11.457031 -13.972656 11.5 -14.203125 L 11.875 -14.203125 Z M 11.875 -11.40625 "/></g></g><g style="fill:#000000;fill-opacity:1;"><g transform="translate(122.203531, 237.520254)"><path style="stroke:none" d="M 5.390625 -13.640625 L 5.390625 -13.265625 C 4.816406 -13.242188 4.53125 -13.097656 4.53125 -12.828125 C 4.53125 -12.671875 4.640625 -12.382812 4.859375 -11.96875 C 4.960938 -11.800781 5.160156 -11.46875 5.453125 -10.96875 C 5.742188 -10.476562 6.179688 -9.734375 6.765625 -8.734375 L 8.765625 -11.9375 C 8.992188 -12.3125 9.109375 -12.578125 9.109375 -12.734375 C 9.109375 -12.898438 9.039062 -13.019531 8.90625 -13.09375 C 8.78125 -13.164062 8.613281 -13.222656 8.40625 -13.265625 L 8.40625 -13.640625 L 12.28125 -13.640625 L 12.28125 -13.265625 C 11.988281 -13.265625 11.738281 -13.203125 11.53125 -13.078125 C 11.320312 -12.953125 11.132812 -12.75 10.96875 -12.46875 L 7.8125 -7.09375 L 11.21875 -1.328125 C 11.570312 -0.753906 11.957031 -0.4375 12.375 -0.375 L 12.375 0 L 8.828125 0 L 8.828125 -0.375 C 9.140625 -0.414062 9.296875 -0.53125 9.296875 -0.71875 C 9.296875 -0.863281 9.257812 -1.003906 9.1875 -1.140625 C 9.113281 -1.285156 9.015625 -1.472656 8.890625 -1.703125 L 6.765625 -5.296875 L 4.5 -1.578125 C 4.3125 -1.285156 4.195312 -1.078125 4.15625 -0.953125 C 4.113281 -0.835938 4.09375 -0.757812 4.09375 -0.71875 C 4.09375 -0.613281 4.140625 -0.539062 4.234375 -0.5 C 4.328125 -0.457031 4.425781 -0.414062 4.53125 -0.375 L 4.53125 0 L 1.359375 0 L 1.359375 -0.375 C 1.691406 -0.414062 1.941406 -0.5625 2.109375 -0.8125 C 2.273438 -1.070312 2.503906 -1.453125 2.796875 -1.953125 L 5.765625 -6.875 L 2.609375 -12.25 C 2.398438 -12.59375 2.210938 -12.832031 2.046875 -12.96875 C 1.878906 -13.101562 1.648438 -13.203125 1.359375 -13.265625 L 1.359375 -13.640625 Z M 5.390625 -13.640625 "/></g></g><g style="fill:#000000;fill-opacity:1;"><g transform="translate(135.965817, 237.520254)"><path style="stroke:none" d="M 4.71875 -5.203125 L 9.015625 -5.203125 L 6.9375 -12.28125 L 6.875 -12.28125 Z M 8.890625 -13.640625 L 8.890625 -13.265625 C 8.734375 -13.203125 8.65625 -13.023438 8.65625 -12.734375 C 8.65625 -12.617188 8.675781 -12.484375 8.71875 -12.328125 C 8.769531 -12.171875 8.847656 -11.914062 8.953125 -11.5625 L 12.25 -1.109375 C 12.375 -0.703125 12.585938 -0.457031 12.890625 -0.375 L 12.890625 0 L 10.046875 0 L 10.046875 -0.375 C 10.148438 -0.394531 10.234375 -0.453125 10.296875 -0.546875 C 10.359375 -0.640625 10.390625 -0.738281 10.390625 -0.84375 C 10.390625 -0.90625 10.367188 -1 10.328125 -1.125 C 10.285156 -1.257812 10.234375 -1.441406 10.171875 -1.671875 L 9.515625 -3.71875 L 4.1875 -3.71875 L 3.625 -1.890625 C 3.519531 -1.578125 3.445312 -1.332031 3.40625 -1.15625 C 3.363281 -0.988281 3.34375 -0.851562 3.34375 -0.75 C 3.34375 -0.539062 3.476562 -0.414062 3.75 -0.375 L 3.75 0 L 0.875 0 L 0.875 -0.375 C 1.113281 -0.4375 1.289062 -0.546875 1.40625 -0.703125 C 1.519531 -0.859375 1.660156 -1.179688 1.828125 -1.671875 L 5.015625 -11.53125 C 5.179688 -12.007812 5.28125 -12.3125 5.3125 -12.4375 C 5.34375 -12.570312 5.359375 -12.671875 5.359375 -12.734375 C 5.359375 -12.960938 5.234375 -13.140625 4.984375 -13.265625 L 4.984375 -13.640625 Z M 8.890625 -13.640625 "/></g></g><g style="fill:#000000;fill-opacity:1;"><g transform="translate(149.728103, 237.520254)"><path style="stroke:none" d="M 6.8125 -13.828125 C 7.582031 -13.828125 8.222656 -13.765625 8.734375 -13.640625 C 9.253906 -13.515625 9.691406 -13.378906 10.046875 -13.234375 C 10.398438 -13.085938 10.625 -13.015625 10.71875 -13.015625 C 10.820312 -13.015625 10.925781 -13.046875 11.03125 -13.109375 C 11.132812 -13.171875 11.226562 -13.234375 11.3125 -13.296875 L 11.5625 -13.140625 L 10.234375 -10.421875 L 9.953125 -10.546875 C 9.972656 -10.617188 9.984375 -10.679688 9.984375 -10.734375 C 9.984375 -10.785156 9.984375 -10.832031 9.984375 -10.875 C 9.984375 -11.101562 9.863281 -11.3125 9.625 -11.5 C 9.382812 -11.6875 9.085938 -11.84375 8.734375 -11.96875 C 8.390625 -12.09375 8.023438 -12.1875 7.640625 -12.25 C 7.253906 -12.3125 6.910156 -12.34375 6.609375 -12.34375 C 5.796875 -12.34375 5.125 -12.144531 4.59375 -11.75 C 4.070312 -11.351562 3.8125 -10.890625 3.8125 -10.359375 C 3.8125 -9.773438 4.03125 -9.320312 4.46875 -9 C 4.914062 -8.6875 5.6875 -8.414062 6.78125 -8.1875 C 7.425781 -8.0625 8.046875 -7.914062 8.640625 -7.75 C 9.242188 -7.582031 9.773438 -7.351562 10.234375 -7.0625 C 10.703125 -6.78125 11.078125 -6.40625 11.359375 -5.9375 C 11.640625 -5.46875 11.78125 -4.851562 11.78125 -4.09375 C 11.78125 -3.382812 11.640625 -2.765625 11.359375 -2.234375 C 11.078125 -1.710938 10.703125 -1.269531 10.234375 -0.90625 C 9.773438 -0.550781 9.242188 -0.28125 8.640625 -0.09375 C 8.046875 0.09375 7.421875 0.1875 6.765625 0.1875 C 6.140625 0.1875 5.570312 0.125 5.0625 0 C 4.5625 -0.125 4.128906 -0.265625 3.765625 -0.421875 C 3.398438 -0.578125 3.109375 -0.71875 2.890625 -0.84375 C 2.679688 -0.976562 2.535156 -1.046875 2.453125 -1.046875 C 2.285156 -1.046875 2.128906 -0.9375 1.984375 -0.71875 L 1.609375 -0.875 L 2.9375 -3.65625 L 3.28125 -3.5 C 3.238281 -3.394531 3.210938 -3.316406 3.203125 -3.265625 C 3.191406 -3.210938 3.1875 -3.164062 3.1875 -3.125 C 3.1875 -2.945312 3.285156 -2.753906 3.484375 -2.546875 C 3.679688 -2.335938 3.941406 -2.140625 4.265625 -1.953125 C 4.585938 -1.765625 4.957031 -1.609375 5.375 -1.484375 C 5.800781 -1.359375 6.253906 -1.296875 6.734375 -1.296875 C 7.097656 -1.296875 7.476562 -1.347656 7.875 -1.453125 C 8.269531 -1.554688 8.617188 -1.71875 8.921875 -1.9375 C 9.234375 -2.15625 9.488281 -2.4375 9.6875 -2.78125 C 9.882812 -3.132812 9.984375 -3.570312 9.984375 -4.09375 C 9.984375 -4.46875 9.894531 -4.78125 9.71875 -5.03125 C 9.539062 -5.289062 9.296875 -5.503906 8.984375 -5.671875 C 8.679688 -5.835938 8.316406 -5.984375 7.890625 -6.109375 C 7.460938 -6.234375 7.003906 -6.347656 6.515625 -6.453125 C 5.953125 -6.578125 5.398438 -6.71875 4.859375 -6.875 C 4.328125 -7.039062 3.847656 -7.265625 3.421875 -7.546875 C 3.003906 -7.828125 2.664062 -8.1875 2.40625 -8.625 C 2.144531 -9.070312 2.015625 -9.648438 2.015625 -10.359375 C 2.015625 -11.429688 2.457031 -12.273438 3.34375 -12.890625 C 4.238281 -13.515625 5.394531 -13.828125 6.8125 -13.828125 Z M 6.8125 -13.828125 "/></g></g><g style="fill:#000000;fill-opacity:1;"><g transform="translate(163.49039, 237.520254)"><path style="stroke:none" d=""/></g></g><g style="fill:#000000;fill-opacity:1;"><g transform="translate(171.239424, 237.520254)"><path style="stroke:none" d="M 7.75 -16.484375 C 8.507812 -16.484375 9.171875 -16.421875 9.734375 -16.296875 C 10.296875 -16.179688 10.769531 -16.050781 11.15625 -15.90625 C 11.550781 -15.757812 11.875 -15.625 12.125 -15.5 C 12.375 -15.375 12.578125 -15.3125 12.734375 -15.3125 C 12.835938 -15.3125 12.914062 -15.328125 12.96875 -15.359375 C 13.019531 -15.390625 13.066406 -15.425781 13.109375 -15.46875 L 13.390625 -15.28125 L 11.8125 -12.375 L 11.5 -12.53125 C 11.5 -13.1875 11.144531 -13.6875 10.4375 -14.03125 C 9.738281 -14.382812 8.863281 -14.5625 7.8125 -14.5625 C 7.3125 -14.5625 6.832031 -14.503906 6.375 -14.390625 C 5.925781 -14.285156 5.53125 -14.125 5.1875 -13.90625 C 4.851562 -13.6875 4.585938 -13.410156 4.390625 -13.078125 C 4.191406 -12.753906 4.09375 -12.375 4.09375 -11.9375 C 4.09375 -11.351562 4.367188 -10.90625 4.921875 -10.59375 C 5.484375 -10.289062 6.289062 -10.003906 7.34375 -9.734375 C 8.21875 -9.523438 9.039062 -9.300781 9.8125 -9.0625 C 10.582031 -8.832031 11.253906 -8.53125 11.828125 -8.15625 C 12.410156 -7.78125 12.875 -7.3125 13.21875 -6.75 C 13.5625 -6.195312 13.734375 -5.507812 13.734375 -4.6875 C 13.734375 -3.15625 13.191406 -1.957031 12.109375 -1.09375 C 11.023438 -0.238281 9.539062 0.1875 7.65625 0.1875 C 6.894531 0.1875 6.144531 0.0859375 5.40625 -0.109375 C 4.675781 -0.304688 3.96875 -0.570312 3.28125 -0.90625 C 3.09375 -0.976562 2.953125 -1.039062 2.859375 -1.09375 C 2.773438 -1.144531 2.671875 -1.171875 2.546875 -1.171875 C 2.316406 -1.171875 2.128906 -1.070312 1.984375 -0.875 L 1.609375 -0.984375 L 3.5625 -4.5 L 3.875 -4.375 C 3.875 -3.5 4.222656 -2.835938 4.921875 -2.390625 C 5.628906 -1.953125 6.601562 -1.734375 7.84375 -1.734375 C 8.300781 -1.734375 8.753906 -1.789062 9.203125 -1.90625 C 9.660156 -2.019531 10.070312 -2.191406 10.4375 -2.421875 C 10.8125 -2.648438 11.113281 -2.9375 11.34375 -3.28125 C 11.570312 -3.632812 11.6875 -4.050781 11.6875 -4.53125 C 11.6875 -4.957031 11.578125 -5.328125 11.359375 -5.640625 C 11.140625 -5.953125 10.835938 -6.222656 10.453125 -6.453125 C 10.078125 -6.691406 9.613281 -6.894531 9.0625 -7.0625 C 8.519531 -7.226562 7.914062 -7.394531 7.25 -7.5625 C 6.550781 -7.75 5.882812 -7.945312 5.25 -8.15625 C 4.625 -8.363281 4.070312 -8.628906 3.59375 -8.953125 C 3.125 -9.285156 2.75 -9.6875 2.46875 -10.15625 C 2.1875 -10.632812 2.046875 -11.21875 2.046875 -11.90625 C 2.046875 -13.351562 2.566406 -14.476562 3.609375 -15.28125 C 4.648438 -16.082031 6.03125 -16.484375 7.75 -16.484375 Z M 7.75 -16.484375 "/></g></g><g style="fill:#000000;fill-opacity:1;"><g transform="translate(186.737493, 237.520254)"><path style="stroke:none" d="M 11.875 -11.40625 L 11.5 -11.40625 C 11.457031 -11.695312 11.363281 -11.894531 11.21875 -12 C 11.070312 -12.101562 10.878906 -12.15625 10.640625 -12.15625 L 4.953125 -12.15625 L 4.953125 -7.6875 L 8.625 -7.6875 C 8.882812 -7.6875 9.082031 -7.742188 9.21875 -7.859375 C 9.351562 -7.972656 9.441406 -8.1875 9.484375 -8.5 L 9.859375 -8.5 L 9.859375 -5.453125 L 9.484375 -5.453125 C 9.441406 -5.742188 9.347656 -5.941406 9.203125 -6.046875 C 9.054688 -6.148438 8.875 -6.203125 8.65625 -6.203125 L 4.953125 -6.203125 L 4.953125 -1.484375 L 10.90625 -1.484375 C 11.15625 -1.484375 11.351562 -1.535156 11.5 -1.640625 C 11.644531 -1.742188 11.738281 -1.960938 11.78125 -2.296875 L 12.15625 -2.296875 L 12.15625 0.5625 L 11.78125 0.5625 C 11.738281 0.332031 11.628906 0.179688 11.453125 0.109375 C 11.273438 0.0351562 10.984375 0 10.578125 0 L 2.484375 0 L 2.484375 -0.375 C 2.710938 -0.414062 2.859375 -0.523438 2.921875 -0.703125 C 2.992188 -0.878906 3.03125 -1.140625 3.03125 -1.484375 L 3.03125 -12.15625 C 3.03125 -12.5625 2.988281 -12.835938 2.90625 -12.984375 C 2.832031 -13.128906 2.691406 -13.222656 2.484375 -13.265625 L 2.484375 -13.640625 L 10.546875 -13.640625 C 10.785156 -13.640625 10.992188 -13.675781 11.171875 -13.75 C 11.347656 -13.820312 11.457031 -13.972656 11.5 -14.203125 L 11.875 -14.203125 Z M 11.875 -11.40625 "/></g></g><g style="fill:#000000;fill-opacity:1;"><g transform="translate(200.499779, 237.520254)"><path style="stroke:none" d="M 7.84375 -7.5 C 8.851562 -7.5 9.640625 -7.695312 10.203125 -8.09375 C 10.773438 -8.488281 11.0625 -9.117188 11.0625 -9.984375 C 11.0625 -10.722656 10.785156 -11.269531 10.234375 -11.625 C 9.691406 -11.976562 8.90625 -12.15625 7.875 -12.15625 L 4.859375 -12.15625 L 4.859375 -7.5 Z M 8.21875 -13.640625 C 8.875 -13.640625 9.484375 -13.554688 10.046875 -13.390625 C 10.617188 -13.222656 11.113281 -12.976562 11.53125 -12.65625 C 11.945312 -12.34375 12.269531 -11.941406 12.5 -11.453125 C 12.738281 -10.960938 12.859375 -10.410156 12.859375 -9.796875 C 12.859375 -8.929688 12.597656 -8.164062 12.078125 -7.5 C 11.566406 -6.84375 10.867188 -6.441406 9.984375 -6.296875 L 12.671875 -1.203125 C 12.835938 -0.898438 12.992188 -0.6875 13.140625 -0.5625 C 13.285156 -0.4375 13.484375 -0.375 13.734375 -0.375 L 13.734375 0 L 10.265625 0 L 10.265625 -0.375 C 10.390625 -0.394531 10.507812 -0.429688 10.625 -0.484375 C 10.75 -0.535156 10.8125 -0.625 10.8125 -0.75 C 10.8125 -0.851562 10.78125 -0.96875 10.71875 -1.09375 C 10.664062 -1.226562 10.609375 -1.359375 10.546875 -1.484375 L 8.1875 -5.890625 L 4.859375 -5.890625 L 4.859375 -1.546875 C 4.859375 -1.160156 4.898438 -0.878906 4.984375 -0.703125 C 5.066406 -0.523438 5.253906 -0.414062 5.546875 -0.375 L 5.546875 0 L 2.390625 0 L 2.390625 -0.375 C 2.617188 -0.414062 2.765625 -0.523438 2.828125 -0.703125 C 2.898438 -0.878906 2.9375 -1.140625 2.9375 -1.484375 L 2.9375 -12.15625 C 2.9375 -12.476562 2.898438 -12.734375 2.828125 -12.921875 C 2.765625 -13.109375 2.617188 -13.222656 2.390625 -13.265625 L 2.390625 -13.640625 Z M 8.21875 -13.640625 "/></g></g><g style="fill:#000000;fill-opacity:1;"><g transform="translate(215.439891, 237.520254)"><path style="stroke:none" d="M 4.03125 -13.640625 L 4.03125 -13.265625 C 3.738281 -13.179688 3.59375 -13.015625 3.59375 -12.765625 C 3.59375 -12.660156 3.613281 -12.539062 3.65625 -12.40625 C 3.695312 -12.28125 3.757812 -12.101562 3.84375 -11.875 L 6.90625 -2.046875 L 6.96875 -2.046875 L 9.515625 -10.84375 C 9.660156 -11.320312 9.769531 -11.6875 9.84375 -11.9375 C 9.914062 -12.1875 9.953125 -12.421875 9.953125 -12.640625 C 9.953125 -12.992188 9.742188 -13.203125 9.328125 -13.265625 L 9.328125 -13.640625 L 12.671875 -13.640625 L 12.671875 -13.265625 C 12.390625 -13.242188 12.171875 -13.1875 12.015625 -13.09375 C 11.859375 -13 11.71875 -12.726562 11.59375 -12.28125 L 8.59375 -1.921875 C 8.507812 -1.628906 8.441406 -1.410156 8.390625 -1.265625 C 8.335938 -1.117188 8.3125 -0.976562 8.3125 -0.84375 C 8.3125 -0.632812 8.425781 -0.476562 8.65625 -0.375 L 8.65625 0 L 5.171875 0 L 5.171875 -0.40625 C 5.316406 -0.445312 5.390625 -0.550781 5.390625 -0.71875 C 5.390625 -0.820312 5.296875 -1.171875 5.109375 -1.765625 L 2.109375 -11.3125 C 2.023438 -11.5625 1.953125 -11.804688 1.890625 -12.046875 C 1.828125 -12.285156 1.785156 -12.425781 1.765625 -12.46875 C 1.660156 -12.75 1.550781 -12.941406 1.4375 -13.046875 C 1.320312 -13.148438 1.15625 -13.222656 0.9375 -13.265625 L 0.9375 -13.640625 Z M 4.03125 -13.640625 "/></g></g><g style="fill:#000000;fill-opacity:1;"><g transform="translate(229.202177, 237.520254)"><path style="stroke:none" d="M 5.828125 -13.640625 L 5.828125 -13.265625 C 5.597656 -13.222656 5.445312 -13.117188 5.375 -12.953125 C 5.300781 -12.785156 5.265625 -12.53125 5.265625 -12.1875 L 5.265625 -1.453125 C 5.265625 -1.109375 5.300781 -0.851562 5.375 -0.6875 C 5.445312 -0.519531 5.597656 -0.414062 5.828125 -0.375 L 5.828125 0 L 2.796875 0 L 2.796875 -0.375 C 3.015625 -0.414062 3.160156 -0.519531 3.234375 -0.6875 C 3.304688 -0.851562 3.34375 -1.109375 3.34375 -1.453125 L 3.34375 -12.1875 C 3.34375 -12.53125 3.304688 -12.785156 3.234375 -12.953125 C 3.160156 -13.117188 3.015625 -13.222656 2.796875 -13.265625 L 2.796875 -13.640625 Z M 5.828125 -13.640625 "/></g></g><g style="fill:#000000;fill-opacity:1;"><g transform="translate(237.819109, 237.520254)"><path style="stroke:none" d="M 7.625 -13.828125 C 8.351562 -13.828125 8.988281 -13.703125 9.53125 -13.453125 C 10.082031 -13.203125 10.601562 -12.875 11.09375 -12.46875 C 11.238281 -12.363281 11.367188 -12.269531 11.484375 -12.1875 C 11.597656 -12.101562 11.707031 -12.0625 11.8125 -12.0625 C 11.875 -12.0625 11.9375 -12.082031 12 -12.125 C 12.0625 -12.164062 12.144531 -12.21875 12.25 -12.28125 L 12.46875 -12.125 L 10.9375 -9.765625 L 10.65625 -9.859375 L 10.65625 -10.015625 C 10.65625 -10.390625 10.5625 -10.710938 10.375 -10.984375 C 10.195312 -11.265625 9.96875 -11.507812 9.6875 -11.71875 C 9.40625 -11.925781 9.09375 -12.082031 8.75 -12.1875 C 8.414062 -12.289062 8.082031 -12.34375 7.75 -12.34375 C 6.425781 -12.34375 5.390625 -11.828125 4.640625 -10.796875 C 3.898438 -9.773438 3.53125 -8.445312 3.53125 -6.8125 C 3.53125 -4.976562 3.890625 -3.597656 4.609375 -2.671875 C 5.335938 -1.753906 6.34375 -1.296875 7.625 -1.296875 C 8.039062 -1.296875 8.425781 -1.375 8.78125 -1.53125 C 9.144531 -1.6875 9.46875 -1.875 9.75 -2.09375 C 10.03125 -2.3125 10.25 -2.546875 10.40625 -2.796875 C 10.5625 -3.054688 10.640625 -3.300781 10.640625 -3.53125 C 10.640625 -3.632812 10.628906 -3.726562 10.609375 -3.8125 L 10.875 -3.90625 L 12.671875 -1.609375 L 12.46875 -1.453125 C 12.425781 -1.492188 12.375 -1.523438 12.3125 -1.546875 C 12.25 -1.566406 12.164062 -1.578125 12.0625 -1.578125 C 11.9375 -1.578125 11.804688 -1.539062 11.671875 -1.46875 C 11.535156 -1.394531 11.351562 -1.273438 11.125 -1.109375 C 10.675781 -0.785156 10.1875 -0.488281 9.65625 -0.21875 C 9.125 0.0507812 8.445312 0.1875 7.625 0.1875 C 5.726562 0.1875 4.25 -0.40625 3.1875 -1.59375 C 2.132812 -2.78125 1.609375 -4.519531 1.609375 -6.8125 C 1.609375 -7.75 1.738281 -8.632812 2 -9.46875 C 2.257812 -10.300781 2.640625 -11.039062 3.140625 -11.6875 C 3.648438 -12.34375 4.273438 -12.863281 5.015625 -13.25 C 5.765625 -13.632812 6.632812 -13.828125 7.625 -13.828125 Z M 7.625 -13.828125 "/></g></g><g style="fill:#000000;fill-opacity:1;"><g transform="translate(251.581395, 237.520254)"><path style="stroke:none" d="M 11.875 -11.40625 L 11.5 -11.40625 C 11.457031 -11.695312 11.363281 -11.894531 11.21875 -12 C 11.070312 -12.101562 10.878906 -12.15625 10.640625 -12.15625 L 4.953125 -12.15625 L 4.953125 -7.6875 L 8.625 -7.6875 C 8.882812 -7.6875 9.082031 -7.742188 9.21875 -7.859375 C 9.351562 -7.972656 9.441406 -8.1875 9.484375 -8.5 L 9.859375 -8.5 L 9.859375 -5.453125 L 9.484375 -5.453125 C 9.441406 -5.742188 9.347656 -5.941406 9.203125 -6.046875 C 9.054688 -6.148438 8.875 -6.203125 8.65625 -6.203125 L 4.953125 -6.203125 L 4.953125 -1.484375 L 10.90625 -1.484375 C 11.15625 -1.484375 11.351562 -1.535156 11.5 -1.640625 C 11.644531 -1.742188 11.738281 -1.960938 11.78125 -2.296875 L 12.15625 -2.296875 L 12.15625 0.5625 L 11.78125 0.5625 C 11.738281 0.332031 11.628906 0.179688 11.453125 0.109375 C 11.273438 0.0351562 10.984375 0 10.578125 0 L 2.484375 0 L 2.484375 -0.375 C 2.710938 -0.414062 2.859375 -0.523438 2.921875 -0.703125 C 2.992188 -0.878906 3.03125 -1.140625 3.03125 -1.484375 L 3.03125 -12.15625 C 3.03125 -12.5625 2.988281 -12.835938 2.90625 -12.984375 C 2.832031 -13.128906 2.691406 -13.222656 2.484375 -13.265625 L 2.484375 -13.640625 L 10.546875 -13.640625 C 10.785156 -13.640625 10.992188 -13.675781 11.171875 -13.75 C 11.347656 -13.820312 11.457031 -13.972656 11.5 -14.203125 L 11.875 -14.203125 Z M 11.875 -11.40625 "/></g></g><g style="fill:#000000;fill-opacity:1;"><g transform="translate(265.343681, 237.520254)"><path style="stroke:none" d="M 6.8125 -13.828125 C 7.582031 -13.828125 8.222656 -13.765625 8.734375 -13.640625 C 9.253906 -13.515625 9.691406 -13.378906 10.046875 -13.234375 C 10.398438 -13.085938 10.625 -13.015625 10.71875 -13.015625 C 10.820312 -13.015625 10.925781 -13.046875 11.03125 -13.109375 C 11.132812 -13.171875 11.226562 -13.234375 11.3125 -13.296875 L 11.5625 -13.140625 L 10.234375 -10.421875 L 9.953125 -10.546875 C 9.972656 -10.617188 9.984375 -10.679688 9.984375 -10.734375 C 9.984375 -10.785156 9.984375 -10.832031 9.984375 -10.875 C 9.984375 -11.101562 9.863281 -11.3125 9.625 -11.5 C 9.382812 -11.6875 9.085938 -11.84375 8.734375 -11.96875 C 8.390625 -12.09375 8.023438 -12.1875 7.640625 -12.25 C 7.253906 -12.3125 6.910156 -12.34375 6.609375 -12.34375 C 5.796875 -12.34375 5.125 -12.144531 4.59375 -11.75 C 4.070312 -11.351562 3.8125 -10.890625 3.8125 -10.359375 C 3.8125 -9.773438 4.03125 -9.320312 4.46875 -9 C 4.914062 -8.6875 5.6875 -8.414062 6.78125 -8.1875 C 7.425781 -8.0625 8.046875 -7.914062 8.640625 -7.75 C 9.242188 -7.582031 9.773438 -7.351562 10.234375 -7.0625 C 10.703125 -6.78125 11.078125 -6.40625 11.359375 -5.9375 C 11.640625 -5.46875 11.78125 -4.851562 11.78125 -4.09375 C 11.78125 -3.382812 11.640625 -2.765625 11.359375 -2.234375 C 11.078125 -1.710938 10.703125 -1.269531 10.234375 -0.90625 C 9.773438 -0.550781 9.242188 -0.28125 8.640625 -0.09375 C 8.046875 0.09375 7.421875 0.1875 6.765625 0.1875 C 6.140625 0.1875 5.570312 0.125 5.0625 0 C 4.5625 -0.125 4.128906 -0.265625 3.765625 -0.421875 C 3.398438 -0.578125 3.109375 -0.71875 2.890625 -0.84375 C 2.679688 -0.976562 2.535156 -1.046875 2.453125 -1.046875 C 2.285156 -1.046875 2.128906 -0.9375 1.984375 -0.71875 L 1.609375 -0.875 L 2.9375 -3.65625 L 3.28125 -3.5 C 3.238281 -3.394531 3.210938 -3.316406 3.203125 -3.265625 C 3.191406 -3.210938 3.1875 -3.164062 3.1875 -3.125 C 3.1875 -2.945312 3.285156 -2.753906 3.484375 -2.546875 C 3.679688 -2.335938 3.941406 -2.140625 4.265625 -1.953125 C 4.585938 -1.765625 4.957031 -1.609375 5.375 -1.484375 C 5.800781 -1.359375 6.253906 -1.296875 6.734375 -1.296875 C 7.097656 -1.296875 7.476562 -1.347656 7.875 -1.453125 C 8.269531 -1.554688 8.617188 -1.71875 8.921875 -1.9375 C 9.234375 -2.15625 9.488281 -2.4375 9.6875 -2.78125 C 9.882812 -3.132812 9.984375 -3.570312 9.984375 -4.09375 C 9.984375 -4.46875 9.894531 -4.78125 9.71875 -5.03125 C 9.539062 -5.289062 9.296875 -5.503906 8.984375 -5.671875 C 8.679688 -5.835938 8.316406 -5.984375 7.890625 -6.109375 C 7.460938 -6.234375 7.003906 -6.347656 6.515625 -6.453125 C 5.953125 -6.578125 5.398438 -6.71875 4.859375 -6.875 C 4.328125 -7.039062 3.847656 -7.265625 3.421875 -7.546875 C 3.003906 -7.828125 2.664062 -8.1875 2.40625 -8.625 C 2.144531 -9.070312 2.015625 -9.648438 2.015625 -10.359375 C 2.015625 -11.429688 2.457031 -12.273438 3.34375 -12.890625 C 4.238281 -13.515625 5.394531 -13.828125 6.8125 -13.828125 Z M 6.8125 -13.828125 "/></g></g><g style="fill:#000000;fill-opacity:1;"><g transform="translate(279.105967, 237.520254)"><path style="stroke:none" d="M 3.65625 -2.859375 C 4.34375 -2.859375 4.867188 -2.660156 5.234375 -2.265625 C 5.609375 -1.867188 5.796875 -1.34375 5.796875 -0.6875 C 5.796875 -0.125 5.691406 0.421875 5.484375 0.953125 C 5.273438 1.492188 4.992188 1.976562 4.640625 2.40625 C 4.296875 2.84375 3.890625 3.207031 3.421875 3.5 C 2.960938 3.789062 2.472656 3.96875 1.953125 4.03125 L 1.953125 3.15625 C 2.628906 2.894531 3.191406 2.519531 3.640625 2.03125 C 4.085938 1.539062 4.3125 0.851562 4.3125 -0.03125 C 4.269531 -0.0078125 4.210938 0.0078125 4.140625 0.03125 C 4.066406 0.0507812 3.945312 0.0625 3.78125 0.0625 C 3.613281 0.0625 3.4375 0.0390625 3.25 0 C 3.0625 -0.0390625 2.890625 -0.109375 2.734375 -0.203125 C 2.585938 -0.296875 2.457031 -0.425781 2.34375 -0.59375 C 2.226562 -0.757812 2.171875 -0.960938 2.171875 -1.203125 C 2.171875 -1.640625 2.300781 -2.023438 2.5625 -2.359375 C 2.832031 -2.691406 3.195312 -2.859375 3.65625 -2.859375 Z M 3.65625 -2.859375 "/></g></g><g style="fill:#000000;fill-opacity:1;"><g transform="translate(286.855001, 237.520254)"><path style="stroke:none" d=""/></g></g><g style="fill:#000000;fill-opacity:1;"><g transform="translate(294.604024, 237.520254)"><path style="stroke:none" d="M 5.578125 -16.3125 L 5.578125 -15.9375 C 5.285156 -15.894531 5.101562 -15.78125 5.03125 -15.59375 C 4.957031 -15.40625 4.921875 -15.132812 4.921875 -14.78125 L 4.921875 -1.921875 L 11.8125 -1.921875 C 12.507812 -1.921875 12.890625 -2.140625 12.953125 -2.578125 L 13.328125 -2.578125 L 13.328125 0.5625 L 12.953125 0.5625 C 12.910156 0.332031 12.78125 0.179688 12.5625 0.109375 C 12.351562 0.0351562 12.125 0 11.875 0 L 1.984375 0 L 1.984375 -0.375 C 2.253906 -0.414062 2.429688 -0.519531 2.515625 -0.6875 C 2.597656 -0.851562 2.640625 -1.128906 2.640625 -1.515625 L 2.640625 -14.78125 C 2.640625 -15.132812 2.601562 -15.40625 2.53125 -15.59375 C 2.457031 -15.78125 2.273438 -15.894531 1.984375 -15.9375 L 1.984375 -16.3125 Z M 5.578125 -16.3125 "/></g></g><g style="fill:#000000;fill-opacity:1;"><g transform="translate(308.366321, 237.520254)"><path style="stroke:none" d="M 5.578125 -16.3125 L 5.578125 -15.9375 C 5.285156 -15.894531 5.101562 -15.78125 5.03125 -15.59375 C 4.957031 -15.40625 4.921875 -15.132812 4.921875 -14.78125 L 4.921875 -1.921875 L 11.8125 -1.921875 C 12.507812 -1.921875 12.890625 -2.140625 12.953125 -2.578125 L 13.328125 -2.578125 L 13.328125 0.5625 L 12.953125 0.5625 C 12.910156 0.332031 12.78125 0.179688 12.5625 0.109375 C 12.351562 0.0351562 12.125 0 11.875 0 L 1.984375 0 L 1.984375 -0.375 C 2.253906 -0.414062 2.429688 -0.519531 2.515625 -0.6875 C 2.597656 -0.851562 2.640625 -1.128906 2.640625 -1.515625 L 2.640625 -14.78125 C 2.640625 -15.132812 2.601562 -15.40625 2.53125 -15.59375 C 2.457031 -15.78125 2.273438 -15.894531 1.984375 -15.9375 L 1.984375 -16.3125 Z M 5.578125 -16.3125 "/></g></g><g style="fill:#000000;fill-opacity:1;"><g transform="translate(322.128619, 237.520254)"><path style="stroke:none" d="M 8.21875 -16.484375 C 8.5625 -16.484375 8.941406 -16.457031 9.359375 -16.40625 C 9.773438 -16.363281 10.207031 -16.257812 10.65625 -16.09375 C 11.550781 -15.78125 12.222656 -15.441406 12.671875 -15.078125 C 13.128906 -14.710938 13.421875 -14.53125 13.546875 -14.53125 C 13.609375 -14.53125 13.660156 -14.539062 13.703125 -14.5625 C 13.742188 -14.582031 13.796875 -14.613281 13.859375 -14.65625 L 14.109375 -14.53125 L 12.21875 -11.84375 L 11.90625 -12 C 11.925781 -12.101562 11.941406 -12.1875 11.953125 -12.25 C 11.960938 -12.3125 11.96875 -12.394531 11.96875 -12.5 C 11.96875 -12.695312 11.867188 -12.914062 11.671875 -13.15625 C 11.472656 -13.394531 11.207031 -13.617188 10.875 -13.828125 C 10.550781 -14.035156 10.160156 -14.207031 9.703125 -14.34375 C 9.242188 -14.488281 8.769531 -14.5625 8.28125 -14.5625 C 7.425781 -14.5625 6.691406 -14.378906 6.078125 -14.015625 C 5.472656 -13.660156 4.972656 -13.1875 4.578125 -12.59375 C 4.191406 -12.007812 3.910156 -11.332031 3.734375 -10.5625 C 3.554688 -9.800781 3.46875 -9.007812 3.46875 -8.1875 C 3.46875 -6.03125 3.929688 -4.414062 4.859375 -3.34375 C 5.796875 -2.269531 6.976562 -1.734375 8.40625 -1.734375 C 8.894531 -1.734375 9.367188 -1.816406 9.828125 -1.984375 C 10.285156 -2.148438 10.691406 -2.347656 11.046875 -2.578125 C 11.410156 -2.816406 11.695312 -3.0625 11.90625 -3.3125 C 12.113281 -3.5625 12.21875 -3.78125 12.21875 -3.96875 C 12.21875 -4.070312 12.203125 -4.195312 12.171875 -4.34375 C 12.140625 -4.488281 12.082031 -4.625 12 -4.75 L 12.46875 -4.921875 L 14.5625 -2.015625 L 14.234375 -1.796875 C 14.066406 -1.960938 13.898438 -2.046875 13.734375 -2.046875 C 13.628906 -2.046875 13.503906 -1.984375 13.359375 -1.859375 C 13.210938 -1.734375 13.066406 -1.617188 12.921875 -1.515625 C 12.453125 -1.148438 11.847656 -0.773438 11.109375 -0.390625 C 10.378906 -0.00390625 9.488281 0.1875 8.4375 0.1875 C 7.300781 0.1875 6.28125 -0.015625 5.375 -0.421875 C 4.476562 -0.835938 3.71875 -1.410156 3.09375 -2.140625 C 2.476562 -2.878906 2.003906 -3.757812 1.671875 -4.78125 C 1.335938 -5.8125 1.171875 -6.9375 1.171875 -8.15625 C 1.171875 -9.351562 1.335938 -10.460938 1.671875 -11.484375 C 2.003906 -12.503906 2.472656 -13.382812 3.078125 -14.125 C 3.691406 -14.875 4.429688 -15.453125 5.296875 -15.859375 C 6.171875 -16.273438 7.144531 -16.484375 8.21875 -16.484375 Z M 8.21875 -16.484375 "/></g></g></g></svg>