<svg xmlns="http://www.w3.org/2000/svg" xmlns:xlink="http://www.w3.org/1999/xlink" width="250" zoomAndPan="magnify" viewBox="0 0 187.5 112.499997" height="150" preserveAspectRatio="xMidYMid meet" version="1.2"><defs><clipPath id="b73e235c40"><path d="M 12 0.578125 L 128 0.578125 L 128 111 L 12 111 Z M 12 0.578125 "/></clipPath></defs><g id="9d442238c7"><g clip-rule="nonzero" clip-path="url(#b73e235c40)"><path style=" stroke:none;fill-rule:nonzero;fill:#ffffff;fill-opacity:1;" d="M 48.488281 71.992188 C 47.210938 74.078125 46.226562 75.917969 45 77.613281 C 43.453125 79.75 42.398438 80.070312 40.089844 78.867188 C 36.699219 77.121094 33.039062 75.746094 30.632812 72.578125 C 29.824219 71.523438 28.964844 70.34375 28.695312 69.09375 C 27.734375 64.722656 25.453125 61.480469 21.472656 59.390625 C 18.160156 57.648438 15.753906 54.921875 13.417969 52.125 C 12.707031 51.265625 11.96875 50.378906 12.511719 49.175781 C 13.050781 47.996094 14.203125 48.316406 15.164062 48.316406 C 23.464844 48.292969 31.765625 48.316406 40.039062 48.292969 C 41.023438 48.292969 41.980469 48.195312 43.304688 48.121094 C 43.304688 32.257812 43.304688 16.636719 43.304688 0.945312 C 44.261719 0.773438 44.878906 0.578125 45.492188 0.578125 C 52.957031 0.578125 60.445312 0.601562 67.914062 0.625 C 68.28125 0.625 68.648438 0.601562 69.015625 0.625 C 70.859375 0.75 71.226562 1.066406 71.253906 2.960938 C 71.300781 6.25 71.277344 9.515625 71.253906 12.808594 C 71.253906 14.992188 71.179688 17.179688 71.203125 19.363281 C 71.203125 21.722656 72.210938 23.046875 74.542969 23.585938 C 76.382812 24.003906 78.300781 24.203125 80.167969 24.570312 C 80.828125 24.71875 81.515625 25.035156 82.105469 25.40625 C 82.941406 25.921875 83.703125 26.558594 84.511719 27.148438 C 85.371094 26.632812 86.058594 26.238281 87.042969 25.648438 C 88.125 26.363281 89.398438 27.027344 90.457031 27.984375 C 91.878906 29.261719 93.355469 29.332031 95.023438 28.71875 C 95.613281 28.5 96.203125 28.230469 96.792969 28.007812 C 97.75 27.640625 98.488281 27.859375 99.246094 28.574219 C 100.992188 30.167969 102.488281 30.367188 104.355469 29.113281 C 105.484375 28.351562 106.640625 28.15625 107.941406 28.082031 C 109.070312 28.007812 110.25 27.8125 111.328125 27.417969 C 112.363281 27.050781 113.074219 27.222656 113.785156 27.957031 C 114.351562 28.546875 114.914062 29.1875 115.554688 29.652344 C 117.347656 30.953125 119.285156 31.914062 121.621094 31.617188 C 122.308594 31.542969 123.019531 31.714844 123.976562 31.765625 C 124.050781 32.894531 124.148438 33.851562 124.148438 34.835938 C 124.148438 39.035156 124.171875 43.234375 124.050781 47.410156 C 124 49.496094 124.34375 51.363281 125.621094 53.054688 C 126.164062 53.769531 126.554688 54.628906 126.875 55.488281 C 127.710938 57.671875 128.199219 59.859375 126.949219 62.070312 C 125.671875 64.304688 125.476562 66.710938 125.621094 69.191406 C 125.671875 70 125.597656 70.835938 125.597656 71.648438 C 125.574219 72.703125 125.132812 73.292969 124 73.4375 C 121.9375 73.683594 119.828125 73.855469 117.863281 74.46875 C 116.660156 74.839844 115.628906 75.871094 114.644531 76.777344 C 114.054688 77.320312 113.738281 78.128906 113.292969 78.816406 C 111.183594 82.28125 107.769531 83.972656 104.234375 85.496094 C 101.898438 86.503906 99.566406 87.535156 97.210938 88.515625 C 96.105469 88.984375 95.664062 89.722656 95.464844 90.972656 C 94.976562 93.820312 94.1875 96.644531 93.425781 99.445312 C 92.9375 101.261719 93.328125 102.808594 94.289062 104.355469 C 94.949219 105.414062 95.492188 106.617188 95.761719 107.84375 C 96.179688 109.734375 94.753906 111.085938 93.035156 110.25 C 89.988281 108.726562 86.625 109.21875 83.480469 108.261719 C 80.117188 107.207031 77.613281 105.707031 76.753906 101.976562 C 76.164062 99.445312 74.617188 97.234375 74.003906 94.582031 C 73.488281 92.347656 71.546875 90.382812 70.050781 88.445312 C 68.671875 86.625 67.398438 84.785156 66.609375 82.597656 C 65.0625 78.324219 61.722656 75.429688 58.410156 72.554688 C 58.089844 72.285156 57.574219 72.089844 57.15625 72.089844 C 54.257812 71.964844 51.335938 71.992188 48.488281 71.992188 Z M 112.484375 28.5 C 111.527344 28.769531 110.667969 29.160156 109.808594 29.210938 C 107.867188 29.285156 106.097656 29.605469 104.355469 30.683594 C 102.636719 31.742188 100.550781 31.8125 99.003906 30.339844 C 97.824219 29.210938 96.9375 29.359375 95.636719 29.898438 C 93.378906 30.808594 91.21875 30.609375 89.398438 28.671875 C 88.8125 28.03125 87.953125 27.640625 87.140625 27.097656 C 85.128906 28.84375 83.382812 28.300781 81.6875 26.78125 C 81.246094 26.386719 80.609375 26.066406 80.019531 25.945312 C 78.078125 25.503906 76.113281 25.234375 74.175781 24.765625 C 71.152344 24.054688 69.804688 22.285156 69.804688 19.191406 C 69.828125 14.453125 69.878906 9.710938 69.902344 4.972656 C 69.902344 4.089844 69.828125 3.203125 69.777344 2.148438 C 61.28125 2.148438 53.054688 2.148438 44.484375 2.148438 C 44.484375 3.304688 44.484375 4.285156 44.484375 5.265625 C 44.507812 19.117188 44.558594 32.96875 44.558594 46.84375 C 44.558594 49.519531 44.410156 49.667969 41.832031 49.691406 C 36.183594 49.765625 30.535156 49.839844 24.886719 49.863281 C 21.890625 49.863281 18.871094 49.742188 15.875 49.742188 C 15.210938 49.742188 14.574219 49.960938 13.417969 50.160156 C 15.898438 53.253906 17.960938 56.027344 21.082031 57.699219 C 25.550781 60.105469 28.890625 63.273438 29.75 68.550781 C 30.019531 70.199219 31.050781 71.476562 32.28125 72.652344 C 34.613281 74.960938 37.582031 76.164062 40.382812 77.664062 C 42.226562 78.644531 43.160156 78.351562 44.3125 76.605469 C 45.222656 75.257812 46.105469 73.832031 46.671875 72.308594 C 47.160156 71.007812 47.875 70.664062 49.101562 70.6875 C 51.828125 70.738281 54.578125 70.714844 57.304688 70.8125 C 57.992188 70.835938 58.800781 71.058594 59.292969 71.5 C 62.804688 74.789062 66.4375 78.007812 68.058594 82.796875 C 68.378906 83.730469 68.871094 84.636719 69.410156 85.449219 C 71.007812 87.78125 72.527344 90.164062 74.320312 92.324219 C 76.210938 94.609375 75.082031 98.167969 77.859375 99.984375 C 78.03125 100.085938 78.03125 100.5 78.054688 100.773438 C 78.277344 104.824219 81.125 106.296875 84.488281 107.132812 C 86.257812 107.574219 88.074219 107.746094 89.867188 108.066406 C 91.316406 108.335938 92.738281 108.628906 94.289062 108.925781 C 94.605469 107.179688 93.699219 106.003906 93.082031 104.726562 C 92.566406 103.667969 91.808594 102.515625 91.878906 101.460938 C 92.101562 98.929688 92.714844 96.449219 93.230469 93.96875 C 93.476562 92.71875 94.089844 91.539062 94.164062 90.285156 C 94.261719 88.761719 95.046875 88.027344 96.324219 87.460938 C 99.246094 86.183594 102.070312 84.6875 105.042969 83.582031 C 108.851562 82.183594 111.453125 79.628906 113.464844 76.214844 C 114.546875 74.371094 116.070312 73.09375 118.476562 72.972656 C 120.316406 72.875 122.136719 72.164062 124.296875 71.648438 C 124.296875 70.050781 124.222656 68.527344 124.320312 67.003906 C 124.394531 65.925781 124.445312 64.769531 124.886719 63.835938 C 126.851562 59.90625 126.285156 56.273438 123.878906 52.785156 C 123.070312 51.609375 122.75 50.378906 122.796875 48.929688 C 122.898438 45.640625 122.871094 42.375 122.847656 39.082031 C 122.824219 37.191406 122.726562 35.324219 122.652344 33.238281 C 118.28125 33.335938 115.1875 31.226562 112.484375 28.5 Z M 112.484375 28.5 "/></g><g style="fill:#ffffff;fill-opacity:1;"><g transform="translate(46.334643, 54.511624)"><path style="stroke:none" d="M 5.71875 -21.359375 L 5.71875 -20.875 C 5.53125 -20.738281 5.363281 -20.613281 5.21875 -20.5 C 5.070312 -20.394531 5 -20.222656 5 -19.984375 C 5 -19.734375 5.03125 -19.46875 5.09375 -19.1875 C 5.164062 -18.90625 5.226562 -18.679688 5.28125 -18.515625 L 8.53125 -5.4375 L 8.609375 -5.4375 L 12.296875 -18.5625 C 12.359375 -18.78125 12.425781 -19.023438 12.5 -19.296875 C 12.582031 -19.566406 12.625 -19.820312 12.625 -20.0625 C 12.625 -20.195312 12.5625 -20.316406 12.4375 -20.421875 C 12.320312 -20.535156 12.085938 -20.6875 11.734375 -20.875 L 11.734375 -21.359375 L 16.65625 -21.359375 L 16.65625 -20.875 C 16.113281 -20.65625 15.84375 -20.425781 15.84375 -20.1875 C 15.84375 -20.070312 15.867188 -19.90625 15.921875 -19.6875 C 15.972656 -19.476562 16.039062 -19.210938 16.125 -18.890625 L 19.703125 -5.4375 L 19.78125 -5.4375 L 22.9375 -18.359375 C 23.132812 -19.117188 23.25 -19.582031 23.28125 -19.75 C 23.320312 -19.925781 23.34375 -20.054688 23.34375 -20.140625 C 23.34375 -20.441406 23.140625 -20.6875 22.734375 -20.875 L 22.734375 -21.359375 L 26.5625 -21.359375 L 26.5625 -20.75 C 26.238281 -20.644531 26.015625 -20.367188 25.890625 -19.921875 C 25.765625 -19.472656 25.632812 -19.019531 25.5 -18.5625 L 21.8125 -3.984375 C 21.59375 -3.117188 21.4375 -2.507812 21.34375 -2.15625 C 21.25 -1.800781 21.203125 -1.53125 21.203125 -1.34375 C 21.203125 -1.039062 21.40625 -0.753906 21.8125 -0.484375 L 21.8125 0 L 17.296875 0 L 17.296875 -0.484375 C 17.734375 -0.617188 17.953125 -0.863281 17.953125 -1.21875 C 17.953125 -1.4375 17.90625 -1.738281 17.8125 -2.125 C 17.71875 -2.519531 17.628906 -2.867188 17.546875 -3.171875 L 14.09375 -16.078125 L 14.015625 -16.078125 L 10.390625 -3 C 10.316406 -2.726562 10.238281 -2.421875 10.15625 -2.078125 C 10.070312 -1.742188 10.03125 -1.5 10.03125 -1.34375 C 10.03125 -0.957031 10.328125 -0.671875 10.921875 -0.484375 L 10.921875 0 L 5.921875 0 L 5.921875 -0.484375 C 6.140625 -0.648438 6.300781 -0.785156 6.40625 -0.890625 C 6.519531 -1.003906 6.578125 -1.140625 6.578125 -1.296875 C 6.578125 -1.648438 6.457031 -2.316406 6.21875 -3.296875 L 2.15625 -19.53125 C 2.070312 -19.914062 1.984375 -20.1875 1.890625 -20.34375 C 1.796875 -20.507812 1.570312 -20.644531 1.21875 -20.75 L 1.21875 -21.359375 Z M 5.71875 -21.359375 "/></g></g><g style="fill:#ffffff;fill-opacity:1;"><g transform="translate(72.691366, 54.511624)"><path style="stroke:none" d="M 6.171875 -6.828125 L 11.8125 -6.828125 L 9.09375 -16.078125 L 9.015625 -16.078125 Z M 11.65625 -17.875 L 11.65625 -17.375 C 11.4375 -17.300781 11.328125 -17.070312 11.328125 -16.6875 C 11.328125 -16.53125 11.359375 -16.347656 11.421875 -16.140625 C 11.492188 -15.941406 11.597656 -15.609375 11.734375 -15.140625 L 16.046875 -1.46875 C 16.203125 -0.925781 16.484375 -0.597656 16.890625 -0.484375 L 16.890625 0 L 13.15625 0 L 13.15625 -0.484375 C 13.289062 -0.515625 13.398438 -0.585938 13.484375 -0.703125 C 13.566406 -0.828125 13.609375 -0.957031 13.609375 -1.09375 C 13.609375 -1.175781 13.578125 -1.304688 13.515625 -1.484375 C 13.460938 -1.660156 13.394531 -1.894531 13.3125 -2.1875 L 12.46875 -4.875 L 5.484375 -4.875 L 4.75 -2.484375 C 4.613281 -2.078125 4.519531 -1.753906 4.46875 -1.515625 C 4.414062 -1.285156 4.390625 -1.101562 4.390625 -0.96875 C 4.390625 -0.695312 4.5625 -0.535156 4.90625 -0.484375 L 4.90625 0 L 1.140625 0 L 1.140625 -0.484375 C 1.460938 -0.566406 1.695312 -0.707031 1.84375 -0.90625 C 2 -1.113281 2.179688 -1.539062 2.390625 -2.1875 L 6.578125 -15.109375 C 6.796875 -15.734375 6.925781 -16.128906 6.96875 -16.296875 C 7.007812 -16.472656 7.03125 -16.601562 7.03125 -16.6875 C 7.03125 -16.988281 6.863281 -17.21875 6.53125 -17.375 L 6.53125 -17.875 Z M 11.65625 -17.875 "/></g></g><g style="fill:#ffffff;fill-opacity:1;"><g transform="translate(90.722801, 54.511624)"><path style="stroke:none" d="M 6.703125 -17.875 L 6.703125 -17.375 C 6.398438 -17.320312 6.203125 -17.179688 6.109375 -16.953125 C 6.015625 -16.722656 5.96875 -16.378906 5.96875 -15.921875 L 5.96875 -2.109375 L 13.765625 -2.109375 C 14.066406 -2.109375 14.316406 -2.140625 14.515625 -2.203125 C 14.722656 -2.273438 14.851562 -2.460938 14.90625 -2.765625 L 15.390625 -2.765625 L 15.390625 0.734375 L 14.90625 0.734375 C 14.851562 0.410156 14.738281 0.207031 14.5625 0.125 C 14.382812 0.0390625 14.117188 0 13.765625 0 L 2.71875 0 L 2.71875 -0.484375 C 3.019531 -0.535156 3.21875 -0.671875 3.3125 -0.890625 C 3.40625 -1.109375 3.453125 -1.445312 3.453125 -1.90625 L 3.453125 -15.953125 C 3.453125 -16.421875 3.40625 -16.757812 3.3125 -16.96875 C 3.21875 -17.1875 3.019531 -17.320312 2.71875 -17.375 L 2.71875 -17.875 Z M 6.703125 -17.875 "/></g></g><g style="fill:#ffffff;fill-opacity:1;"><g transform="translate(106.520608, 54.511624)"><path style="stroke:none" d="M 6.828125 -17.875 L 6.828125 -17.375 C 6.441406 -17.320312 6.203125 -17.171875 6.109375 -16.921875 C 6.015625 -16.679688 5.96875 -16.332031 5.96875 -15.875 L 5.96875 -9.5 L 11.859375 -16.078125 C 12.023438 -16.265625 12.160156 -16.425781 12.265625 -16.5625 C 12.367188 -16.695312 12.421875 -16.820312 12.421875 -16.9375 C 12.421875 -17.207031 12.234375 -17.351562 11.859375 -17.375 L 11.859375 -17.875 L 16.734375 -17.875 L 16.734375 -17.296875 L 16.609375 -17.296875 C 16.148438 -17.296875 15.742188 -17.09375 15.390625 -16.6875 L 9.984375 -10.640625 L 15.59375 -1.75 C 15.832031 -1.34375 16.050781 -1.039062 16.25 -0.84375 C 16.457031 -0.65625 16.796875 -0.535156 17.265625 -0.484375 L 17.265625 0 L 12.703125 0 L 12.703125 -0.484375 C 13.054688 -0.535156 13.234375 -0.695312 13.234375 -0.96875 C 13.234375 -1.101562 13.160156 -1.289062 13.015625 -1.53125 C 12.867188 -1.78125 12.6875 -2.066406 12.46875 -2.390625 L 8.25 -8.859375 L 5.96875 -6.328125 L 5.96875 -1.984375 C 5.96875 -1.472656 6.019531 -1.109375 6.125 -0.890625 C 6.238281 -0.671875 6.457031 -0.535156 6.78125 -0.484375 L 6.78125 0 L 2.6875 0 L 2.6875 -0.484375 C 3.007812 -0.535156 3.21875 -0.679688 3.3125 -0.921875 C 3.40625 -1.171875 3.453125 -1.523438 3.453125 -1.984375 L 3.453125 -15.875 C 3.453125 -16.332031 3.40625 -16.679688 3.3125 -16.921875 C 3.21875 -17.171875 3.007812 -17.320312 2.6875 -17.375 L 2.6875 -17.875 Z M 6.828125 -17.875 "/></g></g><g style="fill:#ffffff;fill-opacity:1;"><g transform="translate(124.552043, 54.511624)"><path style="stroke:none" d="M 15.546875 -14.9375 L 15.0625 -14.9375 C 15.007812 -15.320312 14.890625 -15.582031 14.703125 -15.71875 C 14.515625 -15.851562 14.253906 -15.921875 13.921875 -15.921875 L 6.5 -15.921875 L 6.5 -10.078125 L 11.296875 -10.078125 C 11.640625 -10.078125 11.898438 -10.148438 12.078125 -10.296875 C 12.253906 -10.441406 12.367188 -10.71875 12.421875 -11.125 L 12.90625 -11.125 L 12.90625 -7.140625 L 12.421875 -7.140625 C 12.367188 -7.523438 12.25 -7.785156 12.0625 -7.921875 C 11.875 -8.054688 11.628906 -8.125 11.328125 -8.125 L 6.5 -8.125 L 6.5 -1.953125 L 14.296875 -1.953125 C 14.617188 -1.953125 14.875 -2.019531 15.0625 -2.15625 C 15.25 -2.289062 15.375 -2.570312 15.4375 -3 L 15.921875 -3 L 15.921875 0.734375 L 15.4375 0.734375 C 15.375 0.429688 15.226562 0.234375 15 0.140625 C 14.769531 0.046875 14.382812 0 13.84375 0 L 3.25 0 L 3.25 -0.484375 C 3.550781 -0.535156 3.75 -0.675781 3.84375 -0.90625 C 3.9375 -1.144531 3.984375 -1.492188 3.984375 -1.953125 L 3.984375 -15.921875 C 3.984375 -16.460938 3.925781 -16.828125 3.8125 -17.015625 C 3.707031 -17.203125 3.519531 -17.320312 3.25 -17.375 L 3.25 -17.875 L 13.8125 -17.875 C 14.132812 -17.875 14.410156 -17.921875 14.640625 -18.015625 C 14.867188 -18.109375 15.007812 -18.300781 15.0625 -18.59375 L 15.546875 -18.59375 Z M 15.546875 -14.9375 "/></g></g><g style="fill:#ffffff;fill-opacity:1;"><g transform="translate(142.583483, 54.511624)"><path style="stroke:none" d="M 10.28125 -9.828125 C 11.601562 -9.828125 12.632812 -10.082031 13.375 -10.59375 C 14.125 -11.113281 14.5 -11.941406 14.5 -13.078125 C 14.5 -14.046875 14.140625 -14.757812 13.421875 -15.21875 C 12.703125 -15.6875 11.664062 -15.921875 10.3125 -15.921875 L 6.375 -15.921875 L 6.375 -9.828125 Z M 10.765625 -17.875 C 11.628906 -17.875 12.429688 -17.765625 13.171875 -17.546875 C 13.921875 -17.328125 14.566406 -17.003906 15.109375 -16.578125 C 15.648438 -16.160156 16.078125 -15.632812 16.390625 -15 C 16.703125 -14.363281 16.859375 -13.640625 16.859375 -12.828125 C 16.859375 -11.691406 16.519531 -10.691406 15.84375 -9.828125 C 15.164062 -8.960938 14.242188 -8.4375 13.078125 -8.25 L 16.609375 -1.578125 C 16.828125 -1.171875 17.03125 -0.882812 17.21875 -0.71875 C 17.40625 -0.5625 17.660156 -0.484375 17.984375 -0.484375 L 17.984375 0 L 13.4375 0 L 13.4375 -0.484375 C 13.601562 -0.515625 13.765625 -0.5625 13.921875 -0.625 C 14.085938 -0.695312 14.171875 -0.8125 14.171875 -0.96875 C 14.171875 -1.101562 14.128906 -1.257812 14.046875 -1.4375 C 13.960938 -1.613281 13.882812 -1.785156 13.8125 -1.953125 L 10.71875 -7.71875 L 6.375 -7.71875 L 6.375 -2.03125 C 6.375 -1.519531 6.425781 -1.144531 6.53125 -0.90625 C 6.644531 -0.675781 6.890625 -0.535156 7.265625 -0.484375 L 7.265625 0 L 3.125 0 L 3.125 -0.484375 C 3.425781 -0.535156 3.625 -0.675781 3.71875 -0.90625 C 3.8125 -1.144531 3.859375 -1.492188 3.859375 -1.953125 L 3.859375 -15.921875 C 3.859375 -16.347656 3.8125 -16.679688 3.71875 -16.921875 C 3.625 -17.171875 3.425781 -17.320312 3.125 -17.375 L 3.125 -17.875 Z M 10.765625 -17.875 "/></g></g><g style="fill:#ffffff;fill-opacity:1;"><g transform="translate(162.890597, 54.511624)"><path style="stroke:none" d=""/></g></g><g style="fill:#ffffff;fill-opacity:1;"><g transform="translate(49.128352, 66.448612)"><path style="stroke:none" d="M 0.34375 -7.609375 L 0.515625 -7.609375 C 0.535156 -7.503906 0.578125 -7.4375 0.640625 -7.40625 C 0.703125 -7.375 0.820312 -7.359375 1 -7.359375 L 5.1875 -7.359375 C 5.332031 -7.359375 5.445312 -7.367188 5.53125 -7.390625 C 5.613281 -7.421875 5.664062 -7.492188 5.6875 -7.609375 L 5.859375 -7.609375 L 5.859375 -6.21875 L 5.6875 -6.21875 C 5.664062 -6.320312 5.613281 -6.390625 5.53125 -6.421875 C 5.445312 -6.460938 5.34375 -6.484375 5.21875 -6.484375 L 3.625 -6.484375 L 3.625 -0.671875 C 3.625 -0.472656 3.648438 -0.34375 3.703125 -0.28125 C 3.765625 -0.226562 3.882812 -0.191406 4.0625 -0.171875 L 4.0625 0 L 2.15625 0 L 2.15625 -0.171875 C 2.332031 -0.191406 2.445312 -0.226562 2.5 -0.28125 C 2.5625 -0.34375 2.59375 -0.472656 2.59375 -0.671875 L 2.59375 -6.484375 L 1 -6.484375 C 0.863281 -6.484375 0.753906 -6.460938 0.671875 -6.421875 C 0.585938 -6.390625 0.535156 -6.320312 0.515625 -6.21875 L 0.34375 -6.21875 Z M 0.34375 -7.609375 "/></g></g><g style="fill:#ffffff;fill-opacity:1;"><g transform="translate(55.339214, 66.448612)"><path style="stroke:none" d="M 5.359375 -5.140625 L 5.1875 -5.140625 C 5.164062 -5.273438 5.125 -5.363281 5.0625 -5.40625 C 5 -5.457031 4.910156 -5.484375 4.796875 -5.484375 L 2.234375 -5.484375 L 2.234375 -3.46875 L 3.890625 -3.46875 C 4.003906 -3.46875 4.09375 -3.492188 4.15625 -3.546875 C 4.21875 -3.597656 4.257812 -3.691406 4.28125 -3.828125 L 4.453125 -3.828125 L 4.453125 -2.46875 L 4.28125 -2.46875 C 4.257812 -2.59375 4.21875 -2.675781 4.15625 -2.71875 C 4.09375 -2.769531 4.007812 -2.796875 3.90625 -2.796875 L 2.234375 -2.796875 L 2.234375 -0.671875 L 4.921875 -0.671875 C 5.035156 -0.671875 5.125 -0.691406 5.1875 -0.734375 C 5.25 -0.785156 5.289062 -0.882812 5.3125 -1.03125 L 5.484375 -1.03125 L 5.484375 0.25 L 5.3125 0.25 C 5.289062 0.144531 5.238281 0.078125 5.15625 0.046875 C 5.082031 0.015625 4.953125 0 4.765625 0 L 1.125 0 L 1.125 -0.171875 C 1.21875 -0.191406 1.28125 -0.238281 1.3125 -0.3125 C 1.351562 -0.394531 1.375 -0.515625 1.375 -0.671875 L 1.375 -5.484375 C 1.375 -5.671875 1.351562 -5.796875 1.3125 -5.859375 C 1.28125 -5.921875 1.21875 -5.960938 1.125 -5.984375 L 1.125 -6.15625 L 4.75 -6.15625 C 4.863281 -6.15625 4.957031 -6.171875 5.03125 -6.203125 C 5.113281 -6.234375 5.164062 -6.300781 5.1875 -6.40625 L 5.359375 -6.40625 Z M 5.359375 -5.140625 "/></g></g><g style="fill:#ffffff;fill-opacity:1;"><g transform="translate(61.550076, 66.448612)"><path style="stroke:none" d="M 2.4375 -6.15625 L 2.4375 -5.984375 C 2.175781 -5.972656 2.046875 -5.910156 2.046875 -5.796875 C 2.046875 -5.710938 2.097656 -5.578125 2.203125 -5.390625 C 2.242188 -5.316406 2.328125 -5.164062 2.453125 -4.9375 C 2.585938 -4.71875 2.785156 -4.382812 3.046875 -3.9375 L 3.953125 -5.390625 C 4.054688 -5.554688 4.109375 -5.675781 4.109375 -5.75 C 4.109375 -5.820312 4.078125 -5.875 4.015625 -5.90625 C 3.953125 -5.9375 3.878906 -5.960938 3.796875 -5.984375 L 3.796875 -6.15625 L 5.53125 -6.15625 L 5.53125 -5.984375 C 5.40625 -5.984375 5.296875 -5.953125 5.203125 -5.890625 C 5.109375 -5.835938 5.023438 -5.75 4.953125 -5.625 L 3.53125 -3.203125 L 5.0625 -0.59375 C 5.21875 -0.332031 5.390625 -0.191406 5.578125 -0.171875 L 5.578125 0 L 3.984375 0 L 3.984375 -0.171875 C 4.128906 -0.191406 4.203125 -0.242188 4.203125 -0.328125 C 4.203125 -0.390625 4.179688 -0.453125 4.140625 -0.515625 C 4.109375 -0.578125 4.066406 -0.660156 4.015625 -0.765625 L 3.046875 -2.390625 L 2.03125 -0.71875 C 1.945312 -0.582031 1.894531 -0.484375 1.875 -0.421875 C 1.851562 -0.367188 1.84375 -0.335938 1.84375 -0.328125 C 1.84375 -0.273438 1.863281 -0.238281 1.90625 -0.21875 C 1.945312 -0.207031 1.992188 -0.191406 2.046875 -0.171875 L 2.046875 0 L 0.609375 0 L 0.609375 -0.171875 C 0.765625 -0.191406 0.878906 -0.257812 0.953125 -0.375 C 1.023438 -0.488281 1.128906 -0.65625 1.265625 -0.875 L 2.59375 -3.109375 L 1.171875 -5.53125 C 1.078125 -5.6875 0.992188 -5.789062 0.921875 -5.84375 C 0.847656 -5.90625 0.742188 -5.953125 0.609375 -5.984375 L 0.609375 -6.15625 Z M 2.4375 -6.15625 "/></g></g><g style="fill:#ffffff;fill-opacity:1;"><g transform="translate(67.760939, 66.448612)"><path style="stroke:none" d="M 2.125 -2.34375 L 4.0625 -2.34375 L 3.125 -5.53125 L 3.109375 -5.53125 Z M 4.015625 -6.15625 L 4.015625 -5.984375 C 3.941406 -5.953125 3.90625 -5.875 3.90625 -5.75 C 3.90625 -5.6875 3.914062 -5.617188 3.9375 -5.546875 C 3.957031 -5.484375 3.992188 -5.375 4.046875 -5.21875 L 5.53125 -0.5 C 5.582031 -0.3125 5.675781 -0.203125 5.8125 -0.171875 L 5.8125 0 L 4.53125 0 L 4.53125 -0.171875 C 4.570312 -0.179688 4.609375 -0.207031 4.640625 -0.25 C 4.671875 -0.289062 4.6875 -0.332031 4.6875 -0.375 C 4.6875 -0.40625 4.675781 -0.445312 4.65625 -0.5 C 4.632812 -0.5625 4.613281 -0.644531 4.59375 -0.75 L 4.296875 -1.671875 L 1.890625 -1.671875 L 1.640625 -0.859375 C 1.585938 -0.710938 1.550781 -0.597656 1.53125 -0.515625 C 1.519531 -0.441406 1.515625 -0.378906 1.515625 -0.328125 C 1.515625 -0.242188 1.570312 -0.191406 1.6875 -0.171875 L 1.6875 0 L 0.390625 0 L 0.390625 -0.171875 C 0.503906 -0.191406 0.585938 -0.238281 0.640625 -0.3125 C 0.691406 -0.382812 0.753906 -0.53125 0.828125 -0.75 L 2.265625 -5.203125 C 2.335938 -5.421875 2.378906 -5.554688 2.390625 -5.609375 C 2.410156 -5.671875 2.421875 -5.71875 2.421875 -5.75 C 2.421875 -5.851562 2.363281 -5.929688 2.25 -5.984375 L 2.25 -6.15625 Z M 4.015625 -6.15625 "/></g></g><g style="fill:#ffffff;fill-opacity:1;"><g transform="translate(73.971801, 66.448612)"><path style="stroke:none" d="M 3.078125 -6.234375 C 3.421875 -6.234375 3.707031 -6.203125 3.9375 -6.140625 C 4.175781 -6.085938 4.375 -6.03125 4.53125 -5.96875 C 4.6875 -5.90625 4.789062 -5.875 4.84375 -5.875 C 4.882812 -5.875 4.925781 -5.882812 4.96875 -5.90625 C 5.019531 -5.9375 5.066406 -5.96875 5.109375 -6 L 5.21875 -5.921875 L 4.609375 -4.703125 L 4.484375 -4.75 C 4.492188 -4.789062 4.5 -4.820312 4.5 -4.84375 C 4.5 -4.863281 4.5 -4.882812 4.5 -4.90625 C 4.5 -5.007812 4.445312 -5.101562 4.34375 -5.1875 C 4.238281 -5.269531 4.101562 -5.335938 3.9375 -5.390625 C 3.78125 -5.453125 3.613281 -5.492188 3.4375 -5.515625 C 3.269531 -5.546875 3.117188 -5.5625 2.984375 -5.5625 C 2.617188 -5.5625 2.316406 -5.472656 2.078125 -5.296875 C 1.835938 -5.117188 1.71875 -4.910156 1.71875 -4.671875 C 1.71875 -4.410156 1.816406 -4.207031 2.015625 -4.0625 C 2.222656 -3.914062 2.570312 -3.789062 3.0625 -3.6875 C 3.351562 -3.632812 3.632812 -3.570312 3.90625 -3.5 C 4.175781 -3.425781 4.414062 -3.320312 4.625 -3.1875 C 4.832031 -3.0625 5 -2.890625 5.125 -2.671875 C 5.25 -2.460938 5.3125 -2.1875 5.3125 -1.84375 C 5.3125 -1.53125 5.25 -1.253906 5.125 -1.015625 C 5 -0.773438 4.832031 -0.570312 4.625 -0.40625 C 4.414062 -0.25 4.175781 -0.128906 3.90625 -0.046875 C 3.632812 0.0351562 3.347656 0.078125 3.046875 0.078125 C 2.765625 0.078125 2.507812 0.0507812 2.28125 0 C 2.050781 -0.0507812 1.851562 -0.113281 1.6875 -0.1875 C 1.53125 -0.257812 1.398438 -0.320312 1.296875 -0.375 C 1.203125 -0.4375 1.140625 -0.46875 1.109375 -0.46875 C 1.035156 -0.46875 0.960938 -0.421875 0.890625 -0.328125 L 0.734375 -0.390625 L 1.328125 -1.65625 L 1.484375 -1.578125 C 1.460938 -1.535156 1.445312 -1.5 1.4375 -1.46875 C 1.4375 -1.445312 1.4375 -1.425781 1.4375 -1.40625 C 1.4375 -1.320312 1.476562 -1.234375 1.5625 -1.140625 C 1.65625 -1.046875 1.773438 -0.957031 1.921875 -0.875 C 2.066406 -0.789062 2.234375 -0.722656 2.421875 -0.671875 C 2.617188 -0.617188 2.820312 -0.59375 3.03125 -0.59375 C 3.195312 -0.59375 3.367188 -0.613281 3.546875 -0.65625 C 3.722656 -0.707031 3.878906 -0.78125 4.015625 -0.875 C 4.160156 -0.96875 4.273438 -1.09375 4.359375 -1.25 C 4.453125 -1.414062 4.5 -1.613281 4.5 -1.84375 C 4.5 -2.007812 4.457031 -2.148438 4.375 -2.265625 C 4.300781 -2.390625 4.191406 -2.488281 4.046875 -2.5625 C 3.910156 -2.632812 3.742188 -2.695312 3.546875 -2.75 C 3.359375 -2.8125 3.15625 -2.863281 2.9375 -2.90625 C 2.6875 -2.96875 2.4375 -3.035156 2.1875 -3.109375 C 1.945312 -3.179688 1.734375 -3.28125 1.546875 -3.40625 C 1.359375 -3.53125 1.203125 -3.691406 1.078125 -3.890625 C 0.960938 -4.097656 0.90625 -4.359375 0.90625 -4.671875 C 0.90625 -5.148438 1.101562 -5.53125 1.5 -5.8125 C 1.90625 -6.09375 2.429688 -6.234375 3.078125 -6.234375 Z M 3.078125 -6.234375 "/></g></g><g style="fill:#ffffff;fill-opacity:1;"><g transform="translate(80.182663, 66.448612)"><path style="stroke:none" d=""/></g></g><g style="fill:#ffffff;fill-opacity:1;"><g transform="translate(83.67977, 66.448612)"><path style="stroke:none" d="M 3.5 -7.4375 C 3.84375 -7.4375 4.140625 -7.40625 4.390625 -7.34375 C 4.640625 -7.289062 4.851562 -7.234375 5.03125 -7.171875 C 5.207031 -7.109375 5.351562 -7.046875 5.46875 -6.984375 C 5.582031 -6.929688 5.675781 -6.90625 5.75 -6.90625 C 5.789062 -6.90625 5.820312 -6.910156 5.84375 -6.921875 C 5.875 -6.941406 5.898438 -6.960938 5.921875 -6.984375 L 6.046875 -6.890625 L 5.328125 -5.578125 L 5.1875 -5.65625 C 5.1875 -5.945312 5.023438 -6.171875 4.703125 -6.328125 C 4.390625 -6.492188 4 -6.578125 3.53125 -6.578125 C 3.300781 -6.578125 3.082031 -6.550781 2.875 -6.5 C 2.675781 -6.445312 2.5 -6.367188 2.34375 -6.265625 C 2.1875 -6.171875 2.0625 -6.046875 1.96875 -5.890625 C 1.882812 -5.742188 1.84375 -5.578125 1.84375 -5.390625 C 1.84375 -5.128906 1.96875 -4.925781 2.21875 -4.78125 C 2.46875 -4.644531 2.832031 -4.515625 3.3125 -4.390625 C 3.707031 -4.296875 4.078125 -4.191406 4.421875 -4.078125 C 4.773438 -3.972656 5.082031 -3.835938 5.34375 -3.671875 C 5.601562 -3.503906 5.804688 -3.296875 5.953125 -3.046875 C 6.109375 -2.796875 6.1875 -2.484375 6.1875 -2.109375 C 6.1875 -1.421875 5.941406 -0.882812 5.453125 -0.5 C 4.972656 -0.113281 4.304688 0.078125 3.453125 0.078125 C 3.109375 0.078125 2.769531 0.0351562 2.4375 -0.046875 C 2.101562 -0.140625 1.785156 -0.257812 1.484375 -0.40625 C 1.398438 -0.445312 1.335938 -0.476562 1.296875 -0.5 C 1.253906 -0.519531 1.203125 -0.53125 1.140625 -0.53125 C 1.046875 -0.53125 0.960938 -0.484375 0.890625 -0.390625 L 0.734375 -0.453125 L 1.609375 -2.03125 L 1.75 -1.96875 C 1.75 -1.582031 1.90625 -1.285156 2.21875 -1.078125 C 2.539062 -0.878906 2.976562 -0.78125 3.53125 -0.78125 C 3.738281 -0.78125 3.945312 -0.804688 4.15625 -0.859375 C 4.363281 -0.910156 4.550781 -0.988281 4.71875 -1.09375 C 4.882812 -1.195312 5.015625 -1.328125 5.109375 -1.484375 C 5.210938 -1.640625 5.265625 -1.828125 5.265625 -2.046875 C 5.265625 -2.234375 5.21875 -2.394531 5.125 -2.53125 C 5.03125 -2.675781 4.894531 -2.800781 4.71875 -2.90625 C 4.550781 -3.019531 4.34375 -3.113281 4.09375 -3.1875 C 3.84375 -3.257812 3.566406 -3.332031 3.265625 -3.40625 C 2.953125 -3.488281 2.648438 -3.578125 2.359375 -3.671875 C 2.078125 -3.765625 1.828125 -3.882812 1.609375 -4.03125 C 1.398438 -4.1875 1.234375 -4.367188 1.109375 -4.578125 C 0.984375 -4.796875 0.921875 -5.0625 0.921875 -5.375 C 0.921875 -6.019531 1.15625 -6.523438 1.625 -6.890625 C 2.09375 -7.253906 2.71875 -7.4375 3.5 -7.4375 Z M 3.5 -7.4375 "/></g></g><g style="fill:#ffffff;fill-opacity:1;"><g transform="translate(90.673983, 66.448612)"><path style="stroke:none" d="M 5.359375 -5.140625 L 5.1875 -5.140625 C 5.164062 -5.273438 5.125 -5.363281 5.0625 -5.40625 C 5 -5.457031 4.910156 -5.484375 4.796875 -5.484375 L 2.234375 -5.484375 L 2.234375 -3.46875 L 3.890625 -3.46875 C 4.003906 -3.46875 4.09375 -3.492188 4.15625 -3.546875 C 4.21875 -3.597656 4.257812 -3.691406 4.28125 -3.828125 L 4.453125 -3.828125 L 4.453125 -2.46875 L 4.28125 -2.46875 C 4.257812 -2.59375 4.21875 -2.675781 4.15625 -2.71875 C 4.09375 -2.769531 4.007812 -2.796875 3.90625 -2.796875 L 2.234375 -2.796875 L 2.234375 -0.671875 L 4.921875 -0.671875 C 5.035156 -0.671875 5.125 -0.691406 5.1875 -0.734375 C 5.25 -0.785156 5.289062 -0.882812 5.3125 -1.03125 L 5.484375 -1.03125 L 5.484375 0.25 L 5.3125 0.25 C 5.289062 0.144531 5.238281 0.078125 5.15625 0.046875 C 5.082031 0.015625 4.953125 0 4.765625 0 L 1.125 0 L 1.125 -0.171875 C 1.21875 -0.191406 1.28125 -0.238281 1.3125 -0.3125 C 1.351562 -0.394531 1.375 -0.515625 1.375 -0.671875 L 1.375 -5.484375 C 1.375 -5.671875 1.351562 -5.796875 1.3125 -5.859375 C 1.28125 -5.921875 1.21875 -5.960938 1.125 -5.984375 L 1.125 -6.15625 L 4.75 -6.15625 C 4.863281 -6.15625 4.957031 -6.171875 5.03125 -6.203125 C 5.113281 -6.234375 5.164062 -6.300781 5.1875 -6.40625 L 5.359375 -6.40625 Z M 5.359375 -5.140625 "/></g></g><g style="fill:#ffffff;fill-opacity:1;"><g transform="translate(96.884846, 66.448612)"><path style="stroke:none" d="M 3.53125 -3.390625 C 3.988281 -3.390625 4.347656 -3.476562 4.609375 -3.65625 C 4.867188 -3.832031 5 -4.113281 5 -4.5 C 5 -4.832031 4.875 -5.078125 4.625 -5.234375 C 4.375 -5.398438 4.015625 -5.484375 3.546875 -5.484375 L 2.203125 -5.484375 L 2.203125 -3.390625 Z M 3.703125 -6.15625 C 4.003906 -6.15625 4.28125 -6.113281 4.53125 -6.03125 C 4.789062 -5.957031 5.015625 -5.847656 5.203125 -5.703125 C 5.390625 -5.566406 5.535156 -5.390625 5.640625 -5.171875 C 5.742188 -4.953125 5.796875 -4.703125 5.796875 -4.421875 C 5.796875 -4.023438 5.679688 -3.675781 5.453125 -3.375 C 5.222656 -3.082031 4.90625 -2.90625 4.5 -2.84375 L 5.71875 -0.546875 C 5.789062 -0.398438 5.859375 -0.300781 5.921875 -0.25 C 5.992188 -0.195312 6.082031 -0.171875 6.1875 -0.171875 L 6.1875 0 L 4.625 0 L 4.625 -0.171875 C 4.6875 -0.179688 4.742188 -0.195312 4.796875 -0.21875 C 4.847656 -0.238281 4.875 -0.273438 4.875 -0.328125 C 4.875 -0.378906 4.859375 -0.4375 4.828125 -0.5 C 4.804688 -0.5625 4.78125 -0.617188 4.75 -0.671875 L 3.6875 -2.65625 L 2.203125 -2.65625 L 2.203125 -0.703125 C 2.203125 -0.523438 2.21875 -0.394531 2.25 -0.3125 C 2.289062 -0.238281 2.375 -0.191406 2.5 -0.171875 L 2.5 0 L 1.078125 0 L 1.078125 -0.171875 C 1.179688 -0.191406 1.25 -0.238281 1.28125 -0.3125 C 1.3125 -0.394531 1.328125 -0.515625 1.328125 -0.671875 L 1.328125 -5.484375 C 1.328125 -5.628906 1.3125 -5.742188 1.28125 -5.828125 C 1.25 -5.910156 1.179688 -5.960938 1.078125 -5.984375 L 1.078125 -6.15625 Z M 3.703125 -6.15625 "/></g></g><g style="fill:#ffffff;fill-opacity:1;"><g transform="translate(103.627256, 66.448612)"><path style="stroke:none" d="M 1.8125 -6.15625 L 1.8125 -5.984375 C 1.6875 -5.941406 1.625 -5.867188 1.625 -5.765625 C 1.625 -5.710938 1.628906 -5.65625 1.640625 -5.59375 C 1.660156 -5.539062 1.691406 -5.460938 1.734375 -5.359375 L 3.125 -0.921875 L 3.140625 -0.921875 L 4.296875 -4.890625 C 4.359375 -5.109375 4.40625 -5.269531 4.4375 -5.375 C 4.46875 -5.488281 4.484375 -5.597656 4.484375 -5.703125 C 4.484375 -5.859375 4.390625 -5.953125 4.203125 -5.984375 L 4.203125 -6.15625 L 5.71875 -6.15625 L 5.71875 -5.984375 C 5.59375 -5.972656 5.492188 -5.945312 5.421875 -5.90625 C 5.347656 -5.863281 5.285156 -5.738281 5.234375 -5.53125 L 3.875 -0.859375 C 3.832031 -0.734375 3.800781 -0.632812 3.78125 -0.5625 C 3.757812 -0.5 3.75 -0.4375 3.75 -0.375 C 3.75 -0.28125 3.800781 -0.210938 3.90625 -0.171875 L 3.90625 0 L 2.328125 0 L 2.328125 -0.1875 C 2.398438 -0.195312 2.4375 -0.242188 2.4375 -0.328125 C 2.4375 -0.367188 2.394531 -0.523438 2.3125 -0.796875 L 0.953125 -5.109375 C 0.910156 -5.210938 0.875 -5.316406 0.84375 -5.421875 C 0.820312 -5.535156 0.804688 -5.601562 0.796875 -5.625 C 0.753906 -5.75 0.707031 -5.832031 0.65625 -5.875 C 0.601562 -5.925781 0.523438 -5.960938 0.421875 -5.984375 L 0.421875 -6.15625 Z M 1.8125 -6.15625 "/></g></g><g style="fill:#ffffff;fill-opacity:1;"><g transform="translate(109.838118, 66.448612)"><path style="stroke:none" d="M 2.625 -6.15625 L 2.625 -5.984375 C 2.519531 -5.960938 2.453125 -5.914062 2.421875 -5.84375 C 2.390625 -5.769531 2.375 -5.65625 2.375 -5.5 L 2.375 -0.65625 C 2.375 -0.5 2.390625 -0.382812 2.421875 -0.3125 C 2.453125 -0.238281 2.519531 -0.191406 2.625 -0.171875 L 2.625 0 L 1.265625 0 L 1.265625 -0.171875 C 1.359375 -0.191406 1.421875 -0.238281 1.453125 -0.3125 C 1.492188 -0.382812 1.515625 -0.5 1.515625 -0.65625 L 1.515625 -5.5 C 1.515625 -5.65625 1.492188 -5.769531 1.453125 -5.84375 C 1.421875 -5.914062 1.359375 -5.960938 1.265625 -5.984375 L 1.265625 -6.15625 Z M 2.625 -6.15625 "/></g></g><g style="fill:#ffffff;fill-opacity:1;"><g transform="translate(113.726903, 66.448612)"><path style="stroke:none" d="M 3.4375 -6.234375 C 3.757812 -6.234375 4.046875 -6.175781 4.296875 -6.0625 C 4.546875 -5.957031 4.78125 -5.8125 5 -5.625 C 5.070312 -5.570312 5.132812 -5.523438 5.1875 -5.484375 C 5.238281 -5.453125 5.285156 -5.4375 5.328125 -5.4375 C 5.359375 -5.4375 5.382812 -5.445312 5.40625 -5.46875 C 5.4375 -5.488281 5.476562 -5.507812 5.53125 -5.53125 L 5.625 -5.46875 L 4.9375 -4.40625 L 4.8125 -4.453125 L 4.8125 -4.515625 C 4.8125 -4.679688 4.769531 -4.828125 4.6875 -4.953125 C 4.601562 -5.078125 4.5 -5.1875 4.375 -5.28125 C 4.25 -5.375 4.109375 -5.441406 3.953125 -5.484375 C 3.796875 -5.535156 3.644531 -5.5625 3.5 -5.5625 C 2.894531 -5.5625 2.425781 -5.332031 2.09375 -4.875 C 1.757812 -4.414062 1.59375 -3.816406 1.59375 -3.078125 C 1.59375 -2.242188 1.753906 -1.617188 2.078125 -1.203125 C 2.410156 -0.796875 2.863281 -0.59375 3.4375 -0.59375 C 3.625 -0.59375 3.796875 -0.625 3.953125 -0.6875 C 4.117188 -0.757812 4.265625 -0.84375 4.390625 -0.9375 C 4.523438 -1.039062 4.625 -1.148438 4.6875 -1.265625 C 4.757812 -1.378906 4.796875 -1.488281 4.796875 -1.59375 C 4.796875 -1.644531 4.789062 -1.6875 4.78125 -1.71875 L 4.90625 -1.765625 L 5.71875 -0.734375 L 5.625 -0.65625 C 5.601562 -0.675781 5.578125 -0.691406 5.546875 -0.703125 C 5.523438 -0.710938 5.488281 -0.71875 5.4375 -0.71875 C 5.382812 -0.71875 5.328125 -0.695312 5.265625 -0.65625 C 5.203125 -0.625 5.117188 -0.570312 5.015625 -0.5 C 4.816406 -0.351562 4.597656 -0.21875 4.359375 -0.09375 C 4.117188 0.0195312 3.8125 0.078125 3.4375 0.078125 C 2.582031 0.078125 1.914062 -0.1875 1.4375 -0.71875 C 0.96875 -1.257812 0.734375 -2.046875 0.734375 -3.078125 C 0.734375 -3.492188 0.789062 -3.890625 0.90625 -4.265625 C 1.019531 -4.648438 1.191406 -4.988281 1.421875 -5.28125 C 1.648438 -5.570312 1.929688 -5.800781 2.265625 -5.96875 C 2.597656 -6.144531 2.988281 -6.234375 3.4375 -6.234375 Z M 3.4375 -6.234375 "/></g></g><g style="fill:#ffffff;fill-opacity:1;"><g transform="translate(119.937765, 66.448612)"><path style="stroke:none" d="M 5.359375 -5.140625 L 5.1875 -5.140625 C 5.164062 -5.273438 5.125 -5.363281 5.0625 -5.40625 C 5 -5.457031 4.910156 -5.484375 4.796875 -5.484375 L 2.234375 -5.484375 L 2.234375 -3.46875 L 3.890625 -3.46875 C 4.003906 -3.46875 4.09375 -3.492188 4.15625 -3.546875 C 4.21875 -3.597656 4.257812 -3.691406 4.28125 -3.828125 L 4.453125 -3.828125 L 4.453125 -2.46875 L 4.28125 -2.46875 C 4.257812 -2.59375 4.21875 -2.675781 4.15625 -2.71875 C 4.09375 -2.769531 4.007812 -2.796875 3.90625 -2.796875 L 2.234375 -2.796875 L 2.234375 -0.671875 L 4.921875 -0.671875 C 5.035156 -0.671875 5.125 -0.691406 5.1875 -0.734375 C 5.25 -0.785156 5.289062 -0.882812 5.3125 -1.03125 L 5.484375 -1.03125 L 5.484375 0.25 L 5.3125 0.25 C 5.289062 0.144531 5.238281 0.078125 5.15625 0.046875 C 5.082031 0.015625 4.953125 0 4.765625 0 L 1.125 0 L 1.125 -0.171875 C 1.21875 -0.191406 1.28125 -0.238281 1.3125 -0.3125 C 1.351562 -0.394531 1.375 -0.515625 1.375 -0.671875 L 1.375 -5.484375 C 1.375 -5.671875 1.351562 -5.796875 1.3125 -5.859375 C 1.28125 -5.921875 1.21875 -5.960938 1.125 -5.984375 L 1.125 -6.15625 L 4.75 -6.15625 C 4.863281 -6.15625 4.957031 -6.171875 5.03125 -6.203125 C 5.113281 -6.234375 5.164062 -6.300781 5.1875 -6.40625 L 5.359375 -6.40625 Z M 5.359375 -5.140625 "/></g></g><g style="fill:#ffffff;fill-opacity:1;"><g transform="translate(126.148627, 66.448612)"><path style="stroke:none" d="M 3.078125 -6.234375 C 3.421875 -6.234375 3.707031 -6.203125 3.9375 -6.140625 C 4.175781 -6.085938 4.375 -6.03125 4.53125 -5.96875 C 4.6875 -5.90625 4.789062 -5.875 4.84375 -5.875 C 4.882812 -5.875 4.925781 -5.882812 4.96875 -5.90625 C 5.019531 -5.9375 5.066406 -5.96875 5.109375 -6 L 5.21875 -5.921875 L 4.609375 -4.703125 L 4.484375 -4.75 C 4.492188 -4.789062 4.5 -4.820312 4.5 -4.84375 C 4.5 -4.863281 4.5 -4.882812 4.5 -4.90625 C 4.5 -5.007812 4.445312 -5.101562 4.34375 -5.1875 C 4.238281 -5.269531 4.101562 -5.335938 3.9375 -5.390625 C 3.78125 -5.453125 3.613281 -5.492188 3.4375 -5.515625 C 3.269531 -5.546875 3.117188 -5.5625 2.984375 -5.5625 C 2.617188 -5.5625 2.316406 -5.472656 2.078125 -5.296875 C 1.835938 -5.117188 1.71875 -4.910156 1.71875 -4.671875 C 1.71875 -4.410156 1.816406 -4.207031 2.015625 -4.0625 C 2.222656 -3.914062 2.570312 -3.789062 3.0625 -3.6875 C 3.351562 -3.632812 3.632812 -3.570312 3.90625 -3.5 C 4.175781 -3.425781 4.414062 -3.320312 4.625 -3.1875 C 4.832031 -3.0625 5 -2.890625 5.125 -2.671875 C 5.25 -2.460938 5.3125 -2.1875 5.3125 -1.84375 C 5.3125 -1.53125 5.25 -1.253906 5.125 -1.015625 C 5 -0.773438 4.832031 -0.570312 4.625 -0.40625 C 4.414062 -0.25 4.175781 -0.128906 3.90625 -0.046875 C 3.632812 0.0351562 3.347656 0.078125 3.046875 0.078125 C 2.765625 0.078125 2.507812 0.0507812 2.28125 0 C 2.050781 -0.0507812 1.851562 -0.113281 1.6875 -0.1875 C 1.53125 -0.257812 1.398438 -0.320312 1.296875 -0.375 C 1.203125 -0.4375 1.140625 -0.46875 1.109375 -0.46875 C 1.035156 -0.46875 0.960938 -0.421875 0.890625 -0.328125 L 0.734375 -0.390625 L 1.328125 -1.65625 L 1.484375 -1.578125 C 1.460938 -1.535156 1.445312 -1.5 1.4375 -1.46875 C 1.4375 -1.445312 1.4375 -1.425781 1.4375 -1.40625 C 1.4375 -1.320312 1.476562 -1.234375 1.5625 -1.140625 C 1.65625 -1.046875 1.773438 -0.957031 1.921875 -0.875 C 2.066406 -0.789062 2.234375 -0.722656 2.421875 -0.671875 C 2.617188 -0.617188 2.820312 -0.59375 3.03125 -0.59375 C 3.195312 -0.59375 3.367188 -0.613281 3.546875 -0.65625 C 3.722656 -0.707031 3.878906 -0.78125 4.015625 -0.875 C 4.160156 -0.96875 4.273438 -1.09375 4.359375 -1.25 C 4.453125 -1.414062 4.5 -1.613281 4.5 -1.84375 C 4.5 -2.007812 4.457031 -2.148438 4.375 -2.265625 C 4.300781 -2.390625 4.191406 -2.488281 4.046875 -2.5625 C 3.910156 -2.632812 3.742188 -2.695312 3.546875 -2.75 C 3.359375 -2.8125 3.15625 -2.863281 2.9375 -2.90625 C 2.6875 -2.96875 2.4375 -3.035156 2.1875 -3.109375 C 1.945312 -3.179688 1.734375 -3.28125 1.546875 -3.40625 C 1.359375 -3.53125 1.203125 -3.691406 1.078125 -3.890625 C 0.960938 -4.097656 0.90625 -4.359375 0.90625 -4.671875 C 0.90625 -5.148438 1.101562 -5.53125 1.5 -5.8125 C 1.90625 -6.09375 2.429688 -6.234375 3.078125 -6.234375 Z M 3.078125 -6.234375 "/></g></g><g style="fill:#ffffff;fill-opacity:1;"><g transform="translate(132.35949, 66.448612)"><path style="stroke:none" d="M 1.65625 -1.28125 C 1.957031 -1.28125 2.191406 -1.191406 2.359375 -1.015625 C 2.523438 -0.835938 2.609375 -0.601562 2.609375 -0.3125 C 2.609375 -0.0625 2.5625 0.179688 2.46875 0.421875 C 2.375 0.671875 2.25 0.894531 2.09375 1.09375 C 1.9375 1.289062 1.753906 1.453125 1.546875 1.578125 C 1.335938 1.710938 1.113281 1.789062 0.875 1.8125 L 0.875 1.421875 C 1.1875 1.304688 1.441406 1.140625 1.640625 0.921875 C 1.835938 0.703125 1.9375 0.390625 1.9375 -0.015625 C 1.925781 -0.00390625 1.898438 0.00390625 1.859375 0.015625 C 1.828125 0.0234375 1.773438 0.03125 1.703125 0.03125 C 1.628906 0.03125 1.550781 0.0195312 1.46875 0 C 1.382812 -0.0195312 1.304688 -0.0507812 1.234375 -0.09375 C 1.160156 -0.132812 1.097656 -0.191406 1.046875 -0.265625 C 1.003906 -0.335938 0.984375 -0.429688 0.984375 -0.546875 C 0.984375 -0.742188 1.039062 -0.914062 1.15625 -1.0625 C 1.28125 -1.207031 1.445312 -1.28125 1.65625 -1.28125 Z M 1.65625 -1.28125 "/></g></g><g style="fill:#ffffff;fill-opacity:1;"><g transform="translate(135.856596, 66.448612)"><path style="stroke:none" d=""/></g></g><g style="fill:#ffffff;fill-opacity:1;"><g transform="translate(139.353698, 66.448612)"><path style="stroke:none" d="M 2.515625 -7.359375 L 2.515625 -7.1875 C 2.390625 -7.164062 2.304688 -7.113281 2.265625 -7.03125 C 2.234375 -6.945312 2.21875 -6.828125 2.21875 -6.671875 L 2.21875 -0.859375 L 5.328125 -0.859375 C 5.640625 -0.859375 5.8125 -0.957031 5.84375 -1.15625 L 6.015625 -1.15625 L 6.015625 0.25 L 5.84375 0.25 C 5.820312 0.144531 5.765625 0.078125 5.671875 0.046875 C 5.578125 0.015625 5.472656 0 5.359375 0 L 0.890625 0 L 0.890625 -0.171875 C 1.015625 -0.191406 1.09375 -0.238281 1.125 -0.3125 C 1.164062 -0.382812 1.1875 -0.507812 1.1875 -0.6875 L 1.1875 -6.671875 C 1.1875 -6.828125 1.171875 -6.945312 1.140625 -7.03125 C 1.109375 -7.113281 1.023438 -7.164062 0.890625 -7.1875 L 0.890625 -7.359375 Z M 2.515625 -7.359375 "/></g></g><g style="fill:#ffffff;fill-opacity:1;"><g transform="translate(145.564565, 66.448612)"><path style="stroke:none" d="M 2.515625 -7.359375 L 2.515625 -7.1875 C 2.390625 -7.164062 2.304688 -7.113281 2.265625 -7.03125 C 2.234375 -6.945312 2.21875 -6.828125 2.21875 -6.671875 L 2.21875 -0.859375 L 5.328125 -0.859375 C 5.640625 -0.859375 5.8125 -0.957031 5.84375 -1.15625 L 6.015625 -1.15625 L 6.015625 0.25 L 5.84375 0.25 C 5.820312 0.144531 5.765625 0.078125 5.671875 0.046875 C 5.578125 0.015625 5.472656 0 5.359375 0 L 0.890625 0 L 0.890625 -0.171875 C 1.015625 -0.191406 1.09375 -0.238281 1.125 -0.3125 C 1.164062 -0.382812 1.1875 -0.507812 1.1875 -0.6875 L 1.1875 -6.671875 C 1.1875 -6.828125 1.171875 -6.945312 1.140625 -7.03125 C 1.109375 -7.113281 1.023438 -7.164062 0.890625 -7.1875 L 0.890625 -7.359375 Z M 2.515625 -7.359375 "/></g></g><g style="fill:#ffffff;fill-opacity:1;"><g transform="translate(151.775433, 66.448612)"><path style="stroke:none" d="M 3.703125 -7.4375 C 3.859375 -7.4375 4.03125 -7.425781 4.21875 -7.40625 C 4.40625 -7.382812 4.601562 -7.335938 4.8125 -7.265625 C 5.207031 -7.117188 5.507812 -6.960938 5.71875 -6.796875 C 5.925781 -6.640625 6.054688 -6.5625 6.109375 -6.5625 C 6.140625 -6.5625 6.160156 -6.566406 6.171875 -6.578125 C 6.191406 -6.585938 6.21875 -6.597656 6.25 -6.609375 L 6.359375 -6.5625 L 5.515625 -5.34375 L 5.375 -5.40625 C 5.382812 -5.457031 5.390625 -5.492188 5.390625 -5.515625 C 5.390625 -5.546875 5.390625 -5.585938 5.390625 -5.640625 C 5.390625 -5.734375 5.34375 -5.832031 5.25 -5.9375 C 5.164062 -6.039062 5.050781 -6.140625 4.90625 -6.234375 C 4.757812 -6.328125 4.582031 -6.40625 4.375 -6.46875 C 4.164062 -6.539062 3.953125 -6.578125 3.734375 -6.578125 C 3.347656 -6.578125 3.015625 -6.492188 2.734375 -6.328125 C 2.460938 -6.160156 2.238281 -5.941406 2.0625 -5.671875 C 1.882812 -5.410156 1.753906 -5.109375 1.671875 -4.765625 C 1.597656 -4.421875 1.5625 -4.0625 1.5625 -3.6875 C 1.5625 -2.71875 1.769531 -1.988281 2.1875 -1.5 C 2.613281 -1.019531 3.148438 -0.78125 3.796875 -0.78125 C 4.015625 -0.78125 4.222656 -0.816406 4.421875 -0.890625 C 4.628906 -0.960938 4.816406 -1.050781 4.984375 -1.15625 C 5.148438 -1.269531 5.28125 -1.382812 5.375 -1.5 C 5.46875 -1.613281 5.515625 -1.710938 5.515625 -1.796875 C 5.515625 -1.835938 5.503906 -1.890625 5.484375 -1.953125 C 5.472656 -2.023438 5.445312 -2.085938 5.40625 -2.140625 L 5.625 -2.21875 L 6.578125 -0.90625 L 6.421875 -0.8125 C 6.347656 -0.882812 6.269531 -0.921875 6.1875 -0.921875 C 6.144531 -0.921875 6.085938 -0.890625 6.015625 -0.828125 C 5.953125 -0.773438 5.890625 -0.726562 5.828125 -0.6875 C 5.617188 -0.519531 5.347656 -0.347656 5.015625 -0.171875 C 4.679688 -0.00390625 4.273438 0.078125 3.796875 0.078125 C 3.285156 0.078125 2.828125 -0.0078125 2.421875 -0.1875 C 2.015625 -0.375 1.671875 -0.632812 1.390625 -0.96875 C 1.117188 -1.300781 0.90625 -1.695312 0.75 -2.15625 C 0.601562 -2.625 0.53125 -3.128906 0.53125 -3.671875 C 0.53125 -4.210938 0.601562 -4.710938 0.75 -5.171875 C 0.90625 -5.640625 1.117188 -6.039062 1.390625 -6.375 C 1.660156 -6.707031 1.992188 -6.96875 2.390625 -7.15625 C 2.785156 -7.34375 3.222656 -7.4375 3.703125 -7.4375 Z M 3.703125 -7.4375 "/></g></g></g></svg>